G04 #@! TF.GenerationSoftware,KiCad,Pcbnew,6.0.9+dfsg-1*
G04 #@! TF.CreationDate,2023-01-25T21:24:40+01:00*
G04 #@! TF.ProjectId,siproslic,73697072-6f73-46c6-9963-2e6b69636164,rev?*
G04 #@! TF.SameCoordinates,Original*
G04 #@! TF.FileFunction,Paste,Top*
G04 #@! TF.FilePolarity,Positive*
%FSLAX46Y46*%
G04 Gerber Fmt 4.6, Leading zero omitted, Abs format (unit mm)*
G04 Created by KiCad (PCBNEW 6.0.9+dfsg-1) date 2023-01-25 21:24:40*
%MOMM*%
%LPD*%
G01*
G04 APERTURE LIST*
G04 Aperture macros list*
%AMRoundRect*
0 Rectangle with rounded corners*
0 $1 Rounding radius*
0 $2 $3 $4 $5 $6 $7 $8 $9 X,Y pos of 4 corners*
0 Add a 4 corners polygon primitive as box body*
4,1,4,$2,$3,$4,$5,$6,$7,$8,$9,$2,$3,0*
0 Add four circle primitives for the rounded corners*
1,1,$1+$1,$2,$3*
1,1,$1+$1,$4,$5*
1,1,$1+$1,$6,$7*
1,1,$1+$1,$8,$9*
0 Add four rect primitives between the rounded corners*
20,1,$1+$1,$2,$3,$4,$5,0*
20,1,$1+$1,$4,$5,$6,$7,0*
20,1,$1+$1,$6,$7,$8,$9,0*
20,1,$1+$1,$8,$9,$2,$3,0*%
G04 Aperture macros list end*
%ADD10RoundRect,0.218750X0.218750X0.256250X-0.218750X0.256250X-0.218750X-0.256250X0.218750X-0.256250X0*%
%ADD11RoundRect,0.218750X-0.218750X-0.256250X0.218750X-0.256250X0.218750X0.256250X-0.218750X0.256250X0*%
%ADD12RoundRect,0.250000X-0.250000X-0.475000X0.250000X-0.475000X0.250000X0.475000X-0.250000X0.475000X0*%
%ADD13RoundRect,0.250000X-0.262500X-0.450000X0.262500X-0.450000X0.262500X0.450000X-0.262500X0.450000X0*%
%ADD14RoundRect,0.011200X-2.988800X-2.988800X2.988800X-2.988800X2.988800X2.988800X-2.988800X2.988800X0*%
%ADD15RoundRect,0.011200X0.128800X-0.723800X0.128800X0.723800X-0.128800X0.723800X-0.128800X-0.723800X0*%
%ADD16RoundRect,0.011200X-0.723800X-0.128800X0.723800X-0.128800X0.723800X0.128800X-0.723800X0.128800X0*%
%ADD17RoundRect,0.037800X0.232200X-0.742200X0.232200X0.742200X-0.232200X0.742200X-0.232200X-0.742200X0*%
%ADD18RoundRect,0.037800X-0.742200X-0.232200X0.742200X-0.232200X0.742200X0.232200X-0.742200X0.232200X0*%
%ADD19RoundRect,0.042000X-1.108000X-1.758000X1.108000X-1.758000X1.108000X1.758000X-1.108000X1.758000X0*%
%ADD20RoundRect,0.042000X-0.943000X-0.258000X0.943000X-0.258000X0.943000X0.258000X-0.943000X0.258000X0*%
G04 APERTURE END LIST*
D10*
X124912500Y-180625000D03*
X123337500Y-180625000D03*
D11*
X126337500Y-180625000D03*
X127912500Y-180625000D03*
D12*
X87275000Y-151475000D03*
X85375000Y-151475000D03*
X83275000Y-151475000D03*
X81375000Y-151475000D03*
X85375000Y-167275000D03*
X87275000Y-167275000D03*
X81375000Y-167275000D03*
X83275000Y-167275000D03*
D13*
X39612500Y-173075000D03*
X41437500Y-173075000D03*
X39612500Y-171025000D03*
X41437500Y-171025000D03*
X39625000Y-188875000D03*
X41450000Y-188875000D03*
X39612500Y-186825000D03*
X41437500Y-186825000D03*
D14*
X100425000Y-170475000D03*
D15*
X96675000Y-164805000D03*
X97175000Y-164805000D03*
X97675000Y-164805000D03*
X98175000Y-164805000D03*
X98675000Y-164805000D03*
X99175000Y-164805000D03*
X99675000Y-164805000D03*
X100175000Y-164805000D03*
X100675000Y-164805000D03*
X101175000Y-164805000D03*
X101675000Y-164805000D03*
X102175000Y-164805000D03*
X102675000Y-164805000D03*
X103175000Y-164805000D03*
X103675000Y-164805000D03*
X104175000Y-164805000D03*
D16*
X106095000Y-166725000D03*
X106095000Y-167225000D03*
X106095000Y-167725000D03*
X106095000Y-168225000D03*
X106095000Y-168725000D03*
X106095000Y-169225000D03*
X106095000Y-169725000D03*
X106095000Y-170225000D03*
X106095000Y-170725000D03*
X106095000Y-171225000D03*
X106095000Y-171725000D03*
X106095000Y-172225000D03*
X106095000Y-172725000D03*
X106095000Y-173225000D03*
X106095000Y-173725000D03*
X106095000Y-174225000D03*
D15*
X104175000Y-176145000D03*
X103675000Y-176145000D03*
X103175000Y-176145000D03*
X102675000Y-176145000D03*
X102175000Y-176145000D03*
X101675000Y-176145000D03*
X101175000Y-176145000D03*
X100675000Y-176145000D03*
X100175000Y-176145000D03*
X99675000Y-176145000D03*
X99175000Y-176145000D03*
X98675000Y-176145000D03*
X98175000Y-176145000D03*
X97675000Y-176145000D03*
X97175000Y-176145000D03*
X96675000Y-176145000D03*
D16*
X94755000Y-174225000D03*
X94755000Y-173725000D03*
X94755000Y-173225000D03*
X94755000Y-172725000D03*
X94755000Y-172225000D03*
X94755000Y-171725000D03*
X94755000Y-171225000D03*
X94755000Y-170725000D03*
X94755000Y-170225000D03*
X94755000Y-169725000D03*
X94755000Y-169225000D03*
X94755000Y-168725000D03*
X94755000Y-168225000D03*
X94755000Y-167725000D03*
X94755000Y-167225000D03*
X94755000Y-166725000D03*
D17*
X112425000Y-167745000D03*
X113225000Y-167745000D03*
X114025000Y-167745000D03*
X114825000Y-167745000D03*
X115625000Y-167745000D03*
X116425000Y-167745000D03*
X117225000Y-167745000D03*
X118025000Y-167745000D03*
D18*
X119405000Y-169125000D03*
X119405000Y-169925000D03*
X119405000Y-170725000D03*
X119405000Y-171525000D03*
X119405000Y-172325000D03*
X119405000Y-173125000D03*
X119405000Y-173925000D03*
X119405000Y-174725000D03*
D17*
X118025000Y-176105000D03*
X117225000Y-176105000D03*
X116425000Y-176105000D03*
X115625000Y-176105000D03*
X114825000Y-176105000D03*
X114025000Y-176105000D03*
X113225000Y-176105000D03*
X112425000Y-176105000D03*
D18*
X111045000Y-174725000D03*
X111045000Y-173925000D03*
X111045000Y-173125000D03*
X111045000Y-172325000D03*
X111045000Y-171525000D03*
X111045000Y-170725000D03*
X111045000Y-169925000D03*
X111045000Y-169125000D03*
D19*
X84325000Y-157875000D03*
D20*
X86800000Y-153430000D03*
X86800000Y-154700000D03*
X86800000Y-155970000D03*
X86800000Y-157240000D03*
X86800000Y-158510000D03*
X86800000Y-159780000D03*
X86800000Y-161050000D03*
X86800000Y-162320000D03*
X81850000Y-162320000D03*
X81850000Y-161050000D03*
X81850000Y-159780000D03*
X81850000Y-158510000D03*
X81850000Y-157240000D03*
X81850000Y-155970000D03*
X81850000Y-154700000D03*
X81850000Y-153430000D03*
X81855000Y-169315000D03*
X81855000Y-170585000D03*
X81855000Y-171855000D03*
X81855000Y-173125000D03*
X81855000Y-174395000D03*
X81855000Y-175665000D03*
X81855000Y-176935000D03*
X81855000Y-178205000D03*
X86805000Y-178205000D03*
X86805000Y-176935000D03*
X86805000Y-175665000D03*
X86805000Y-174395000D03*
X86805000Y-173125000D03*
X86805000Y-171855000D03*
X86805000Y-170585000D03*
X86805000Y-169315000D03*
D19*
X84330000Y-173760000D03*
D20*
X114195000Y-161320000D03*
X114195000Y-162590000D03*
X114195000Y-163860000D03*
X114195000Y-165130000D03*
X109255000Y-165130000D03*
X109255000Y-163860000D03*
X109255000Y-162590000D03*
X109255000Y-161320000D03*
M02*
