G04 #@! TF.GenerationSoftware,KiCad,Pcbnew,6.0.9+dfsg-1*
G04 #@! TF.CreationDate,2023-01-25T21:24:40+01:00*
G04 #@! TF.ProjectId,siproslic,73697072-6f73-46c6-9963-2e6b69636164,rev?*
G04 #@! TF.SameCoordinates,Original*
G04 #@! TF.FileFunction,Profile,NP*
%FSLAX46Y46*%
G04 Gerber Fmt 4.6, Leading zero omitted, Abs format (unit mm)*
G04 Created by KiCad (PCBNEW 6.0.9+dfsg-1) date 2023-01-25 21:24:40*
%MOMM*%
%LPD*%
G01*
G04 APERTURE LIST*
G04 #@! TA.AperFunction,Profile*
%ADD10C,0.150000*%
G04 #@! TD*
G04 APERTURE END LIST*
D10*
X109975000Y-194125000D02*
X120175000Y-194125000D01*
X109475000Y-193625000D02*
X109975000Y-194125000D01*
X97825000Y-181375000D02*
X97825000Y-189625000D01*
X73575000Y-185500000D02*
G75*
G03*
X73575000Y-185500000I-1600000J0D01*
G01*
X129775000Y-144625000D02*
X64475000Y-144625000D01*
X122575000Y-186675000D02*
X122575000Y-193625000D01*
X109475000Y-183200000D02*
X109475000Y-193625000D01*
X122575000Y-193625000D02*
X123075000Y-194125000D01*
X79475000Y-189625000D02*
X79475000Y-181375000D01*
X73575000Y-147300000D02*
G75*
G03*
X73575000Y-147300000I-1600000J0D01*
G01*
X64475000Y-144625000D02*
X64475000Y-189625000D01*
X97825000Y-189625000D02*
X105825000Y-189625000D01*
X109475000Y-183200000D02*
G75*
G03*
X105825000Y-183200000I-1825000J0D01*
G01*
X122575000Y-186675000D02*
G75*
G03*
X120675000Y-186675000I-950000J0D01*
G01*
X64475000Y-189625000D02*
X79475000Y-189625000D01*
X129275000Y-194125000D02*
X123075000Y-194125000D01*
X120175000Y-194125000D02*
X120675000Y-193625000D01*
X129775000Y-193625000D02*
X129275000Y-194125000D01*
X105825000Y-189625000D02*
X105825000Y-183200000D01*
X129775000Y-144625000D02*
X129775000Y-193625000D01*
X79475000Y-181375000D02*
X97825000Y-181375000D01*
X120675000Y-193625000D02*
X120675000Y-186675000D01*
M02*
