%TF.GenerationSoftware,KiCad,Pcbnew,6.0.9+dfsg-1*%
%TF.CreationDate,2023-01-25T21:24:43+01:00*%
%TF.ProjectId,siproslic,73697072-6f73-46c6-9963-2e6b69636164,rev?*%
%TF.SameCoordinates,Original*%
%TF.FileFunction,Drillmap*%
%TF.FilePolarity,Positive*%
%FSLAX45Y45*%
G04 Gerber Fmt 4.5, Leading zero omitted, Abs format (unit mm)*
G04 Created by KiCad (PCBNEW 6.0.9+dfsg-1) date 2023-01-25 21:24:43*
%MOMM*%
%LPD*%
G01*
G04 APERTURE LIST*
%ADD10C,0.150000*%
%ADD11C,0.200000*%
%ADD12C,0.320000*%
G04 APERTURE END LIST*
D10*
X10997500Y-19412500D02*
X12017500Y-19412500D01*
X10947500Y-19362500D02*
X10997500Y-19412500D01*
X9782500Y-18137500D02*
X9782500Y-18962500D01*
X7357500Y-18550000D02*
G75*
G03*
X7357500Y-18550000I-160000J0D01*
G01*
X12977500Y-14462500D02*
X6447500Y-14462500D01*
X12257500Y-18667500D02*
X12257500Y-19362500D01*
X10947500Y-18320000D02*
X10947500Y-19362500D01*
X12257500Y-19362500D02*
X12307500Y-19412500D01*
X7947500Y-18962500D02*
X7947500Y-18137500D01*
X7357500Y-14730000D02*
G75*
G03*
X7357500Y-14730000I-160000J0D01*
G01*
X6447500Y-14462500D02*
X6447500Y-18962500D01*
X9782500Y-18962500D02*
X10582500Y-18962500D01*
X10947500Y-18320000D02*
G75*
G03*
X10582500Y-18320000I-182500J0D01*
G01*
X12257500Y-18667500D02*
G75*
G03*
X12067500Y-18667500I-95000J0D01*
G01*
X6447500Y-18962500D02*
X7947500Y-18962500D01*
X12927500Y-19412500D02*
X12307500Y-19412500D01*
X12017500Y-19412500D02*
X12067500Y-19362500D01*
X12977500Y-19362500D02*
X12927500Y-19412500D01*
X10582500Y-18962500D02*
X10582500Y-18320000D01*
X12977500Y-14462500D02*
X12977500Y-19362500D01*
X7947500Y-18137500D02*
X9782500Y-18137500D01*
X12067500Y-19362500D02*
X12067500Y-18667500D01*
D11*
D12*
X6782500Y-15254500D02*
X7102500Y-15574500D01*
X7102500Y-15254500D02*
X6782500Y-15574500D01*
X6782500Y-16568500D02*
X7102500Y-16888500D01*
X7102500Y-16568500D02*
X6782500Y-16888500D01*
X6782500Y-17584500D02*
X7102500Y-17904500D01*
X7102500Y-17584500D02*
X6782500Y-17904500D01*
X7037500Y-14570000D02*
X7357500Y-14890000D01*
X7357500Y-14570000D02*
X7037500Y-14890000D01*
X7037500Y-18390000D02*
X7357500Y-18710000D01*
X7357500Y-18390000D02*
X7037500Y-18710000D01*
D11*
X6697619Y-19730476D02*
X6697619Y-19530476D01*
X6745238Y-19530476D01*
X6773809Y-19540000D01*
X6792857Y-19559048D01*
X6802381Y-19578095D01*
X6811905Y-19616190D01*
X6811905Y-19644762D01*
X6802381Y-19682857D01*
X6792857Y-19701905D01*
X6773809Y-19720952D01*
X6745238Y-19730476D01*
X6697619Y-19730476D01*
X6897619Y-19730476D02*
X6897619Y-19597143D01*
X6897619Y-19635238D02*
X6907143Y-19616190D01*
X6916667Y-19606667D01*
X6935714Y-19597143D01*
X6954762Y-19597143D01*
X7021428Y-19730476D02*
X7021428Y-19597143D01*
X7021428Y-19530476D02*
X7011905Y-19540000D01*
X7021428Y-19549524D01*
X7030952Y-19540000D01*
X7021428Y-19530476D01*
X7021428Y-19549524D01*
X7145238Y-19730476D02*
X7126190Y-19720952D01*
X7116667Y-19701905D01*
X7116667Y-19530476D01*
X7250000Y-19730476D02*
X7230952Y-19720952D01*
X7221428Y-19701905D01*
X7221428Y-19530476D01*
X7478571Y-19730476D02*
X7478571Y-19530476D01*
X7545238Y-19673333D01*
X7611905Y-19530476D01*
X7611905Y-19730476D01*
X7792857Y-19730476D02*
X7792857Y-19625714D01*
X7783333Y-19606667D01*
X7764286Y-19597143D01*
X7726190Y-19597143D01*
X7707143Y-19606667D01*
X7792857Y-19720952D02*
X7773809Y-19730476D01*
X7726190Y-19730476D01*
X7707143Y-19720952D01*
X7697619Y-19701905D01*
X7697619Y-19682857D01*
X7707143Y-19663810D01*
X7726190Y-19654286D01*
X7773809Y-19654286D01*
X7792857Y-19644762D01*
X7888095Y-19597143D02*
X7888095Y-19797143D01*
X7888095Y-19606667D02*
X7907143Y-19597143D01*
X7945238Y-19597143D01*
X7964286Y-19606667D01*
X7973809Y-19616190D01*
X7983333Y-19635238D01*
X7983333Y-19692381D01*
X7973809Y-19711429D01*
X7964286Y-19720952D01*
X7945238Y-19730476D01*
X7907143Y-19730476D01*
X7888095Y-19720952D01*
X8069048Y-19711429D02*
X8078571Y-19720952D01*
X8069048Y-19730476D01*
X8059524Y-19720952D01*
X8069048Y-19711429D01*
X8069048Y-19730476D01*
X8069048Y-19606667D02*
X8078571Y-19616190D01*
X8069048Y-19625714D01*
X8059524Y-19616190D01*
X8069048Y-19606667D01*
X8069048Y-19625714D01*
X6240000Y-19960000D02*
X6440000Y-20160000D01*
X6440000Y-19960000D02*
X6240000Y-20160000D01*
X6678571Y-19950476D02*
X6802381Y-19950476D01*
X6735714Y-20026667D01*
X6764286Y-20026667D01*
X6783333Y-20036190D01*
X6792857Y-20045714D01*
X6802381Y-20064762D01*
X6802381Y-20112381D01*
X6792857Y-20131429D01*
X6783333Y-20140952D01*
X6764286Y-20150476D01*
X6707143Y-20150476D01*
X6688095Y-20140952D01*
X6678571Y-20131429D01*
X6888095Y-20131429D02*
X6897619Y-20140952D01*
X6888095Y-20150476D01*
X6878571Y-20140952D01*
X6888095Y-20131429D01*
X6888095Y-20150476D01*
X6973809Y-19969524D02*
X6983333Y-19960000D01*
X7002381Y-19950476D01*
X7050000Y-19950476D01*
X7069048Y-19960000D01*
X7078571Y-19969524D01*
X7088095Y-19988571D01*
X7088095Y-20007619D01*
X7078571Y-20036190D01*
X6964286Y-20150476D01*
X7088095Y-20150476D01*
X7211905Y-19950476D02*
X7230952Y-19950476D01*
X7250000Y-19960000D01*
X7259524Y-19969524D01*
X7269048Y-19988571D01*
X7278571Y-20026667D01*
X7278571Y-20074286D01*
X7269048Y-20112381D01*
X7259524Y-20131429D01*
X7250000Y-20140952D01*
X7230952Y-20150476D01*
X7211905Y-20150476D01*
X7192857Y-20140952D01*
X7183333Y-20131429D01*
X7173809Y-20112381D01*
X7164286Y-20074286D01*
X7164286Y-20026667D01*
X7173809Y-19988571D01*
X7183333Y-19969524D01*
X7192857Y-19960000D01*
X7211905Y-19950476D01*
X7402381Y-19950476D02*
X7421428Y-19950476D01*
X7440476Y-19960000D01*
X7450000Y-19969524D01*
X7459524Y-19988571D01*
X7469048Y-20026667D01*
X7469048Y-20074286D01*
X7459524Y-20112381D01*
X7450000Y-20131429D01*
X7440476Y-20140952D01*
X7421428Y-20150476D01*
X7402381Y-20150476D01*
X7383333Y-20140952D01*
X7373809Y-20131429D01*
X7364286Y-20112381D01*
X7354762Y-20074286D01*
X7354762Y-20026667D01*
X7364286Y-19988571D01*
X7373809Y-19969524D01*
X7383333Y-19960000D01*
X7402381Y-19950476D01*
X7554762Y-20150476D02*
X7554762Y-20017143D01*
X7554762Y-20036190D02*
X7564286Y-20026667D01*
X7583333Y-20017143D01*
X7611905Y-20017143D01*
X7630952Y-20026667D01*
X7640476Y-20045714D01*
X7640476Y-20150476D01*
X7640476Y-20045714D02*
X7650000Y-20026667D01*
X7669048Y-20017143D01*
X7697619Y-20017143D01*
X7716667Y-20026667D01*
X7726190Y-20045714D01*
X7726190Y-20150476D01*
X7821428Y-20150476D02*
X7821428Y-20017143D01*
X7821428Y-20036190D02*
X7830952Y-20026667D01*
X7850000Y-20017143D01*
X7878571Y-20017143D01*
X7897619Y-20026667D01*
X7907143Y-20045714D01*
X7907143Y-20150476D01*
X7907143Y-20045714D02*
X7916667Y-20026667D01*
X7935714Y-20017143D01*
X7964286Y-20017143D01*
X7983333Y-20026667D01*
X7992857Y-20045714D01*
X7992857Y-20150476D01*
X8383333Y-19940952D02*
X8211905Y-20198095D01*
X8640476Y-19950476D02*
X8659524Y-19950476D01*
X8678571Y-19960000D01*
X8688095Y-19969524D01*
X8697619Y-19988571D01*
X8707143Y-20026667D01*
X8707143Y-20074286D01*
X8697619Y-20112381D01*
X8688095Y-20131429D01*
X8678571Y-20140952D01*
X8659524Y-20150476D01*
X8640476Y-20150476D01*
X8621429Y-20140952D01*
X8611905Y-20131429D01*
X8602381Y-20112381D01*
X8592857Y-20074286D01*
X8592857Y-20026667D01*
X8602381Y-19988571D01*
X8611905Y-19969524D01*
X8621429Y-19960000D01*
X8640476Y-19950476D01*
X8792857Y-20131429D02*
X8802381Y-20140952D01*
X8792857Y-20150476D01*
X8783333Y-20140952D01*
X8792857Y-20131429D01*
X8792857Y-20150476D01*
X8992857Y-20150476D02*
X8878571Y-20150476D01*
X8935714Y-20150476D02*
X8935714Y-19950476D01*
X8916667Y-19979048D01*
X8897619Y-19998095D01*
X8878571Y-20007619D01*
X9069048Y-19969524D02*
X9078571Y-19960000D01*
X9097619Y-19950476D01*
X9145238Y-19950476D01*
X9164286Y-19960000D01*
X9173810Y-19969524D01*
X9183333Y-19988571D01*
X9183333Y-20007619D01*
X9173810Y-20036190D01*
X9059524Y-20150476D01*
X9183333Y-20150476D01*
X9354762Y-19950476D02*
X9316667Y-19950476D01*
X9297619Y-19960000D01*
X9288095Y-19969524D01*
X9269048Y-19998095D01*
X9259524Y-20036190D01*
X9259524Y-20112381D01*
X9269048Y-20131429D01*
X9278571Y-20140952D01*
X9297619Y-20150476D01*
X9335714Y-20150476D01*
X9354762Y-20140952D01*
X9364286Y-20131429D01*
X9373810Y-20112381D01*
X9373810Y-20064762D01*
X9364286Y-20045714D01*
X9354762Y-20036190D01*
X9335714Y-20026667D01*
X9297619Y-20026667D01*
X9278571Y-20036190D01*
X9269048Y-20045714D01*
X9259524Y-20064762D01*
X9497619Y-19950476D02*
X9516667Y-19950476D01*
X9535714Y-19960000D01*
X9545238Y-19969524D01*
X9554762Y-19988571D01*
X9564286Y-20026667D01*
X9564286Y-20074286D01*
X9554762Y-20112381D01*
X9545238Y-20131429D01*
X9535714Y-20140952D01*
X9516667Y-20150476D01*
X9497619Y-20150476D01*
X9478571Y-20140952D01*
X9469048Y-20131429D01*
X9459524Y-20112381D01*
X9450000Y-20074286D01*
X9450000Y-20026667D01*
X9459524Y-19988571D01*
X9469048Y-19969524D01*
X9478571Y-19960000D01*
X9497619Y-19950476D01*
X9640476Y-19950476D02*
X9640476Y-19988571D01*
X9716667Y-19950476D02*
X9716667Y-19988571D01*
X10011905Y-20226667D02*
X10002381Y-20217143D01*
X9983333Y-20188571D01*
X9973810Y-20169524D01*
X9964286Y-20140952D01*
X9954762Y-20093333D01*
X9954762Y-20055238D01*
X9964286Y-20007619D01*
X9973810Y-19979048D01*
X9983333Y-19960000D01*
X10002381Y-19931429D01*
X10011905Y-19921905D01*
X10183333Y-19950476D02*
X10088095Y-19950476D01*
X10078571Y-20045714D01*
X10088095Y-20036190D01*
X10107143Y-20026667D01*
X10154762Y-20026667D01*
X10173810Y-20036190D01*
X10183333Y-20045714D01*
X10192857Y-20064762D01*
X10192857Y-20112381D01*
X10183333Y-20131429D01*
X10173810Y-20140952D01*
X10154762Y-20150476D01*
X10107143Y-20150476D01*
X10088095Y-20140952D01*
X10078571Y-20131429D01*
X10430952Y-20150476D02*
X10430952Y-19950476D01*
X10516667Y-20150476D02*
X10516667Y-20045714D01*
X10507143Y-20026667D01*
X10488095Y-20017143D01*
X10459524Y-20017143D01*
X10440476Y-20026667D01*
X10430952Y-20036190D01*
X10640476Y-20150476D02*
X10621429Y-20140952D01*
X10611905Y-20131429D01*
X10602381Y-20112381D01*
X10602381Y-20055238D01*
X10611905Y-20036190D01*
X10621429Y-20026667D01*
X10640476Y-20017143D01*
X10669048Y-20017143D01*
X10688095Y-20026667D01*
X10697619Y-20036190D01*
X10707143Y-20055238D01*
X10707143Y-20112381D01*
X10697619Y-20131429D01*
X10688095Y-20140952D01*
X10669048Y-20150476D01*
X10640476Y-20150476D01*
X10821429Y-20150476D02*
X10802381Y-20140952D01*
X10792857Y-20121905D01*
X10792857Y-19950476D01*
X10973810Y-20140952D02*
X10954762Y-20150476D01*
X10916667Y-20150476D01*
X10897619Y-20140952D01*
X10888095Y-20121905D01*
X10888095Y-20045714D01*
X10897619Y-20026667D01*
X10916667Y-20017143D01*
X10954762Y-20017143D01*
X10973810Y-20026667D01*
X10983333Y-20045714D01*
X10983333Y-20064762D01*
X10888095Y-20083810D01*
X11059524Y-20140952D02*
X11078571Y-20150476D01*
X11116667Y-20150476D01*
X11135714Y-20140952D01*
X11145238Y-20121905D01*
X11145238Y-20112381D01*
X11135714Y-20093333D01*
X11116667Y-20083810D01*
X11088095Y-20083810D01*
X11069048Y-20074286D01*
X11059524Y-20055238D01*
X11059524Y-20045714D01*
X11069048Y-20026667D01*
X11088095Y-20017143D01*
X11116667Y-20017143D01*
X11135714Y-20026667D01*
X11211905Y-20226667D02*
X11221428Y-20217143D01*
X11240476Y-20188571D01*
X11250000Y-20169524D01*
X11259524Y-20140952D01*
X11269048Y-20093333D01*
X11269048Y-20055238D01*
X11259524Y-20007619D01*
X11250000Y-19979048D01*
X11240476Y-19960000D01*
X11221428Y-19931429D01*
X11211905Y-19921905D01*
X11573809Y-20226667D02*
X11564286Y-20217143D01*
X11545238Y-20188571D01*
X11535714Y-20169524D01*
X11526190Y-20140952D01*
X11516667Y-20093333D01*
X11516667Y-20055238D01*
X11526190Y-20007619D01*
X11535714Y-19979048D01*
X11545238Y-19960000D01*
X11564286Y-19931429D01*
X11573809Y-19921905D01*
X11650000Y-20017143D02*
X11650000Y-20150476D01*
X11650000Y-20036190D02*
X11659524Y-20026667D01*
X11678571Y-20017143D01*
X11707143Y-20017143D01*
X11726190Y-20026667D01*
X11735714Y-20045714D01*
X11735714Y-20150476D01*
X11859524Y-20150476D02*
X11840476Y-20140952D01*
X11830952Y-20131429D01*
X11821428Y-20112381D01*
X11821428Y-20055238D01*
X11830952Y-20036190D01*
X11840476Y-20026667D01*
X11859524Y-20017143D01*
X11888095Y-20017143D01*
X11907143Y-20026667D01*
X11916667Y-20036190D01*
X11926190Y-20055238D01*
X11926190Y-20112381D01*
X11916667Y-20131429D01*
X11907143Y-20140952D01*
X11888095Y-20150476D01*
X11859524Y-20150476D01*
X11983333Y-20017143D02*
X12059524Y-20017143D01*
X12011905Y-19950476D02*
X12011905Y-20121905D01*
X12021428Y-20140952D01*
X12040476Y-20150476D01*
X12059524Y-20150476D01*
X12278571Y-20017143D02*
X12278571Y-20217143D01*
X12278571Y-20026667D02*
X12297619Y-20017143D01*
X12335714Y-20017143D01*
X12354762Y-20026667D01*
X12364286Y-20036190D01*
X12373809Y-20055238D01*
X12373809Y-20112381D01*
X12364286Y-20131429D01*
X12354762Y-20140952D01*
X12335714Y-20150476D01*
X12297619Y-20150476D01*
X12278571Y-20140952D01*
X12488095Y-20150476D02*
X12469048Y-20140952D01*
X12459524Y-20121905D01*
X12459524Y-19950476D01*
X12650000Y-20150476D02*
X12650000Y-20045714D01*
X12640476Y-20026667D01*
X12621428Y-20017143D01*
X12583333Y-20017143D01*
X12564286Y-20026667D01*
X12650000Y-20140952D02*
X12630952Y-20150476D01*
X12583333Y-20150476D01*
X12564286Y-20140952D01*
X12554762Y-20121905D01*
X12554762Y-20102857D01*
X12564286Y-20083810D01*
X12583333Y-20074286D01*
X12630952Y-20074286D01*
X12650000Y-20064762D01*
X12716667Y-20017143D02*
X12792857Y-20017143D01*
X12745238Y-19950476D02*
X12745238Y-20121905D01*
X12754762Y-20140952D01*
X12773809Y-20150476D01*
X12792857Y-20150476D01*
X12935714Y-20140952D02*
X12916667Y-20150476D01*
X12878571Y-20150476D01*
X12859524Y-20140952D01*
X12850000Y-20121905D01*
X12850000Y-20045714D01*
X12859524Y-20026667D01*
X12878571Y-20017143D01*
X12916667Y-20017143D01*
X12935714Y-20026667D01*
X12945238Y-20045714D01*
X12945238Y-20064762D01*
X12850000Y-20083810D01*
X13116667Y-20150476D02*
X13116667Y-19950476D01*
X13116667Y-20140952D02*
X13097619Y-20150476D01*
X13059524Y-20150476D01*
X13040476Y-20140952D01*
X13030952Y-20131429D01*
X13021428Y-20112381D01*
X13021428Y-20055238D01*
X13030952Y-20036190D01*
X13040476Y-20026667D01*
X13059524Y-20017143D01*
X13097619Y-20017143D01*
X13116667Y-20026667D01*
X13192857Y-20226667D02*
X13202381Y-20217143D01*
X13221428Y-20188571D01*
X13230952Y-20169524D01*
X13240476Y-20140952D01*
X13250000Y-20093333D01*
X13250000Y-20055238D01*
X13240476Y-20007619D01*
X13230952Y-19979048D01*
X13221428Y-19960000D01*
X13202381Y-19931429D01*
X13192857Y-19921905D01*
M02*
