M48
; DRILL file {KiCad 6.0.9+dfsg-1} date Wed 25 Jan 2023 09:24:44 PM CET
; FORMAT={-:-/ absolute / metric / decimal}
; #@! TF.CreationDate,2023-01-25T21:24:44+01:00
; #@! TF.GenerationSoftware,Kicad,Pcbnew,6.0.9+dfsg-1
; #@! TF.FileFunction,Plated,1,2,Blind
FMAT,2
METRIC
; #@! TA.AperFunction,Plated,Buried,ViaDrill
T1C0.200
%
G90
G05
T1
X80.32Y-153.43
X80.32Y-155.97
X80.335Y-169.315
X80.335Y-171.855
X83.425Y-156.325
X83.425Y-159.425
X83.425Y-172.225
X83.425Y-175.325
X85.225Y-156.325
X85.225Y-159.425
X85.225Y-172.225
X85.225Y-175.325
X88.32Y-153.43
X88.32Y-154.7
X88.32Y-155.97
X88.32Y-157.24
X88.32Y-158.51
X88.325Y-171.855
X88.33Y-169.315
X88.33Y-170.585
X88.33Y-173.125
X88.33Y-174.395
X95.875Y-167.725
X96.225Y-167.225
X98.675Y-163.525
X98.675Y-175.025
X99.175Y-166.225
X99.175Y-177.575
X99.675Y-163.525
X99.675Y-175.025
X101.175Y-166.225
X101.175Y-177.575
X101.675Y-165.875
X101.675Y-177.205
X107.425Y-168.725
X107.825Y-167.225
X107.825Y-168.225
X107.825Y-169.225
X112.425Y-166.625
X113.225Y-166.625
T0
M30
