%TF.GenerationSoftware,KiCad,Pcbnew,6.0.9+dfsg-1*%
%TF.CreationDate,2023-01-25T21:24:43+01:00*%
%TF.ProjectId,siproslic,73697072-6f73-46c6-9963-2e6b69636164,rev?*%
%TF.SameCoordinates,Original*%
%TF.FileFunction,Drillmap*%
%TF.FilePolarity,Positive*%
%FSLAX45Y45*%
G04 Gerber Fmt 4.5, Leading zero omitted, Abs format (unit mm)*
G04 Created by KiCad (PCBNEW 6.0.9+dfsg-1) date 2023-01-25 21:24:43*
%MOMM*%
%LPD*%
G01*
G04 APERTURE LIST*
%ADD10C,0.150000*%
%ADD11C,0.200000*%
%ADD12C,0.020000*%
%ADD13C,0.030000*%
%ADD14C,0.050000*%
%ADD15C,0.080000*%
%ADD16C,0.090000*%
%ADD17C,0.095000*%
%ADD18C,0.100000*%
%ADD19C,0.230000*%
G04 APERTURE END LIST*
D10*
X10997500Y-19412500D02*
X12017500Y-19412500D01*
X10947500Y-19362500D02*
X10997500Y-19412500D01*
X9782500Y-18137500D02*
X9782500Y-18962500D01*
X7357500Y-18550000D02*
G75*
G03*
X7357500Y-18550000I-160000J0D01*
G01*
X12977500Y-14462500D02*
X6447500Y-14462500D01*
X12257500Y-18667500D02*
X12257500Y-19362500D01*
X10947500Y-18320000D02*
X10947500Y-19362500D01*
X12257500Y-19362500D02*
X12307500Y-19412500D01*
X7947500Y-18962500D02*
X7947500Y-18137500D01*
X7357500Y-14730000D02*
G75*
G03*
X7357500Y-14730000I-160000J0D01*
G01*
X6447500Y-14462500D02*
X6447500Y-18962500D01*
X9782500Y-18962500D02*
X10582500Y-18962500D01*
X10947500Y-18320000D02*
G75*
G03*
X10582500Y-18320000I-182500J0D01*
G01*
X12257500Y-18667500D02*
G75*
G03*
X12067500Y-18667500I-95000J0D01*
G01*
X6447500Y-18962500D02*
X7947500Y-18962500D01*
X12927500Y-19412500D02*
X12307500Y-19412500D01*
X12017500Y-19412500D02*
X12067500Y-19362500D01*
X12977500Y-19362500D02*
X12927500Y-19412500D01*
X10582500Y-18962500D02*
X10582500Y-18320000D01*
X12977500Y-14462500D02*
X12977500Y-19362500D01*
X7947500Y-18137500D02*
X9782500Y-18137500D01*
X12067500Y-19362500D02*
X12067500Y-18667500D01*
D11*
D12*
X9757500Y-16762500D02*
X9777500Y-16782500D01*
X9777500Y-16762500D02*
X9757500Y-16782500D01*
X9757500Y-17312500D02*
X9777500Y-17332500D01*
X9777500Y-17312500D02*
X9757500Y-17332500D01*
X10307500Y-16762500D02*
X10327500Y-16782500D01*
X10327500Y-16762500D02*
X10307500Y-16782500D01*
X10307500Y-17312500D02*
X10327500Y-17332500D01*
X10327500Y-17312500D02*
X10307500Y-17332500D01*
X11817500Y-16902500D02*
X11837500Y-16922500D01*
X11837500Y-16902500D02*
X11817500Y-16922500D01*
X11817500Y-16982500D02*
X11837500Y-17002500D01*
X11837500Y-16982500D02*
X11817500Y-17002500D01*
D13*
X11127500Y-18800000D02*
G75*
G03*
X11127500Y-18800000I-15000J0D01*
G01*
X11227500Y-18800000D02*
G75*
G03*
X11227500Y-18800000I-15000J0D01*
G01*
X11327500Y-18800000D02*
G75*
G03*
X11327500Y-18800000I-15000J0D01*
G01*
X11627500Y-18802500D02*
G75*
G03*
X11627500Y-18802500I-15000J0D01*
G01*
X12427500Y-18550000D02*
G75*
G03*
X12427500Y-18550000I-15000J0D01*
G01*
X12427500Y-18650000D02*
G75*
G03*
X12427500Y-18650000I-15000J0D01*
G01*
X12427500Y-18750000D02*
G75*
G03*
X12427500Y-18750000I-15000J0D01*
G01*
X12677500Y-18550000D02*
G75*
G03*
X12677500Y-18550000I-15000J0D01*
G01*
X12677500Y-18650000D02*
G75*
G03*
X12677500Y-18650000I-15000J0D01*
G01*
X12677500Y-18750000D02*
G75*
G03*
X12677500Y-18750000I-15000J0D01*
G01*
X12927500Y-18550000D02*
G75*
G03*
X12927500Y-18550000I-15000J0D01*
G01*
X12927500Y-18650000D02*
G75*
G03*
X12927500Y-18650000I-15000J0D01*
G01*
X12927500Y-18750000D02*
G75*
G03*
X12927500Y-18750000I-15000J0D01*
G01*
D14*
X8432500Y-15762500D02*
X8432500Y-15812500D01*
X8407500Y-15787500D02*
X8457500Y-15787500D01*
X8433000Y-17351000D02*
X8433000Y-17401000D01*
X8408000Y-17376000D02*
X8458000Y-17376000D01*
X10042500Y-17022500D02*
X10042500Y-17072500D01*
X10017500Y-17047500D02*
X10067500Y-17047500D01*
D15*
X9795785Y-14875784D02*
X9795785Y-14819215D01*
X9739216Y-14819215D01*
X9739216Y-14875784D01*
X9795785Y-14875784D01*
X9795785Y-15125784D02*
X9795785Y-15069215D01*
X9739216Y-15069215D01*
X9739216Y-15125784D01*
X9795785Y-15125784D01*
X9795785Y-15595784D02*
X9795785Y-15539215D01*
X9739216Y-15539215D01*
X9739216Y-15595784D01*
X9795785Y-15595784D01*
X9795785Y-15845784D02*
X9795785Y-15789215D01*
X9739216Y-15789215D01*
X9739216Y-15845784D01*
X9795785Y-15845784D01*
X10535785Y-14875784D02*
X10535785Y-14819215D01*
X10479216Y-14819215D01*
X10479216Y-14875784D01*
X10535785Y-14875784D01*
X10535785Y-15125784D02*
X10535785Y-15069215D01*
X10479216Y-15069215D01*
X10479216Y-15125784D01*
X10535785Y-15125784D01*
X10535785Y-15595784D02*
X10535785Y-15539215D01*
X10479216Y-15539215D01*
X10479216Y-15595784D01*
X10535785Y-15595784D01*
X10535785Y-15845784D02*
X10535785Y-15789215D01*
X10479216Y-15789215D01*
X10479216Y-15845784D01*
X10535785Y-15845784D01*
X12690784Y-16752784D02*
X12690784Y-16696215D01*
X12634215Y-16696215D01*
X12634215Y-16752784D01*
X12690784Y-16752784D01*
X12690784Y-17240785D02*
X12690784Y-17184216D01*
X12634215Y-17184216D01*
X12634215Y-17240785D01*
X12690784Y-17240785D01*
D16*
X7577500Y-15777000D02*
X7622500Y-15732000D01*
X7577500Y-15687000D01*
X7532500Y-15732000D01*
X7577500Y-15777000D01*
X7577500Y-16031000D02*
X7622500Y-15986000D01*
X7577500Y-15941000D01*
X7532500Y-15986000D01*
X7577500Y-16031000D01*
X7577500Y-16285000D02*
X7622500Y-16240000D01*
X7577500Y-16195000D01*
X7532500Y-16240000D01*
X7577500Y-16285000D01*
X7577500Y-17077000D02*
X7622500Y-17032000D01*
X7577500Y-16987000D01*
X7532500Y-17032000D01*
X7577500Y-17077000D01*
X7577500Y-17331000D02*
X7622500Y-17286000D01*
X7577500Y-17241000D01*
X7532500Y-17286000D01*
X7577500Y-17331000D01*
X7577500Y-17585000D02*
X7622500Y-17540000D01*
X7577500Y-17495000D01*
X7532500Y-17540000D01*
X7577500Y-17585000D01*
X7831500Y-15650000D02*
X7876500Y-15605000D01*
X7831500Y-15560000D01*
X7786500Y-15605000D01*
X7831500Y-15650000D01*
X7831500Y-15904000D02*
X7876500Y-15859000D01*
X7831500Y-15814000D01*
X7786500Y-15859000D01*
X7831500Y-15904000D01*
X7831500Y-16158000D02*
X7876500Y-16113000D01*
X7831500Y-16068000D01*
X7786500Y-16113000D01*
X7831500Y-16158000D01*
X7831500Y-16950000D02*
X7876500Y-16905000D01*
X7831500Y-16860000D01*
X7786500Y-16905000D01*
X7831500Y-16950000D01*
X7831500Y-17204000D02*
X7876500Y-17159000D01*
X7831500Y-17114000D01*
X7786500Y-17159000D01*
X7831500Y-17204000D01*
X7831500Y-17458000D02*
X7876500Y-17413000D01*
X7831500Y-17368000D01*
X7786500Y-17413000D01*
X7831500Y-17458000D01*
D17*
X11696250Y-15180000D02*
X11791250Y-15275000D01*
X11791250Y-15180000D02*
X11696250Y-15275000D01*
X11791250Y-15227500D02*
G75*
G03*
X11791250Y-15227500I-47500J0D01*
G01*
X11696250Y-15430000D02*
X11791250Y-15525000D01*
X11791250Y-15430000D02*
X11696250Y-15525000D01*
X11791250Y-15477500D02*
G75*
G03*
X11791250Y-15477500I-47500J0D01*
G01*
X11896250Y-15180000D02*
X11991250Y-15275000D01*
X11991250Y-15180000D02*
X11896250Y-15275000D01*
X11991250Y-15227500D02*
G75*
G03*
X11991250Y-15227500I-47500J0D01*
G01*
X11896250Y-15430000D02*
X11991250Y-15525000D01*
X11991250Y-15430000D02*
X11896250Y-15525000D01*
X11991250Y-15477500D02*
G75*
G03*
X11991250Y-15477500I-47500J0D01*
G01*
D18*
X11030000Y-14714000D02*
X11130000Y-14814000D01*
X11130000Y-14714000D02*
X11030000Y-14814000D01*
X11080000Y-14714000D02*
X11080000Y-14814000D01*
X11030000Y-14764000D02*
X11130000Y-14764000D01*
X11030000Y-14968000D02*
X11130000Y-15068000D01*
X11130000Y-14968000D02*
X11030000Y-15068000D01*
X11080000Y-14968000D02*
X11080000Y-15068000D01*
X11030000Y-15018000D02*
X11130000Y-15018000D01*
X11030000Y-15222000D02*
X11130000Y-15322000D01*
X11130000Y-15222000D02*
X11030000Y-15322000D01*
X11080000Y-15222000D02*
X11080000Y-15322000D01*
X11030000Y-15272000D02*
X11130000Y-15272000D01*
X11030000Y-15476000D02*
X11130000Y-15576000D01*
X11130000Y-15476000D02*
X11030000Y-15576000D01*
X11080000Y-15476000D02*
X11080000Y-15576000D01*
X11030000Y-15526000D02*
X11130000Y-15526000D01*
X11030000Y-15730000D02*
X11130000Y-15830000D01*
X11130000Y-15730000D02*
X11030000Y-15830000D01*
X11080000Y-15730000D02*
X11080000Y-15830000D01*
X11030000Y-15780000D02*
X11130000Y-15780000D01*
X11284000Y-14714000D02*
X11384000Y-14814000D01*
X11384000Y-14714000D02*
X11284000Y-14814000D01*
X11334000Y-14714000D02*
X11334000Y-14814000D01*
X11284000Y-14764000D02*
X11384000Y-14764000D01*
X11284000Y-14968000D02*
X11384000Y-15068000D01*
X11384000Y-14968000D02*
X11284000Y-15068000D01*
X11334000Y-14968000D02*
X11334000Y-15068000D01*
X11284000Y-15018000D02*
X11384000Y-15018000D01*
X11284000Y-15222000D02*
X11384000Y-15322000D01*
X11384000Y-15222000D02*
X11284000Y-15322000D01*
X11334000Y-15222000D02*
X11334000Y-15322000D01*
X11284000Y-15272000D02*
X11384000Y-15272000D01*
X11284000Y-15476000D02*
X11384000Y-15576000D01*
X11384000Y-15476000D02*
X11284000Y-15576000D01*
X11334000Y-15476000D02*
X11334000Y-15576000D01*
X11284000Y-15526000D02*
X11384000Y-15526000D01*
X11284000Y-15730000D02*
X11384000Y-15830000D01*
X11384000Y-15730000D02*
X11284000Y-15830000D01*
X11334000Y-15730000D02*
X11334000Y-15830000D01*
X11284000Y-15780000D02*
X11384000Y-15780000D01*
X11741000Y-16357500D02*
X11841000Y-16457500D01*
X11841000Y-16357500D02*
X11741000Y-16457500D01*
X11791000Y-16357500D02*
X11791000Y-16457500D01*
X11741000Y-16407500D02*
X11841000Y-16407500D01*
X11995000Y-16357500D02*
X12095000Y-16457500D01*
X12095000Y-16357500D02*
X11995000Y-16457500D01*
X12045000Y-16357500D02*
X12045000Y-16457500D01*
X11995000Y-16407500D02*
X12095000Y-16407500D01*
D19*
X12114750Y-14637500D02*
X12344750Y-14867500D01*
X12344750Y-14637500D02*
X12114750Y-14867500D01*
X12311068Y-14833818D02*
X12311068Y-14671182D01*
X12148432Y-14671182D01*
X12148432Y-14833818D01*
X12311068Y-14833818D01*
X12114750Y-15837500D02*
X12344750Y-16067500D01*
X12344750Y-15837500D02*
X12114750Y-16067500D01*
X12311068Y-16033818D02*
X12311068Y-15871182D01*
X12148432Y-15871182D01*
X12148432Y-16033818D01*
X12311068Y-16033818D01*
D11*
X6697619Y-19730476D02*
X6697619Y-19530476D01*
X6745238Y-19530476D01*
X6773809Y-19540000D01*
X6792857Y-19559048D01*
X6802381Y-19578095D01*
X6811905Y-19616190D01*
X6811905Y-19644762D01*
X6802381Y-19682857D01*
X6792857Y-19701905D01*
X6773809Y-19720952D01*
X6745238Y-19730476D01*
X6697619Y-19730476D01*
X6897619Y-19730476D02*
X6897619Y-19597143D01*
X6897619Y-19635238D02*
X6907143Y-19616190D01*
X6916667Y-19606667D01*
X6935714Y-19597143D01*
X6954762Y-19597143D01*
X7021428Y-19730476D02*
X7021428Y-19597143D01*
X7021428Y-19530476D02*
X7011905Y-19540000D01*
X7021428Y-19549524D01*
X7030952Y-19540000D01*
X7021428Y-19530476D01*
X7021428Y-19549524D01*
X7145238Y-19730476D02*
X7126190Y-19720952D01*
X7116667Y-19701905D01*
X7116667Y-19530476D01*
X7250000Y-19730476D02*
X7230952Y-19720952D01*
X7221428Y-19701905D01*
X7221428Y-19530476D01*
X7478571Y-19730476D02*
X7478571Y-19530476D01*
X7545238Y-19673333D01*
X7611905Y-19530476D01*
X7611905Y-19730476D01*
X7792857Y-19730476D02*
X7792857Y-19625714D01*
X7783333Y-19606667D01*
X7764286Y-19597143D01*
X7726190Y-19597143D01*
X7707143Y-19606667D01*
X7792857Y-19720952D02*
X7773809Y-19730476D01*
X7726190Y-19730476D01*
X7707143Y-19720952D01*
X7697619Y-19701905D01*
X7697619Y-19682857D01*
X7707143Y-19663810D01*
X7726190Y-19654286D01*
X7773809Y-19654286D01*
X7792857Y-19644762D01*
X7888095Y-19597143D02*
X7888095Y-19797143D01*
X7888095Y-19606667D02*
X7907143Y-19597143D01*
X7945238Y-19597143D01*
X7964286Y-19606667D01*
X7973809Y-19616190D01*
X7983333Y-19635238D01*
X7983333Y-19692381D01*
X7973809Y-19711429D01*
X7964286Y-19720952D01*
X7945238Y-19730476D01*
X7907143Y-19730476D01*
X7888095Y-19720952D01*
X8069048Y-19711429D02*
X8078571Y-19720952D01*
X8069048Y-19730476D01*
X8059524Y-19720952D01*
X8069048Y-19711429D01*
X8069048Y-19730476D01*
X8069048Y-19606667D02*
X8078571Y-19616190D01*
X8069048Y-19625714D01*
X8059524Y-19616190D01*
X8069048Y-19606667D01*
X8069048Y-19625714D01*
D12*
X6420000Y-20050000D02*
X6440000Y-20070000D01*
X6440000Y-20050000D02*
X6420000Y-20070000D01*
D11*
X6735714Y-19950476D02*
X6754762Y-19950476D01*
X6773809Y-19960000D01*
X6783333Y-19969524D01*
X6792857Y-19988571D01*
X6802381Y-20026667D01*
X6802381Y-20074286D01*
X6792857Y-20112381D01*
X6783333Y-20131429D01*
X6773809Y-20140952D01*
X6754762Y-20150476D01*
X6735714Y-20150476D01*
X6716667Y-20140952D01*
X6707143Y-20131429D01*
X6697619Y-20112381D01*
X6688095Y-20074286D01*
X6688095Y-20026667D01*
X6697619Y-19988571D01*
X6707143Y-19969524D01*
X6716667Y-19960000D01*
X6735714Y-19950476D01*
X6888095Y-20131429D02*
X6897619Y-20140952D01*
X6888095Y-20150476D01*
X6878571Y-20140952D01*
X6888095Y-20131429D01*
X6888095Y-20150476D01*
X6973809Y-19969524D02*
X6983333Y-19960000D01*
X7002381Y-19950476D01*
X7050000Y-19950476D01*
X7069048Y-19960000D01*
X7078571Y-19969524D01*
X7088095Y-19988571D01*
X7088095Y-20007619D01*
X7078571Y-20036190D01*
X6964286Y-20150476D01*
X7088095Y-20150476D01*
X7211905Y-19950476D02*
X7230952Y-19950476D01*
X7250000Y-19960000D01*
X7259524Y-19969524D01*
X7269048Y-19988571D01*
X7278571Y-20026667D01*
X7278571Y-20074286D01*
X7269048Y-20112381D01*
X7259524Y-20131429D01*
X7250000Y-20140952D01*
X7230952Y-20150476D01*
X7211905Y-20150476D01*
X7192857Y-20140952D01*
X7183333Y-20131429D01*
X7173809Y-20112381D01*
X7164286Y-20074286D01*
X7164286Y-20026667D01*
X7173809Y-19988571D01*
X7183333Y-19969524D01*
X7192857Y-19960000D01*
X7211905Y-19950476D01*
X7402381Y-19950476D02*
X7421428Y-19950476D01*
X7440476Y-19960000D01*
X7450000Y-19969524D01*
X7459524Y-19988571D01*
X7469048Y-20026667D01*
X7469048Y-20074286D01*
X7459524Y-20112381D01*
X7450000Y-20131429D01*
X7440476Y-20140952D01*
X7421428Y-20150476D01*
X7402381Y-20150476D01*
X7383333Y-20140952D01*
X7373809Y-20131429D01*
X7364286Y-20112381D01*
X7354762Y-20074286D01*
X7354762Y-20026667D01*
X7364286Y-19988571D01*
X7373809Y-19969524D01*
X7383333Y-19960000D01*
X7402381Y-19950476D01*
X7554762Y-20150476D02*
X7554762Y-20017143D01*
X7554762Y-20036190D02*
X7564286Y-20026667D01*
X7583333Y-20017143D01*
X7611905Y-20017143D01*
X7630952Y-20026667D01*
X7640476Y-20045714D01*
X7640476Y-20150476D01*
X7640476Y-20045714D02*
X7650000Y-20026667D01*
X7669048Y-20017143D01*
X7697619Y-20017143D01*
X7716667Y-20026667D01*
X7726190Y-20045714D01*
X7726190Y-20150476D01*
X7821428Y-20150476D02*
X7821428Y-20017143D01*
X7821428Y-20036190D02*
X7830952Y-20026667D01*
X7850000Y-20017143D01*
X7878571Y-20017143D01*
X7897619Y-20026667D01*
X7907143Y-20045714D01*
X7907143Y-20150476D01*
X7907143Y-20045714D02*
X7916667Y-20026667D01*
X7935714Y-20017143D01*
X7964286Y-20017143D01*
X7983333Y-20026667D01*
X7992857Y-20045714D01*
X7992857Y-20150476D01*
X8383333Y-19940952D02*
X8211905Y-20198095D01*
X8640476Y-19950476D02*
X8659524Y-19950476D01*
X8678571Y-19960000D01*
X8688095Y-19969524D01*
X8697619Y-19988571D01*
X8707143Y-20026667D01*
X8707143Y-20074286D01*
X8697619Y-20112381D01*
X8688095Y-20131429D01*
X8678571Y-20140952D01*
X8659524Y-20150476D01*
X8640476Y-20150476D01*
X8621429Y-20140952D01*
X8611905Y-20131429D01*
X8602381Y-20112381D01*
X8592857Y-20074286D01*
X8592857Y-20026667D01*
X8602381Y-19988571D01*
X8611905Y-19969524D01*
X8621429Y-19960000D01*
X8640476Y-19950476D01*
X8792857Y-20131429D02*
X8802381Y-20140952D01*
X8792857Y-20150476D01*
X8783333Y-20140952D01*
X8792857Y-20131429D01*
X8792857Y-20150476D01*
X8926190Y-19950476D02*
X8945238Y-19950476D01*
X8964286Y-19960000D01*
X8973810Y-19969524D01*
X8983333Y-19988571D01*
X8992857Y-20026667D01*
X8992857Y-20074286D01*
X8983333Y-20112381D01*
X8973810Y-20131429D01*
X8964286Y-20140952D01*
X8945238Y-20150476D01*
X8926190Y-20150476D01*
X8907143Y-20140952D01*
X8897619Y-20131429D01*
X8888095Y-20112381D01*
X8878571Y-20074286D01*
X8878571Y-20026667D01*
X8888095Y-19988571D01*
X8897619Y-19969524D01*
X8907143Y-19960000D01*
X8926190Y-19950476D01*
X9116667Y-19950476D02*
X9135714Y-19950476D01*
X9154762Y-19960000D01*
X9164286Y-19969524D01*
X9173810Y-19988571D01*
X9183333Y-20026667D01*
X9183333Y-20074286D01*
X9173810Y-20112381D01*
X9164286Y-20131429D01*
X9154762Y-20140952D01*
X9135714Y-20150476D01*
X9116667Y-20150476D01*
X9097619Y-20140952D01*
X9088095Y-20131429D01*
X9078571Y-20112381D01*
X9069048Y-20074286D01*
X9069048Y-20026667D01*
X9078571Y-19988571D01*
X9088095Y-19969524D01*
X9097619Y-19960000D01*
X9116667Y-19950476D01*
X9250000Y-19950476D02*
X9383333Y-19950476D01*
X9297619Y-20150476D01*
X9469048Y-20150476D02*
X9507143Y-20150476D01*
X9526190Y-20140952D01*
X9535714Y-20131429D01*
X9554762Y-20102857D01*
X9564286Y-20064762D01*
X9564286Y-19988571D01*
X9554762Y-19969524D01*
X9545238Y-19960000D01*
X9526190Y-19950476D01*
X9488095Y-19950476D01*
X9469048Y-19960000D01*
X9459524Y-19969524D01*
X9450000Y-19988571D01*
X9450000Y-20036190D01*
X9459524Y-20055238D01*
X9469048Y-20064762D01*
X9488095Y-20074286D01*
X9526190Y-20074286D01*
X9545238Y-20064762D01*
X9554762Y-20055238D01*
X9564286Y-20036190D01*
X9640476Y-19950476D02*
X9640476Y-19988571D01*
X9716667Y-19950476D02*
X9716667Y-19988571D01*
X10011905Y-20226667D02*
X10002381Y-20217143D01*
X9983333Y-20188571D01*
X9973810Y-20169524D01*
X9964286Y-20140952D01*
X9954762Y-20093333D01*
X9954762Y-20055238D01*
X9964286Y-20007619D01*
X9973810Y-19979048D01*
X9983333Y-19960000D01*
X10002381Y-19931429D01*
X10011905Y-19921905D01*
X10173810Y-19950476D02*
X10135714Y-19950476D01*
X10116667Y-19960000D01*
X10107143Y-19969524D01*
X10088095Y-19998095D01*
X10078571Y-20036190D01*
X10078571Y-20112381D01*
X10088095Y-20131429D01*
X10097619Y-20140952D01*
X10116667Y-20150476D01*
X10154762Y-20150476D01*
X10173810Y-20140952D01*
X10183333Y-20131429D01*
X10192857Y-20112381D01*
X10192857Y-20064762D01*
X10183333Y-20045714D01*
X10173810Y-20036190D01*
X10154762Y-20026667D01*
X10116667Y-20026667D01*
X10097619Y-20036190D01*
X10088095Y-20045714D01*
X10078571Y-20064762D01*
X10430952Y-20150476D02*
X10430952Y-19950476D01*
X10516667Y-20150476D02*
X10516667Y-20045714D01*
X10507143Y-20026667D01*
X10488095Y-20017143D01*
X10459524Y-20017143D01*
X10440476Y-20026667D01*
X10430952Y-20036190D01*
X10640476Y-20150476D02*
X10621429Y-20140952D01*
X10611905Y-20131429D01*
X10602381Y-20112381D01*
X10602381Y-20055238D01*
X10611905Y-20036190D01*
X10621429Y-20026667D01*
X10640476Y-20017143D01*
X10669048Y-20017143D01*
X10688095Y-20026667D01*
X10697619Y-20036190D01*
X10707143Y-20055238D01*
X10707143Y-20112381D01*
X10697619Y-20131429D01*
X10688095Y-20140952D01*
X10669048Y-20150476D01*
X10640476Y-20150476D01*
X10821429Y-20150476D02*
X10802381Y-20140952D01*
X10792857Y-20121905D01*
X10792857Y-19950476D01*
X10973810Y-20140952D02*
X10954762Y-20150476D01*
X10916667Y-20150476D01*
X10897619Y-20140952D01*
X10888095Y-20121905D01*
X10888095Y-20045714D01*
X10897619Y-20026667D01*
X10916667Y-20017143D01*
X10954762Y-20017143D01*
X10973810Y-20026667D01*
X10983333Y-20045714D01*
X10983333Y-20064762D01*
X10888095Y-20083810D01*
X11059524Y-20140952D02*
X11078571Y-20150476D01*
X11116667Y-20150476D01*
X11135714Y-20140952D01*
X11145238Y-20121905D01*
X11145238Y-20112381D01*
X11135714Y-20093333D01*
X11116667Y-20083810D01*
X11088095Y-20083810D01*
X11069048Y-20074286D01*
X11059524Y-20055238D01*
X11059524Y-20045714D01*
X11069048Y-20026667D01*
X11088095Y-20017143D01*
X11116667Y-20017143D01*
X11135714Y-20026667D01*
X11211905Y-20226667D02*
X11221428Y-20217143D01*
X11240476Y-20188571D01*
X11250000Y-20169524D01*
X11259524Y-20140952D01*
X11269048Y-20093333D01*
X11269048Y-20055238D01*
X11259524Y-20007619D01*
X11250000Y-19979048D01*
X11240476Y-19960000D01*
X11221428Y-19931429D01*
X11211905Y-19921905D01*
D13*
X6440000Y-20324000D02*
G75*
G03*
X6440000Y-20324000I-15000J0D01*
G01*
D11*
X6735714Y-20214476D02*
X6754762Y-20214476D01*
X6773809Y-20224000D01*
X6783333Y-20233524D01*
X6792857Y-20252571D01*
X6802381Y-20290667D01*
X6802381Y-20338286D01*
X6792857Y-20376381D01*
X6783333Y-20395429D01*
X6773809Y-20404952D01*
X6754762Y-20414476D01*
X6735714Y-20414476D01*
X6716667Y-20404952D01*
X6707143Y-20395429D01*
X6697619Y-20376381D01*
X6688095Y-20338286D01*
X6688095Y-20290667D01*
X6697619Y-20252571D01*
X6707143Y-20233524D01*
X6716667Y-20224000D01*
X6735714Y-20214476D01*
X6888095Y-20395429D02*
X6897619Y-20404952D01*
X6888095Y-20414476D01*
X6878571Y-20404952D01*
X6888095Y-20395429D01*
X6888095Y-20414476D01*
X6964286Y-20214476D02*
X7088095Y-20214476D01*
X7021428Y-20290667D01*
X7050000Y-20290667D01*
X7069048Y-20300190D01*
X7078571Y-20309714D01*
X7088095Y-20328762D01*
X7088095Y-20376381D01*
X7078571Y-20395429D01*
X7069048Y-20404952D01*
X7050000Y-20414476D01*
X6992857Y-20414476D01*
X6973809Y-20404952D01*
X6964286Y-20395429D01*
X7211905Y-20214476D02*
X7230952Y-20214476D01*
X7250000Y-20224000D01*
X7259524Y-20233524D01*
X7269048Y-20252571D01*
X7278571Y-20290667D01*
X7278571Y-20338286D01*
X7269048Y-20376381D01*
X7259524Y-20395429D01*
X7250000Y-20404952D01*
X7230952Y-20414476D01*
X7211905Y-20414476D01*
X7192857Y-20404952D01*
X7183333Y-20395429D01*
X7173809Y-20376381D01*
X7164286Y-20338286D01*
X7164286Y-20290667D01*
X7173809Y-20252571D01*
X7183333Y-20233524D01*
X7192857Y-20224000D01*
X7211905Y-20214476D01*
X7402381Y-20214476D02*
X7421428Y-20214476D01*
X7440476Y-20224000D01*
X7450000Y-20233524D01*
X7459524Y-20252571D01*
X7469048Y-20290667D01*
X7469048Y-20338286D01*
X7459524Y-20376381D01*
X7450000Y-20395429D01*
X7440476Y-20404952D01*
X7421428Y-20414476D01*
X7402381Y-20414476D01*
X7383333Y-20404952D01*
X7373809Y-20395429D01*
X7364286Y-20376381D01*
X7354762Y-20338286D01*
X7354762Y-20290667D01*
X7364286Y-20252571D01*
X7373809Y-20233524D01*
X7383333Y-20224000D01*
X7402381Y-20214476D01*
X7554762Y-20414476D02*
X7554762Y-20281143D01*
X7554762Y-20300190D02*
X7564286Y-20290667D01*
X7583333Y-20281143D01*
X7611905Y-20281143D01*
X7630952Y-20290667D01*
X7640476Y-20309714D01*
X7640476Y-20414476D01*
X7640476Y-20309714D02*
X7650000Y-20290667D01*
X7669048Y-20281143D01*
X7697619Y-20281143D01*
X7716667Y-20290667D01*
X7726190Y-20309714D01*
X7726190Y-20414476D01*
X7821428Y-20414476D02*
X7821428Y-20281143D01*
X7821428Y-20300190D02*
X7830952Y-20290667D01*
X7850000Y-20281143D01*
X7878571Y-20281143D01*
X7897619Y-20290667D01*
X7907143Y-20309714D01*
X7907143Y-20414476D01*
X7907143Y-20309714D02*
X7916667Y-20290667D01*
X7935714Y-20281143D01*
X7964286Y-20281143D01*
X7983333Y-20290667D01*
X7992857Y-20309714D01*
X7992857Y-20414476D01*
X8383333Y-20204952D02*
X8211905Y-20462095D01*
X8640476Y-20214476D02*
X8659524Y-20214476D01*
X8678571Y-20224000D01*
X8688095Y-20233524D01*
X8697619Y-20252571D01*
X8707143Y-20290667D01*
X8707143Y-20338286D01*
X8697619Y-20376381D01*
X8688095Y-20395429D01*
X8678571Y-20404952D01*
X8659524Y-20414476D01*
X8640476Y-20414476D01*
X8621429Y-20404952D01*
X8611905Y-20395429D01*
X8602381Y-20376381D01*
X8592857Y-20338286D01*
X8592857Y-20290667D01*
X8602381Y-20252571D01*
X8611905Y-20233524D01*
X8621429Y-20224000D01*
X8640476Y-20214476D01*
X8792857Y-20395429D02*
X8802381Y-20404952D01*
X8792857Y-20414476D01*
X8783333Y-20404952D01*
X8792857Y-20395429D01*
X8792857Y-20414476D01*
X8926190Y-20214476D02*
X8945238Y-20214476D01*
X8964286Y-20224000D01*
X8973810Y-20233524D01*
X8983333Y-20252571D01*
X8992857Y-20290667D01*
X8992857Y-20338286D01*
X8983333Y-20376381D01*
X8973810Y-20395429D01*
X8964286Y-20404952D01*
X8945238Y-20414476D01*
X8926190Y-20414476D01*
X8907143Y-20404952D01*
X8897619Y-20395429D01*
X8888095Y-20376381D01*
X8878571Y-20338286D01*
X8878571Y-20290667D01*
X8888095Y-20252571D01*
X8897619Y-20233524D01*
X8907143Y-20224000D01*
X8926190Y-20214476D01*
X9183333Y-20414476D02*
X9069048Y-20414476D01*
X9126190Y-20414476D02*
X9126190Y-20214476D01*
X9107143Y-20243048D01*
X9088095Y-20262095D01*
X9069048Y-20271619D01*
X9373810Y-20414476D02*
X9259524Y-20414476D01*
X9316667Y-20414476D02*
X9316667Y-20214476D01*
X9297619Y-20243048D01*
X9278571Y-20262095D01*
X9259524Y-20271619D01*
X9488095Y-20300190D02*
X9469048Y-20290667D01*
X9459524Y-20281143D01*
X9450000Y-20262095D01*
X9450000Y-20252571D01*
X9459524Y-20233524D01*
X9469048Y-20224000D01*
X9488095Y-20214476D01*
X9526190Y-20214476D01*
X9545238Y-20224000D01*
X9554762Y-20233524D01*
X9564286Y-20252571D01*
X9564286Y-20262095D01*
X9554762Y-20281143D01*
X9545238Y-20290667D01*
X9526190Y-20300190D01*
X9488095Y-20300190D01*
X9469048Y-20309714D01*
X9459524Y-20319238D01*
X9450000Y-20338286D01*
X9450000Y-20376381D01*
X9459524Y-20395429D01*
X9469048Y-20404952D01*
X9488095Y-20414476D01*
X9526190Y-20414476D01*
X9545238Y-20404952D01*
X9554762Y-20395429D01*
X9564286Y-20376381D01*
X9564286Y-20338286D01*
X9554762Y-20319238D01*
X9545238Y-20309714D01*
X9526190Y-20300190D01*
X9640476Y-20214476D02*
X9640476Y-20252571D01*
X9716667Y-20214476D02*
X9716667Y-20252571D01*
X10011905Y-20490667D02*
X10002381Y-20481143D01*
X9983333Y-20452571D01*
X9973810Y-20433524D01*
X9964286Y-20404952D01*
X9954762Y-20357333D01*
X9954762Y-20319238D01*
X9964286Y-20271619D01*
X9973810Y-20243048D01*
X9983333Y-20224000D01*
X10002381Y-20195429D01*
X10011905Y-20185905D01*
X10192857Y-20414476D02*
X10078571Y-20414476D01*
X10135714Y-20414476D02*
X10135714Y-20214476D01*
X10116667Y-20243048D01*
X10097619Y-20262095D01*
X10078571Y-20271619D01*
X10259524Y-20214476D02*
X10383333Y-20214476D01*
X10316667Y-20290667D01*
X10345238Y-20290667D01*
X10364286Y-20300190D01*
X10373810Y-20309714D01*
X10383333Y-20328762D01*
X10383333Y-20376381D01*
X10373810Y-20395429D01*
X10364286Y-20404952D01*
X10345238Y-20414476D01*
X10288095Y-20414476D01*
X10269048Y-20404952D01*
X10259524Y-20395429D01*
X10621429Y-20414476D02*
X10621429Y-20214476D01*
X10707143Y-20414476D02*
X10707143Y-20309714D01*
X10697619Y-20290667D01*
X10678571Y-20281143D01*
X10650000Y-20281143D01*
X10630952Y-20290667D01*
X10621429Y-20300190D01*
X10830952Y-20414476D02*
X10811905Y-20404952D01*
X10802381Y-20395429D01*
X10792857Y-20376381D01*
X10792857Y-20319238D01*
X10802381Y-20300190D01*
X10811905Y-20290667D01*
X10830952Y-20281143D01*
X10859524Y-20281143D01*
X10878571Y-20290667D01*
X10888095Y-20300190D01*
X10897619Y-20319238D01*
X10897619Y-20376381D01*
X10888095Y-20395429D01*
X10878571Y-20404952D01*
X10859524Y-20414476D01*
X10830952Y-20414476D01*
X11011905Y-20414476D02*
X10992857Y-20404952D01*
X10983333Y-20385905D01*
X10983333Y-20214476D01*
X11164286Y-20404952D02*
X11145238Y-20414476D01*
X11107143Y-20414476D01*
X11088095Y-20404952D01*
X11078571Y-20385905D01*
X11078571Y-20309714D01*
X11088095Y-20290667D01*
X11107143Y-20281143D01*
X11145238Y-20281143D01*
X11164286Y-20290667D01*
X11173810Y-20309714D01*
X11173810Y-20328762D01*
X11078571Y-20347810D01*
X11250000Y-20404952D02*
X11269048Y-20414476D01*
X11307143Y-20414476D01*
X11326190Y-20404952D01*
X11335714Y-20385905D01*
X11335714Y-20376381D01*
X11326190Y-20357333D01*
X11307143Y-20347810D01*
X11278571Y-20347810D01*
X11259524Y-20338286D01*
X11250000Y-20319238D01*
X11250000Y-20309714D01*
X11259524Y-20290667D01*
X11278571Y-20281143D01*
X11307143Y-20281143D01*
X11326190Y-20290667D01*
X11402381Y-20490667D02*
X11411905Y-20481143D01*
X11430952Y-20452571D01*
X11440476Y-20433524D01*
X11450000Y-20404952D01*
X11459524Y-20357333D01*
X11459524Y-20319238D01*
X11450000Y-20271619D01*
X11440476Y-20243048D01*
X11430952Y-20224000D01*
X11411905Y-20195429D01*
X11402381Y-20185905D01*
D14*
X6415000Y-20563000D02*
X6415000Y-20613000D01*
X6390000Y-20588000D02*
X6440000Y-20588000D01*
D11*
X6735714Y-20478476D02*
X6754762Y-20478476D01*
X6773809Y-20488000D01*
X6783333Y-20497524D01*
X6792857Y-20516571D01*
X6802381Y-20554667D01*
X6802381Y-20602286D01*
X6792857Y-20640381D01*
X6783333Y-20659429D01*
X6773809Y-20668952D01*
X6754762Y-20678476D01*
X6735714Y-20678476D01*
X6716667Y-20668952D01*
X6707143Y-20659429D01*
X6697619Y-20640381D01*
X6688095Y-20602286D01*
X6688095Y-20554667D01*
X6697619Y-20516571D01*
X6707143Y-20497524D01*
X6716667Y-20488000D01*
X6735714Y-20478476D01*
X6888095Y-20659429D02*
X6897619Y-20668952D01*
X6888095Y-20678476D01*
X6878571Y-20668952D01*
X6888095Y-20659429D01*
X6888095Y-20678476D01*
X7078571Y-20478476D02*
X6983333Y-20478476D01*
X6973809Y-20573714D01*
X6983333Y-20564190D01*
X7002381Y-20554667D01*
X7050000Y-20554667D01*
X7069048Y-20564190D01*
X7078571Y-20573714D01*
X7088095Y-20592762D01*
X7088095Y-20640381D01*
X7078571Y-20659429D01*
X7069048Y-20668952D01*
X7050000Y-20678476D01*
X7002381Y-20678476D01*
X6983333Y-20668952D01*
X6973809Y-20659429D01*
X7211905Y-20478476D02*
X7230952Y-20478476D01*
X7250000Y-20488000D01*
X7259524Y-20497524D01*
X7269048Y-20516571D01*
X7278571Y-20554667D01*
X7278571Y-20602286D01*
X7269048Y-20640381D01*
X7259524Y-20659429D01*
X7250000Y-20668952D01*
X7230952Y-20678476D01*
X7211905Y-20678476D01*
X7192857Y-20668952D01*
X7183333Y-20659429D01*
X7173809Y-20640381D01*
X7164286Y-20602286D01*
X7164286Y-20554667D01*
X7173809Y-20516571D01*
X7183333Y-20497524D01*
X7192857Y-20488000D01*
X7211905Y-20478476D01*
X7402381Y-20478476D02*
X7421428Y-20478476D01*
X7440476Y-20488000D01*
X7450000Y-20497524D01*
X7459524Y-20516571D01*
X7469048Y-20554667D01*
X7469048Y-20602286D01*
X7459524Y-20640381D01*
X7450000Y-20659429D01*
X7440476Y-20668952D01*
X7421428Y-20678476D01*
X7402381Y-20678476D01*
X7383333Y-20668952D01*
X7373809Y-20659429D01*
X7364286Y-20640381D01*
X7354762Y-20602286D01*
X7354762Y-20554667D01*
X7364286Y-20516571D01*
X7373809Y-20497524D01*
X7383333Y-20488000D01*
X7402381Y-20478476D01*
X7554762Y-20678476D02*
X7554762Y-20545143D01*
X7554762Y-20564190D02*
X7564286Y-20554667D01*
X7583333Y-20545143D01*
X7611905Y-20545143D01*
X7630952Y-20554667D01*
X7640476Y-20573714D01*
X7640476Y-20678476D01*
X7640476Y-20573714D02*
X7650000Y-20554667D01*
X7669048Y-20545143D01*
X7697619Y-20545143D01*
X7716667Y-20554667D01*
X7726190Y-20573714D01*
X7726190Y-20678476D01*
X7821428Y-20678476D02*
X7821428Y-20545143D01*
X7821428Y-20564190D02*
X7830952Y-20554667D01*
X7850000Y-20545143D01*
X7878571Y-20545143D01*
X7897619Y-20554667D01*
X7907143Y-20573714D01*
X7907143Y-20678476D01*
X7907143Y-20573714D02*
X7916667Y-20554667D01*
X7935714Y-20545143D01*
X7964286Y-20545143D01*
X7983333Y-20554667D01*
X7992857Y-20573714D01*
X7992857Y-20678476D01*
X8383333Y-20468952D02*
X8211905Y-20726095D01*
X8640476Y-20478476D02*
X8659524Y-20478476D01*
X8678571Y-20488000D01*
X8688095Y-20497524D01*
X8697619Y-20516571D01*
X8707143Y-20554667D01*
X8707143Y-20602286D01*
X8697619Y-20640381D01*
X8688095Y-20659429D01*
X8678571Y-20668952D01*
X8659524Y-20678476D01*
X8640476Y-20678476D01*
X8621429Y-20668952D01*
X8611905Y-20659429D01*
X8602381Y-20640381D01*
X8592857Y-20602286D01*
X8592857Y-20554667D01*
X8602381Y-20516571D01*
X8611905Y-20497524D01*
X8621429Y-20488000D01*
X8640476Y-20478476D01*
X8792857Y-20659429D02*
X8802381Y-20668952D01*
X8792857Y-20678476D01*
X8783333Y-20668952D01*
X8792857Y-20659429D01*
X8792857Y-20678476D01*
X8926190Y-20478476D02*
X8945238Y-20478476D01*
X8964286Y-20488000D01*
X8973810Y-20497524D01*
X8983333Y-20516571D01*
X8992857Y-20554667D01*
X8992857Y-20602286D01*
X8983333Y-20640381D01*
X8973810Y-20659429D01*
X8964286Y-20668952D01*
X8945238Y-20678476D01*
X8926190Y-20678476D01*
X8907143Y-20668952D01*
X8897619Y-20659429D01*
X8888095Y-20640381D01*
X8878571Y-20602286D01*
X8878571Y-20554667D01*
X8888095Y-20516571D01*
X8897619Y-20497524D01*
X8907143Y-20488000D01*
X8926190Y-20478476D01*
X9183333Y-20678476D02*
X9069048Y-20678476D01*
X9126190Y-20678476D02*
X9126190Y-20478476D01*
X9107143Y-20507048D01*
X9088095Y-20526095D01*
X9069048Y-20535619D01*
X9278571Y-20678476D02*
X9316667Y-20678476D01*
X9335714Y-20668952D01*
X9345238Y-20659429D01*
X9364286Y-20630857D01*
X9373810Y-20592762D01*
X9373810Y-20516571D01*
X9364286Y-20497524D01*
X9354762Y-20488000D01*
X9335714Y-20478476D01*
X9297619Y-20478476D01*
X9278571Y-20488000D01*
X9269048Y-20497524D01*
X9259524Y-20516571D01*
X9259524Y-20564190D01*
X9269048Y-20583238D01*
X9278571Y-20592762D01*
X9297619Y-20602286D01*
X9335714Y-20602286D01*
X9354762Y-20592762D01*
X9364286Y-20583238D01*
X9373810Y-20564190D01*
X9440476Y-20478476D02*
X9573810Y-20478476D01*
X9488095Y-20678476D01*
X9640476Y-20478476D02*
X9640476Y-20516571D01*
X9716667Y-20478476D02*
X9716667Y-20516571D01*
X10011905Y-20754667D02*
X10002381Y-20745143D01*
X9983333Y-20716571D01*
X9973810Y-20697524D01*
X9964286Y-20668952D01*
X9954762Y-20621333D01*
X9954762Y-20583238D01*
X9964286Y-20535619D01*
X9973810Y-20507048D01*
X9983333Y-20488000D01*
X10002381Y-20459429D01*
X10011905Y-20449905D01*
X10069048Y-20478476D02*
X10192857Y-20478476D01*
X10126190Y-20554667D01*
X10154762Y-20554667D01*
X10173810Y-20564190D01*
X10183333Y-20573714D01*
X10192857Y-20592762D01*
X10192857Y-20640381D01*
X10183333Y-20659429D01*
X10173810Y-20668952D01*
X10154762Y-20678476D01*
X10097619Y-20678476D01*
X10078571Y-20668952D01*
X10069048Y-20659429D01*
X10430952Y-20678476D02*
X10430952Y-20478476D01*
X10516667Y-20678476D02*
X10516667Y-20573714D01*
X10507143Y-20554667D01*
X10488095Y-20545143D01*
X10459524Y-20545143D01*
X10440476Y-20554667D01*
X10430952Y-20564190D01*
X10640476Y-20678476D02*
X10621429Y-20668952D01*
X10611905Y-20659429D01*
X10602381Y-20640381D01*
X10602381Y-20583238D01*
X10611905Y-20564190D01*
X10621429Y-20554667D01*
X10640476Y-20545143D01*
X10669048Y-20545143D01*
X10688095Y-20554667D01*
X10697619Y-20564190D01*
X10707143Y-20583238D01*
X10707143Y-20640381D01*
X10697619Y-20659429D01*
X10688095Y-20668952D01*
X10669048Y-20678476D01*
X10640476Y-20678476D01*
X10821429Y-20678476D02*
X10802381Y-20668952D01*
X10792857Y-20649905D01*
X10792857Y-20478476D01*
X10973810Y-20668952D02*
X10954762Y-20678476D01*
X10916667Y-20678476D01*
X10897619Y-20668952D01*
X10888095Y-20649905D01*
X10888095Y-20573714D01*
X10897619Y-20554667D01*
X10916667Y-20545143D01*
X10954762Y-20545143D01*
X10973810Y-20554667D01*
X10983333Y-20573714D01*
X10983333Y-20592762D01*
X10888095Y-20611810D01*
X11059524Y-20668952D02*
X11078571Y-20678476D01*
X11116667Y-20678476D01*
X11135714Y-20668952D01*
X11145238Y-20649905D01*
X11145238Y-20640381D01*
X11135714Y-20621333D01*
X11116667Y-20611810D01*
X11088095Y-20611810D01*
X11069048Y-20602286D01*
X11059524Y-20583238D01*
X11059524Y-20573714D01*
X11069048Y-20554667D01*
X11088095Y-20545143D01*
X11116667Y-20545143D01*
X11135714Y-20554667D01*
X11211905Y-20754667D02*
X11221428Y-20745143D01*
X11240476Y-20716571D01*
X11250000Y-20697524D01*
X11259524Y-20668952D01*
X11269048Y-20621333D01*
X11269048Y-20583238D01*
X11259524Y-20535619D01*
X11250000Y-20507048D01*
X11240476Y-20488000D01*
X11221428Y-20459429D01*
X11211905Y-20449905D01*
D15*
X6428284Y-20880285D02*
X6428284Y-20823716D01*
X6371715Y-20823716D01*
X6371715Y-20880285D01*
X6428284Y-20880285D01*
D11*
X6735714Y-20742476D02*
X6754762Y-20742476D01*
X6773809Y-20752000D01*
X6783333Y-20761524D01*
X6792857Y-20780571D01*
X6802381Y-20818667D01*
X6802381Y-20866286D01*
X6792857Y-20904381D01*
X6783333Y-20923429D01*
X6773809Y-20932952D01*
X6754762Y-20942476D01*
X6735714Y-20942476D01*
X6716667Y-20932952D01*
X6707143Y-20923429D01*
X6697619Y-20904381D01*
X6688095Y-20866286D01*
X6688095Y-20818667D01*
X6697619Y-20780571D01*
X6707143Y-20761524D01*
X6716667Y-20752000D01*
X6735714Y-20742476D01*
X6888095Y-20923429D02*
X6897619Y-20932952D01*
X6888095Y-20942476D01*
X6878571Y-20932952D01*
X6888095Y-20923429D01*
X6888095Y-20942476D01*
X7011905Y-20828190D02*
X6992857Y-20818667D01*
X6983333Y-20809143D01*
X6973809Y-20790095D01*
X6973809Y-20780571D01*
X6983333Y-20761524D01*
X6992857Y-20752000D01*
X7011905Y-20742476D01*
X7050000Y-20742476D01*
X7069048Y-20752000D01*
X7078571Y-20761524D01*
X7088095Y-20780571D01*
X7088095Y-20790095D01*
X7078571Y-20809143D01*
X7069048Y-20818667D01*
X7050000Y-20828190D01*
X7011905Y-20828190D01*
X6992857Y-20837714D01*
X6983333Y-20847238D01*
X6973809Y-20866286D01*
X6973809Y-20904381D01*
X6983333Y-20923429D01*
X6992857Y-20932952D01*
X7011905Y-20942476D01*
X7050000Y-20942476D01*
X7069048Y-20932952D01*
X7078571Y-20923429D01*
X7088095Y-20904381D01*
X7088095Y-20866286D01*
X7078571Y-20847238D01*
X7069048Y-20837714D01*
X7050000Y-20828190D01*
X7211905Y-20742476D02*
X7230952Y-20742476D01*
X7250000Y-20752000D01*
X7259524Y-20761524D01*
X7269048Y-20780571D01*
X7278571Y-20818667D01*
X7278571Y-20866286D01*
X7269048Y-20904381D01*
X7259524Y-20923429D01*
X7250000Y-20932952D01*
X7230952Y-20942476D01*
X7211905Y-20942476D01*
X7192857Y-20932952D01*
X7183333Y-20923429D01*
X7173809Y-20904381D01*
X7164286Y-20866286D01*
X7164286Y-20818667D01*
X7173809Y-20780571D01*
X7183333Y-20761524D01*
X7192857Y-20752000D01*
X7211905Y-20742476D01*
X7402381Y-20742476D02*
X7421428Y-20742476D01*
X7440476Y-20752000D01*
X7450000Y-20761524D01*
X7459524Y-20780571D01*
X7469048Y-20818667D01*
X7469048Y-20866286D01*
X7459524Y-20904381D01*
X7450000Y-20923429D01*
X7440476Y-20932952D01*
X7421428Y-20942476D01*
X7402381Y-20942476D01*
X7383333Y-20932952D01*
X7373809Y-20923429D01*
X7364286Y-20904381D01*
X7354762Y-20866286D01*
X7354762Y-20818667D01*
X7364286Y-20780571D01*
X7373809Y-20761524D01*
X7383333Y-20752000D01*
X7402381Y-20742476D01*
X7554762Y-20942476D02*
X7554762Y-20809143D01*
X7554762Y-20828190D02*
X7564286Y-20818667D01*
X7583333Y-20809143D01*
X7611905Y-20809143D01*
X7630952Y-20818667D01*
X7640476Y-20837714D01*
X7640476Y-20942476D01*
X7640476Y-20837714D02*
X7650000Y-20818667D01*
X7669048Y-20809143D01*
X7697619Y-20809143D01*
X7716667Y-20818667D01*
X7726190Y-20837714D01*
X7726190Y-20942476D01*
X7821428Y-20942476D02*
X7821428Y-20809143D01*
X7821428Y-20828190D02*
X7830952Y-20818667D01*
X7850000Y-20809143D01*
X7878571Y-20809143D01*
X7897619Y-20818667D01*
X7907143Y-20837714D01*
X7907143Y-20942476D01*
X7907143Y-20837714D02*
X7916667Y-20818667D01*
X7935714Y-20809143D01*
X7964286Y-20809143D01*
X7983333Y-20818667D01*
X7992857Y-20837714D01*
X7992857Y-20942476D01*
X8383333Y-20732952D02*
X8211905Y-20990095D01*
X8640476Y-20742476D02*
X8659524Y-20742476D01*
X8678571Y-20752000D01*
X8688095Y-20761524D01*
X8697619Y-20780571D01*
X8707143Y-20818667D01*
X8707143Y-20866286D01*
X8697619Y-20904381D01*
X8688095Y-20923429D01*
X8678571Y-20932952D01*
X8659524Y-20942476D01*
X8640476Y-20942476D01*
X8621429Y-20932952D01*
X8611905Y-20923429D01*
X8602381Y-20904381D01*
X8592857Y-20866286D01*
X8592857Y-20818667D01*
X8602381Y-20780571D01*
X8611905Y-20761524D01*
X8621429Y-20752000D01*
X8640476Y-20742476D01*
X8792857Y-20923429D02*
X8802381Y-20932952D01*
X8792857Y-20942476D01*
X8783333Y-20932952D01*
X8792857Y-20923429D01*
X8792857Y-20942476D01*
X8926190Y-20742476D02*
X8945238Y-20742476D01*
X8964286Y-20752000D01*
X8973810Y-20761524D01*
X8983333Y-20780571D01*
X8992857Y-20818667D01*
X8992857Y-20866286D01*
X8983333Y-20904381D01*
X8973810Y-20923429D01*
X8964286Y-20932952D01*
X8945238Y-20942476D01*
X8926190Y-20942476D01*
X8907143Y-20932952D01*
X8897619Y-20923429D01*
X8888095Y-20904381D01*
X8878571Y-20866286D01*
X8878571Y-20818667D01*
X8888095Y-20780571D01*
X8897619Y-20761524D01*
X8907143Y-20752000D01*
X8926190Y-20742476D01*
X9059524Y-20742476D02*
X9183333Y-20742476D01*
X9116667Y-20818667D01*
X9145238Y-20818667D01*
X9164286Y-20828190D01*
X9173810Y-20837714D01*
X9183333Y-20856762D01*
X9183333Y-20904381D01*
X9173810Y-20923429D01*
X9164286Y-20932952D01*
X9145238Y-20942476D01*
X9088095Y-20942476D01*
X9069048Y-20932952D01*
X9059524Y-20923429D01*
X9373810Y-20942476D02*
X9259524Y-20942476D01*
X9316667Y-20942476D02*
X9316667Y-20742476D01*
X9297619Y-20771048D01*
X9278571Y-20790095D01*
X9259524Y-20799619D01*
X9554762Y-20742476D02*
X9459524Y-20742476D01*
X9450000Y-20837714D01*
X9459524Y-20828190D01*
X9478571Y-20818667D01*
X9526190Y-20818667D01*
X9545238Y-20828190D01*
X9554762Y-20837714D01*
X9564286Y-20856762D01*
X9564286Y-20904381D01*
X9554762Y-20923429D01*
X9545238Y-20932952D01*
X9526190Y-20942476D01*
X9478571Y-20942476D01*
X9459524Y-20932952D01*
X9450000Y-20923429D01*
X9640476Y-20742476D02*
X9640476Y-20780571D01*
X9716667Y-20742476D02*
X9716667Y-20780571D01*
X10011905Y-21018667D02*
X10002381Y-21009143D01*
X9983333Y-20980571D01*
X9973810Y-20961524D01*
X9964286Y-20932952D01*
X9954762Y-20885333D01*
X9954762Y-20847238D01*
X9964286Y-20799619D01*
X9973810Y-20771048D01*
X9983333Y-20752000D01*
X10002381Y-20723429D01*
X10011905Y-20713905D01*
X10192857Y-20942476D02*
X10078571Y-20942476D01*
X10135714Y-20942476D02*
X10135714Y-20742476D01*
X10116667Y-20771048D01*
X10097619Y-20790095D01*
X10078571Y-20799619D01*
X10316667Y-20742476D02*
X10335714Y-20742476D01*
X10354762Y-20752000D01*
X10364286Y-20761524D01*
X10373810Y-20780571D01*
X10383333Y-20818667D01*
X10383333Y-20866286D01*
X10373810Y-20904381D01*
X10364286Y-20923429D01*
X10354762Y-20932952D01*
X10335714Y-20942476D01*
X10316667Y-20942476D01*
X10297619Y-20932952D01*
X10288095Y-20923429D01*
X10278571Y-20904381D01*
X10269048Y-20866286D01*
X10269048Y-20818667D01*
X10278571Y-20780571D01*
X10288095Y-20761524D01*
X10297619Y-20752000D01*
X10316667Y-20742476D01*
X10621429Y-20942476D02*
X10621429Y-20742476D01*
X10707143Y-20942476D02*
X10707143Y-20837714D01*
X10697619Y-20818667D01*
X10678571Y-20809143D01*
X10650000Y-20809143D01*
X10630952Y-20818667D01*
X10621429Y-20828190D01*
X10830952Y-20942476D02*
X10811905Y-20932952D01*
X10802381Y-20923429D01*
X10792857Y-20904381D01*
X10792857Y-20847238D01*
X10802381Y-20828190D01*
X10811905Y-20818667D01*
X10830952Y-20809143D01*
X10859524Y-20809143D01*
X10878571Y-20818667D01*
X10888095Y-20828190D01*
X10897619Y-20847238D01*
X10897619Y-20904381D01*
X10888095Y-20923429D01*
X10878571Y-20932952D01*
X10859524Y-20942476D01*
X10830952Y-20942476D01*
X11011905Y-20942476D02*
X10992857Y-20932952D01*
X10983333Y-20913905D01*
X10983333Y-20742476D01*
X11164286Y-20932952D02*
X11145238Y-20942476D01*
X11107143Y-20942476D01*
X11088095Y-20932952D01*
X11078571Y-20913905D01*
X11078571Y-20837714D01*
X11088095Y-20818667D01*
X11107143Y-20809143D01*
X11145238Y-20809143D01*
X11164286Y-20818667D01*
X11173810Y-20837714D01*
X11173810Y-20856762D01*
X11078571Y-20875810D01*
X11250000Y-20932952D02*
X11269048Y-20942476D01*
X11307143Y-20942476D01*
X11326190Y-20932952D01*
X11335714Y-20913905D01*
X11335714Y-20904381D01*
X11326190Y-20885333D01*
X11307143Y-20875810D01*
X11278571Y-20875810D01*
X11259524Y-20866286D01*
X11250000Y-20847238D01*
X11250000Y-20837714D01*
X11259524Y-20818667D01*
X11278571Y-20809143D01*
X11307143Y-20809143D01*
X11326190Y-20818667D01*
X11402381Y-21018667D02*
X11411905Y-21009143D01*
X11430952Y-20980571D01*
X11440476Y-20961524D01*
X11450000Y-20932952D01*
X11459524Y-20885333D01*
X11459524Y-20847238D01*
X11450000Y-20799619D01*
X11440476Y-20771048D01*
X11430952Y-20752000D01*
X11411905Y-20723429D01*
X11402381Y-20713905D01*
D16*
X6395000Y-21161000D02*
X6440000Y-21116000D01*
X6395000Y-21071000D01*
X6350000Y-21116000D01*
X6395000Y-21161000D01*
D11*
X6735714Y-21006476D02*
X6754762Y-21006476D01*
X6773809Y-21016000D01*
X6783333Y-21025524D01*
X6792857Y-21044571D01*
X6802381Y-21082667D01*
X6802381Y-21130286D01*
X6792857Y-21168381D01*
X6783333Y-21187429D01*
X6773809Y-21196952D01*
X6754762Y-21206476D01*
X6735714Y-21206476D01*
X6716667Y-21196952D01*
X6707143Y-21187429D01*
X6697619Y-21168381D01*
X6688095Y-21130286D01*
X6688095Y-21082667D01*
X6697619Y-21044571D01*
X6707143Y-21025524D01*
X6716667Y-21016000D01*
X6735714Y-21006476D01*
X6888095Y-21187429D02*
X6897619Y-21196952D01*
X6888095Y-21206476D01*
X6878571Y-21196952D01*
X6888095Y-21187429D01*
X6888095Y-21206476D01*
X6992857Y-21206476D02*
X7030952Y-21206476D01*
X7050000Y-21196952D01*
X7059524Y-21187429D01*
X7078571Y-21158857D01*
X7088095Y-21120762D01*
X7088095Y-21044571D01*
X7078571Y-21025524D01*
X7069048Y-21016000D01*
X7050000Y-21006476D01*
X7011905Y-21006476D01*
X6992857Y-21016000D01*
X6983333Y-21025524D01*
X6973809Y-21044571D01*
X6973809Y-21092190D01*
X6983333Y-21111238D01*
X6992857Y-21120762D01*
X7011905Y-21130286D01*
X7050000Y-21130286D01*
X7069048Y-21120762D01*
X7078571Y-21111238D01*
X7088095Y-21092190D01*
X7211905Y-21006476D02*
X7230952Y-21006476D01*
X7250000Y-21016000D01*
X7259524Y-21025524D01*
X7269048Y-21044571D01*
X7278571Y-21082667D01*
X7278571Y-21130286D01*
X7269048Y-21168381D01*
X7259524Y-21187429D01*
X7250000Y-21196952D01*
X7230952Y-21206476D01*
X7211905Y-21206476D01*
X7192857Y-21196952D01*
X7183333Y-21187429D01*
X7173809Y-21168381D01*
X7164286Y-21130286D01*
X7164286Y-21082667D01*
X7173809Y-21044571D01*
X7183333Y-21025524D01*
X7192857Y-21016000D01*
X7211905Y-21006476D01*
X7402381Y-21006476D02*
X7421428Y-21006476D01*
X7440476Y-21016000D01*
X7450000Y-21025524D01*
X7459524Y-21044571D01*
X7469048Y-21082667D01*
X7469048Y-21130286D01*
X7459524Y-21168381D01*
X7450000Y-21187429D01*
X7440476Y-21196952D01*
X7421428Y-21206476D01*
X7402381Y-21206476D01*
X7383333Y-21196952D01*
X7373809Y-21187429D01*
X7364286Y-21168381D01*
X7354762Y-21130286D01*
X7354762Y-21082667D01*
X7364286Y-21044571D01*
X7373809Y-21025524D01*
X7383333Y-21016000D01*
X7402381Y-21006476D01*
X7554762Y-21206476D02*
X7554762Y-21073143D01*
X7554762Y-21092190D02*
X7564286Y-21082667D01*
X7583333Y-21073143D01*
X7611905Y-21073143D01*
X7630952Y-21082667D01*
X7640476Y-21101714D01*
X7640476Y-21206476D01*
X7640476Y-21101714D02*
X7650000Y-21082667D01*
X7669048Y-21073143D01*
X7697619Y-21073143D01*
X7716667Y-21082667D01*
X7726190Y-21101714D01*
X7726190Y-21206476D01*
X7821428Y-21206476D02*
X7821428Y-21073143D01*
X7821428Y-21092190D02*
X7830952Y-21082667D01*
X7850000Y-21073143D01*
X7878571Y-21073143D01*
X7897619Y-21082667D01*
X7907143Y-21101714D01*
X7907143Y-21206476D01*
X7907143Y-21101714D02*
X7916667Y-21082667D01*
X7935714Y-21073143D01*
X7964286Y-21073143D01*
X7983333Y-21082667D01*
X7992857Y-21101714D01*
X7992857Y-21206476D01*
X8383333Y-20996952D02*
X8211905Y-21254095D01*
X8640476Y-21006476D02*
X8659524Y-21006476D01*
X8678571Y-21016000D01*
X8688095Y-21025524D01*
X8697619Y-21044571D01*
X8707143Y-21082667D01*
X8707143Y-21130286D01*
X8697619Y-21168381D01*
X8688095Y-21187429D01*
X8678571Y-21196952D01*
X8659524Y-21206476D01*
X8640476Y-21206476D01*
X8621429Y-21196952D01*
X8611905Y-21187429D01*
X8602381Y-21168381D01*
X8592857Y-21130286D01*
X8592857Y-21082667D01*
X8602381Y-21044571D01*
X8611905Y-21025524D01*
X8621429Y-21016000D01*
X8640476Y-21006476D01*
X8792857Y-21187429D02*
X8802381Y-21196952D01*
X8792857Y-21206476D01*
X8783333Y-21196952D01*
X8792857Y-21187429D01*
X8792857Y-21206476D01*
X8926190Y-21006476D02*
X8945238Y-21006476D01*
X8964286Y-21016000D01*
X8973810Y-21025524D01*
X8983333Y-21044571D01*
X8992857Y-21082667D01*
X8992857Y-21130286D01*
X8983333Y-21168381D01*
X8973810Y-21187429D01*
X8964286Y-21196952D01*
X8945238Y-21206476D01*
X8926190Y-21206476D01*
X8907143Y-21196952D01*
X8897619Y-21187429D01*
X8888095Y-21168381D01*
X8878571Y-21130286D01*
X8878571Y-21082667D01*
X8888095Y-21044571D01*
X8897619Y-21025524D01*
X8907143Y-21016000D01*
X8926190Y-21006476D01*
X9059524Y-21006476D02*
X9183333Y-21006476D01*
X9116667Y-21082667D01*
X9145238Y-21082667D01*
X9164286Y-21092190D01*
X9173810Y-21101714D01*
X9183333Y-21120762D01*
X9183333Y-21168381D01*
X9173810Y-21187429D01*
X9164286Y-21196952D01*
X9145238Y-21206476D01*
X9088095Y-21206476D01*
X9069048Y-21196952D01*
X9059524Y-21187429D01*
X9364286Y-21006476D02*
X9269048Y-21006476D01*
X9259524Y-21101714D01*
X9269048Y-21092190D01*
X9288095Y-21082667D01*
X9335714Y-21082667D01*
X9354762Y-21092190D01*
X9364286Y-21101714D01*
X9373810Y-21120762D01*
X9373810Y-21168381D01*
X9364286Y-21187429D01*
X9354762Y-21196952D01*
X9335714Y-21206476D01*
X9288095Y-21206476D01*
X9269048Y-21196952D01*
X9259524Y-21187429D01*
X9545238Y-21073143D02*
X9545238Y-21206476D01*
X9497619Y-20996952D02*
X9450000Y-21139810D01*
X9573810Y-21139810D01*
X9640476Y-21006476D02*
X9640476Y-21044571D01*
X9716667Y-21006476D02*
X9716667Y-21044571D01*
X10011905Y-21282667D02*
X10002381Y-21273143D01*
X9983333Y-21244571D01*
X9973810Y-21225524D01*
X9964286Y-21196952D01*
X9954762Y-21149333D01*
X9954762Y-21111238D01*
X9964286Y-21063619D01*
X9973810Y-21035048D01*
X9983333Y-21016000D01*
X10002381Y-20987429D01*
X10011905Y-20977905D01*
X10192857Y-21206476D02*
X10078571Y-21206476D01*
X10135714Y-21206476D02*
X10135714Y-21006476D01*
X10116667Y-21035048D01*
X10097619Y-21054095D01*
X10078571Y-21063619D01*
X10269048Y-21025524D02*
X10278571Y-21016000D01*
X10297619Y-21006476D01*
X10345238Y-21006476D01*
X10364286Y-21016000D01*
X10373810Y-21025524D01*
X10383333Y-21044571D01*
X10383333Y-21063619D01*
X10373810Y-21092190D01*
X10259524Y-21206476D01*
X10383333Y-21206476D01*
X10621429Y-21206476D02*
X10621429Y-21006476D01*
X10707143Y-21206476D02*
X10707143Y-21101714D01*
X10697619Y-21082667D01*
X10678571Y-21073143D01*
X10650000Y-21073143D01*
X10630952Y-21082667D01*
X10621429Y-21092190D01*
X10830952Y-21206476D02*
X10811905Y-21196952D01*
X10802381Y-21187429D01*
X10792857Y-21168381D01*
X10792857Y-21111238D01*
X10802381Y-21092190D01*
X10811905Y-21082667D01*
X10830952Y-21073143D01*
X10859524Y-21073143D01*
X10878571Y-21082667D01*
X10888095Y-21092190D01*
X10897619Y-21111238D01*
X10897619Y-21168381D01*
X10888095Y-21187429D01*
X10878571Y-21196952D01*
X10859524Y-21206476D01*
X10830952Y-21206476D01*
X11011905Y-21206476D02*
X10992857Y-21196952D01*
X10983333Y-21177905D01*
X10983333Y-21006476D01*
X11164286Y-21196952D02*
X11145238Y-21206476D01*
X11107143Y-21206476D01*
X11088095Y-21196952D01*
X11078571Y-21177905D01*
X11078571Y-21101714D01*
X11088095Y-21082667D01*
X11107143Y-21073143D01*
X11145238Y-21073143D01*
X11164286Y-21082667D01*
X11173810Y-21101714D01*
X11173810Y-21120762D01*
X11078571Y-21139810D01*
X11250000Y-21196952D02*
X11269048Y-21206476D01*
X11307143Y-21206476D01*
X11326190Y-21196952D01*
X11335714Y-21177905D01*
X11335714Y-21168381D01*
X11326190Y-21149333D01*
X11307143Y-21139810D01*
X11278571Y-21139810D01*
X11259524Y-21130286D01*
X11250000Y-21111238D01*
X11250000Y-21101714D01*
X11259524Y-21082667D01*
X11278571Y-21073143D01*
X11307143Y-21073143D01*
X11326190Y-21082667D01*
X11402381Y-21282667D02*
X11411905Y-21273143D01*
X11430952Y-21244571D01*
X11440476Y-21225524D01*
X11450000Y-21196952D01*
X11459524Y-21149333D01*
X11459524Y-21111238D01*
X11450000Y-21063619D01*
X11440476Y-21035048D01*
X11430952Y-21016000D01*
X11411905Y-20987429D01*
X11402381Y-20977905D01*
D17*
X6345000Y-21332500D02*
X6440000Y-21427500D01*
X6440000Y-21332500D02*
X6345000Y-21427500D01*
X6440000Y-21380000D02*
G75*
G03*
X6440000Y-21380000I-47500J0D01*
G01*
D11*
X6735714Y-21270476D02*
X6754762Y-21270476D01*
X6773809Y-21280000D01*
X6783333Y-21289524D01*
X6792857Y-21308571D01*
X6802381Y-21346667D01*
X6802381Y-21394286D01*
X6792857Y-21432381D01*
X6783333Y-21451429D01*
X6773809Y-21460952D01*
X6754762Y-21470476D01*
X6735714Y-21470476D01*
X6716667Y-21460952D01*
X6707143Y-21451429D01*
X6697619Y-21432381D01*
X6688095Y-21394286D01*
X6688095Y-21346667D01*
X6697619Y-21308571D01*
X6707143Y-21289524D01*
X6716667Y-21280000D01*
X6735714Y-21270476D01*
X6888095Y-21451429D02*
X6897619Y-21460952D01*
X6888095Y-21470476D01*
X6878571Y-21460952D01*
X6888095Y-21451429D01*
X6888095Y-21470476D01*
X6992857Y-21470476D02*
X7030952Y-21470476D01*
X7050000Y-21460952D01*
X7059524Y-21451429D01*
X7078571Y-21422857D01*
X7088095Y-21384762D01*
X7088095Y-21308571D01*
X7078571Y-21289524D01*
X7069048Y-21280000D01*
X7050000Y-21270476D01*
X7011905Y-21270476D01*
X6992857Y-21280000D01*
X6983333Y-21289524D01*
X6973809Y-21308571D01*
X6973809Y-21356190D01*
X6983333Y-21375238D01*
X6992857Y-21384762D01*
X7011905Y-21394286D01*
X7050000Y-21394286D01*
X7069048Y-21384762D01*
X7078571Y-21375238D01*
X7088095Y-21356190D01*
X7269048Y-21270476D02*
X7173809Y-21270476D01*
X7164286Y-21365714D01*
X7173809Y-21356190D01*
X7192857Y-21346667D01*
X7240476Y-21346667D01*
X7259524Y-21356190D01*
X7269048Y-21365714D01*
X7278571Y-21384762D01*
X7278571Y-21432381D01*
X7269048Y-21451429D01*
X7259524Y-21460952D01*
X7240476Y-21470476D01*
X7192857Y-21470476D01*
X7173809Y-21460952D01*
X7164286Y-21451429D01*
X7402381Y-21270476D02*
X7421428Y-21270476D01*
X7440476Y-21280000D01*
X7450000Y-21289524D01*
X7459524Y-21308571D01*
X7469048Y-21346667D01*
X7469048Y-21394286D01*
X7459524Y-21432381D01*
X7450000Y-21451429D01*
X7440476Y-21460952D01*
X7421428Y-21470476D01*
X7402381Y-21470476D01*
X7383333Y-21460952D01*
X7373809Y-21451429D01*
X7364286Y-21432381D01*
X7354762Y-21394286D01*
X7354762Y-21346667D01*
X7364286Y-21308571D01*
X7373809Y-21289524D01*
X7383333Y-21280000D01*
X7402381Y-21270476D01*
X7554762Y-21470476D02*
X7554762Y-21337143D01*
X7554762Y-21356190D02*
X7564286Y-21346667D01*
X7583333Y-21337143D01*
X7611905Y-21337143D01*
X7630952Y-21346667D01*
X7640476Y-21365714D01*
X7640476Y-21470476D01*
X7640476Y-21365714D02*
X7650000Y-21346667D01*
X7669048Y-21337143D01*
X7697619Y-21337143D01*
X7716667Y-21346667D01*
X7726190Y-21365714D01*
X7726190Y-21470476D01*
X7821428Y-21470476D02*
X7821428Y-21337143D01*
X7821428Y-21356190D02*
X7830952Y-21346667D01*
X7850000Y-21337143D01*
X7878571Y-21337143D01*
X7897619Y-21346667D01*
X7907143Y-21365714D01*
X7907143Y-21470476D01*
X7907143Y-21365714D02*
X7916667Y-21346667D01*
X7935714Y-21337143D01*
X7964286Y-21337143D01*
X7983333Y-21346667D01*
X7992857Y-21365714D01*
X7992857Y-21470476D01*
X8383333Y-21260952D02*
X8211905Y-21518095D01*
X8640476Y-21270476D02*
X8659524Y-21270476D01*
X8678571Y-21280000D01*
X8688095Y-21289524D01*
X8697619Y-21308571D01*
X8707143Y-21346667D01*
X8707143Y-21394286D01*
X8697619Y-21432381D01*
X8688095Y-21451429D01*
X8678571Y-21460952D01*
X8659524Y-21470476D01*
X8640476Y-21470476D01*
X8621429Y-21460952D01*
X8611905Y-21451429D01*
X8602381Y-21432381D01*
X8592857Y-21394286D01*
X8592857Y-21346667D01*
X8602381Y-21308571D01*
X8611905Y-21289524D01*
X8621429Y-21280000D01*
X8640476Y-21270476D01*
X8792857Y-21451429D02*
X8802381Y-21460952D01*
X8792857Y-21470476D01*
X8783333Y-21460952D01*
X8792857Y-21451429D01*
X8792857Y-21470476D01*
X8926190Y-21270476D02*
X8945238Y-21270476D01*
X8964286Y-21280000D01*
X8973810Y-21289524D01*
X8983333Y-21308571D01*
X8992857Y-21346667D01*
X8992857Y-21394286D01*
X8983333Y-21432381D01*
X8973810Y-21451429D01*
X8964286Y-21460952D01*
X8945238Y-21470476D01*
X8926190Y-21470476D01*
X8907143Y-21460952D01*
X8897619Y-21451429D01*
X8888095Y-21432381D01*
X8878571Y-21394286D01*
X8878571Y-21346667D01*
X8888095Y-21308571D01*
X8897619Y-21289524D01*
X8907143Y-21280000D01*
X8926190Y-21270476D01*
X9059524Y-21270476D02*
X9183333Y-21270476D01*
X9116667Y-21346667D01*
X9145238Y-21346667D01*
X9164286Y-21356190D01*
X9173810Y-21365714D01*
X9183333Y-21384762D01*
X9183333Y-21432381D01*
X9173810Y-21451429D01*
X9164286Y-21460952D01*
X9145238Y-21470476D01*
X9088095Y-21470476D01*
X9069048Y-21460952D01*
X9059524Y-21451429D01*
X9250000Y-21270476D02*
X9383333Y-21270476D01*
X9297619Y-21470476D01*
X9545238Y-21337143D02*
X9545238Y-21470476D01*
X9497619Y-21260952D02*
X9450000Y-21403810D01*
X9573810Y-21403810D01*
X9640476Y-21270476D02*
X9640476Y-21308571D01*
X9716667Y-21270476D02*
X9716667Y-21308571D01*
X10011905Y-21546667D02*
X10002381Y-21537143D01*
X9983333Y-21508571D01*
X9973810Y-21489524D01*
X9964286Y-21460952D01*
X9954762Y-21413333D01*
X9954762Y-21375238D01*
X9964286Y-21327619D01*
X9973810Y-21299048D01*
X9983333Y-21280000D01*
X10002381Y-21251429D01*
X10011905Y-21241905D01*
X10173810Y-21337143D02*
X10173810Y-21470476D01*
X10126190Y-21260952D02*
X10078571Y-21403810D01*
X10202381Y-21403810D01*
X10430952Y-21470476D02*
X10430952Y-21270476D01*
X10516667Y-21470476D02*
X10516667Y-21365714D01*
X10507143Y-21346667D01*
X10488095Y-21337143D01*
X10459524Y-21337143D01*
X10440476Y-21346667D01*
X10430952Y-21356190D01*
X10640476Y-21470476D02*
X10621429Y-21460952D01*
X10611905Y-21451429D01*
X10602381Y-21432381D01*
X10602381Y-21375238D01*
X10611905Y-21356190D01*
X10621429Y-21346667D01*
X10640476Y-21337143D01*
X10669048Y-21337143D01*
X10688095Y-21346667D01*
X10697619Y-21356190D01*
X10707143Y-21375238D01*
X10707143Y-21432381D01*
X10697619Y-21451429D01*
X10688095Y-21460952D01*
X10669048Y-21470476D01*
X10640476Y-21470476D01*
X10821429Y-21470476D02*
X10802381Y-21460952D01*
X10792857Y-21441905D01*
X10792857Y-21270476D01*
X10973810Y-21460952D02*
X10954762Y-21470476D01*
X10916667Y-21470476D01*
X10897619Y-21460952D01*
X10888095Y-21441905D01*
X10888095Y-21365714D01*
X10897619Y-21346667D01*
X10916667Y-21337143D01*
X10954762Y-21337143D01*
X10973810Y-21346667D01*
X10983333Y-21365714D01*
X10983333Y-21384762D01*
X10888095Y-21403810D01*
X11059524Y-21460952D02*
X11078571Y-21470476D01*
X11116667Y-21470476D01*
X11135714Y-21460952D01*
X11145238Y-21441905D01*
X11145238Y-21432381D01*
X11135714Y-21413333D01*
X11116667Y-21403810D01*
X11088095Y-21403810D01*
X11069048Y-21394286D01*
X11059524Y-21375238D01*
X11059524Y-21365714D01*
X11069048Y-21346667D01*
X11088095Y-21337143D01*
X11116667Y-21337143D01*
X11135714Y-21346667D01*
X11211905Y-21546667D02*
X11221428Y-21537143D01*
X11240476Y-21508571D01*
X11250000Y-21489524D01*
X11259524Y-21460952D01*
X11269048Y-21413333D01*
X11269048Y-21375238D01*
X11259524Y-21327619D01*
X11250000Y-21299048D01*
X11240476Y-21280000D01*
X11221428Y-21251429D01*
X11211905Y-21241905D01*
D18*
X6340000Y-21594000D02*
X6440000Y-21694000D01*
X6440000Y-21594000D02*
X6340000Y-21694000D01*
X6390000Y-21594000D02*
X6390000Y-21694000D01*
X6340000Y-21644000D02*
X6440000Y-21644000D01*
D11*
X6802381Y-21734476D02*
X6688095Y-21734476D01*
X6745238Y-21734476D02*
X6745238Y-21534476D01*
X6726190Y-21563048D01*
X6707143Y-21582095D01*
X6688095Y-21591619D01*
X6888095Y-21715429D02*
X6897619Y-21724952D01*
X6888095Y-21734476D01*
X6878571Y-21724952D01*
X6888095Y-21715429D01*
X6888095Y-21734476D01*
X7021428Y-21534476D02*
X7040476Y-21534476D01*
X7059524Y-21544000D01*
X7069048Y-21553524D01*
X7078571Y-21572571D01*
X7088095Y-21610667D01*
X7088095Y-21658286D01*
X7078571Y-21696381D01*
X7069048Y-21715429D01*
X7059524Y-21724952D01*
X7040476Y-21734476D01*
X7021428Y-21734476D01*
X7002381Y-21724952D01*
X6992857Y-21715429D01*
X6983333Y-21696381D01*
X6973809Y-21658286D01*
X6973809Y-21610667D01*
X6983333Y-21572571D01*
X6992857Y-21553524D01*
X7002381Y-21544000D01*
X7021428Y-21534476D01*
X7211905Y-21534476D02*
X7230952Y-21534476D01*
X7250000Y-21544000D01*
X7259524Y-21553524D01*
X7269048Y-21572571D01*
X7278571Y-21610667D01*
X7278571Y-21658286D01*
X7269048Y-21696381D01*
X7259524Y-21715429D01*
X7250000Y-21724952D01*
X7230952Y-21734476D01*
X7211905Y-21734476D01*
X7192857Y-21724952D01*
X7183333Y-21715429D01*
X7173809Y-21696381D01*
X7164286Y-21658286D01*
X7164286Y-21610667D01*
X7173809Y-21572571D01*
X7183333Y-21553524D01*
X7192857Y-21544000D01*
X7211905Y-21534476D01*
X7402381Y-21534476D02*
X7421428Y-21534476D01*
X7440476Y-21544000D01*
X7450000Y-21553524D01*
X7459524Y-21572571D01*
X7469048Y-21610667D01*
X7469048Y-21658286D01*
X7459524Y-21696381D01*
X7450000Y-21715429D01*
X7440476Y-21724952D01*
X7421428Y-21734476D01*
X7402381Y-21734476D01*
X7383333Y-21724952D01*
X7373809Y-21715429D01*
X7364286Y-21696381D01*
X7354762Y-21658286D01*
X7354762Y-21610667D01*
X7364286Y-21572571D01*
X7373809Y-21553524D01*
X7383333Y-21544000D01*
X7402381Y-21534476D01*
X7554762Y-21734476D02*
X7554762Y-21601143D01*
X7554762Y-21620190D02*
X7564286Y-21610667D01*
X7583333Y-21601143D01*
X7611905Y-21601143D01*
X7630952Y-21610667D01*
X7640476Y-21629714D01*
X7640476Y-21734476D01*
X7640476Y-21629714D02*
X7650000Y-21610667D01*
X7669048Y-21601143D01*
X7697619Y-21601143D01*
X7716667Y-21610667D01*
X7726190Y-21629714D01*
X7726190Y-21734476D01*
X7821428Y-21734476D02*
X7821428Y-21601143D01*
X7821428Y-21620190D02*
X7830952Y-21610667D01*
X7850000Y-21601143D01*
X7878571Y-21601143D01*
X7897619Y-21610667D01*
X7907143Y-21629714D01*
X7907143Y-21734476D01*
X7907143Y-21629714D02*
X7916667Y-21610667D01*
X7935714Y-21601143D01*
X7964286Y-21601143D01*
X7983333Y-21610667D01*
X7992857Y-21629714D01*
X7992857Y-21734476D01*
X8383333Y-21524952D02*
X8211905Y-21782095D01*
X8640476Y-21534476D02*
X8659524Y-21534476D01*
X8678571Y-21544000D01*
X8688095Y-21553524D01*
X8697619Y-21572571D01*
X8707143Y-21610667D01*
X8707143Y-21658286D01*
X8697619Y-21696381D01*
X8688095Y-21715429D01*
X8678571Y-21724952D01*
X8659524Y-21734476D01*
X8640476Y-21734476D01*
X8621429Y-21724952D01*
X8611905Y-21715429D01*
X8602381Y-21696381D01*
X8592857Y-21658286D01*
X8592857Y-21610667D01*
X8602381Y-21572571D01*
X8611905Y-21553524D01*
X8621429Y-21544000D01*
X8640476Y-21534476D01*
X8792857Y-21715429D02*
X8802381Y-21724952D01*
X8792857Y-21734476D01*
X8783333Y-21724952D01*
X8792857Y-21715429D01*
X8792857Y-21734476D01*
X8926190Y-21534476D02*
X8945238Y-21534476D01*
X8964286Y-21544000D01*
X8973810Y-21553524D01*
X8983333Y-21572571D01*
X8992857Y-21610667D01*
X8992857Y-21658286D01*
X8983333Y-21696381D01*
X8973810Y-21715429D01*
X8964286Y-21724952D01*
X8945238Y-21734476D01*
X8926190Y-21734476D01*
X8907143Y-21724952D01*
X8897619Y-21715429D01*
X8888095Y-21696381D01*
X8878571Y-21658286D01*
X8878571Y-21610667D01*
X8888095Y-21572571D01*
X8897619Y-21553524D01*
X8907143Y-21544000D01*
X8926190Y-21534476D01*
X9059524Y-21534476D02*
X9183333Y-21534476D01*
X9116667Y-21610667D01*
X9145238Y-21610667D01*
X9164286Y-21620190D01*
X9173810Y-21629714D01*
X9183333Y-21648762D01*
X9183333Y-21696381D01*
X9173810Y-21715429D01*
X9164286Y-21724952D01*
X9145238Y-21734476D01*
X9088095Y-21734476D01*
X9069048Y-21724952D01*
X9059524Y-21715429D01*
X9278571Y-21734476D02*
X9316667Y-21734476D01*
X9335714Y-21724952D01*
X9345238Y-21715429D01*
X9364286Y-21686857D01*
X9373810Y-21648762D01*
X9373810Y-21572571D01*
X9364286Y-21553524D01*
X9354762Y-21544000D01*
X9335714Y-21534476D01*
X9297619Y-21534476D01*
X9278571Y-21544000D01*
X9269048Y-21553524D01*
X9259524Y-21572571D01*
X9259524Y-21620190D01*
X9269048Y-21639238D01*
X9278571Y-21648762D01*
X9297619Y-21658286D01*
X9335714Y-21658286D01*
X9354762Y-21648762D01*
X9364286Y-21639238D01*
X9373810Y-21620190D01*
X9545238Y-21601143D02*
X9545238Y-21734476D01*
X9497619Y-21524952D02*
X9450000Y-21667810D01*
X9573810Y-21667810D01*
X9640476Y-21534476D02*
X9640476Y-21572571D01*
X9716667Y-21534476D02*
X9716667Y-21572571D01*
X10011905Y-21810667D02*
X10002381Y-21801143D01*
X9983333Y-21772571D01*
X9973810Y-21753524D01*
X9964286Y-21724952D01*
X9954762Y-21677333D01*
X9954762Y-21639238D01*
X9964286Y-21591619D01*
X9973810Y-21563048D01*
X9983333Y-21544000D01*
X10002381Y-21515429D01*
X10011905Y-21505905D01*
X10192857Y-21734476D02*
X10078571Y-21734476D01*
X10135714Y-21734476D02*
X10135714Y-21534476D01*
X10116667Y-21563048D01*
X10097619Y-21582095D01*
X10078571Y-21591619D01*
X10269048Y-21553524D02*
X10278571Y-21544000D01*
X10297619Y-21534476D01*
X10345238Y-21534476D01*
X10364286Y-21544000D01*
X10373810Y-21553524D01*
X10383333Y-21572571D01*
X10383333Y-21591619D01*
X10373810Y-21620190D01*
X10259524Y-21734476D01*
X10383333Y-21734476D01*
X10621429Y-21734476D02*
X10621429Y-21534476D01*
X10707143Y-21734476D02*
X10707143Y-21629714D01*
X10697619Y-21610667D01*
X10678571Y-21601143D01*
X10650000Y-21601143D01*
X10630952Y-21610667D01*
X10621429Y-21620190D01*
X10830952Y-21734476D02*
X10811905Y-21724952D01*
X10802381Y-21715429D01*
X10792857Y-21696381D01*
X10792857Y-21639238D01*
X10802381Y-21620190D01*
X10811905Y-21610667D01*
X10830952Y-21601143D01*
X10859524Y-21601143D01*
X10878571Y-21610667D01*
X10888095Y-21620190D01*
X10897619Y-21639238D01*
X10897619Y-21696381D01*
X10888095Y-21715429D01*
X10878571Y-21724952D01*
X10859524Y-21734476D01*
X10830952Y-21734476D01*
X11011905Y-21734476D02*
X10992857Y-21724952D01*
X10983333Y-21705905D01*
X10983333Y-21534476D01*
X11164286Y-21724952D02*
X11145238Y-21734476D01*
X11107143Y-21734476D01*
X11088095Y-21724952D01*
X11078571Y-21705905D01*
X11078571Y-21629714D01*
X11088095Y-21610667D01*
X11107143Y-21601143D01*
X11145238Y-21601143D01*
X11164286Y-21610667D01*
X11173810Y-21629714D01*
X11173810Y-21648762D01*
X11078571Y-21667810D01*
X11250000Y-21724952D02*
X11269048Y-21734476D01*
X11307143Y-21734476D01*
X11326190Y-21724952D01*
X11335714Y-21705905D01*
X11335714Y-21696381D01*
X11326190Y-21677333D01*
X11307143Y-21667810D01*
X11278571Y-21667810D01*
X11259524Y-21658286D01*
X11250000Y-21639238D01*
X11250000Y-21629714D01*
X11259524Y-21610667D01*
X11278571Y-21601143D01*
X11307143Y-21601143D01*
X11326190Y-21610667D01*
X11402381Y-21810667D02*
X11411905Y-21801143D01*
X11430952Y-21772571D01*
X11440476Y-21753524D01*
X11450000Y-21724952D01*
X11459524Y-21677333D01*
X11459524Y-21639238D01*
X11450000Y-21591619D01*
X11440476Y-21563048D01*
X11430952Y-21544000D01*
X11411905Y-21515429D01*
X11402381Y-21505905D01*
X6240000Y-21808000D02*
X6440000Y-22008000D01*
X6440000Y-21808000D02*
X6240000Y-22008000D01*
X6410711Y-21978711D02*
X6410711Y-21837289D01*
X6269289Y-21837289D01*
X6269289Y-21978711D01*
X6410711Y-21978711D01*
X6688095Y-21817524D02*
X6697619Y-21808000D01*
X6716667Y-21798476D01*
X6764286Y-21798476D01*
X6783333Y-21808000D01*
X6792857Y-21817524D01*
X6802381Y-21836571D01*
X6802381Y-21855619D01*
X6792857Y-21884190D01*
X6678571Y-21998476D01*
X6802381Y-21998476D01*
X6888095Y-21979429D02*
X6897619Y-21988952D01*
X6888095Y-21998476D01*
X6878571Y-21988952D01*
X6888095Y-21979429D01*
X6888095Y-21998476D01*
X6964286Y-21798476D02*
X7088095Y-21798476D01*
X7021428Y-21874667D01*
X7050000Y-21874667D01*
X7069048Y-21884190D01*
X7078571Y-21893714D01*
X7088095Y-21912762D01*
X7088095Y-21960381D01*
X7078571Y-21979429D01*
X7069048Y-21988952D01*
X7050000Y-21998476D01*
X6992857Y-21998476D01*
X6973809Y-21988952D01*
X6964286Y-21979429D01*
X7211905Y-21798476D02*
X7230952Y-21798476D01*
X7250000Y-21808000D01*
X7259524Y-21817524D01*
X7269048Y-21836571D01*
X7278571Y-21874667D01*
X7278571Y-21922286D01*
X7269048Y-21960381D01*
X7259524Y-21979429D01*
X7250000Y-21988952D01*
X7230952Y-21998476D01*
X7211905Y-21998476D01*
X7192857Y-21988952D01*
X7183333Y-21979429D01*
X7173809Y-21960381D01*
X7164286Y-21922286D01*
X7164286Y-21874667D01*
X7173809Y-21836571D01*
X7183333Y-21817524D01*
X7192857Y-21808000D01*
X7211905Y-21798476D01*
X7402381Y-21798476D02*
X7421428Y-21798476D01*
X7440476Y-21808000D01*
X7450000Y-21817524D01*
X7459524Y-21836571D01*
X7469048Y-21874667D01*
X7469048Y-21922286D01*
X7459524Y-21960381D01*
X7450000Y-21979429D01*
X7440476Y-21988952D01*
X7421428Y-21998476D01*
X7402381Y-21998476D01*
X7383333Y-21988952D01*
X7373809Y-21979429D01*
X7364286Y-21960381D01*
X7354762Y-21922286D01*
X7354762Y-21874667D01*
X7364286Y-21836571D01*
X7373809Y-21817524D01*
X7383333Y-21808000D01*
X7402381Y-21798476D01*
X7554762Y-21998476D02*
X7554762Y-21865143D01*
X7554762Y-21884190D02*
X7564286Y-21874667D01*
X7583333Y-21865143D01*
X7611905Y-21865143D01*
X7630952Y-21874667D01*
X7640476Y-21893714D01*
X7640476Y-21998476D01*
X7640476Y-21893714D02*
X7650000Y-21874667D01*
X7669048Y-21865143D01*
X7697619Y-21865143D01*
X7716667Y-21874667D01*
X7726190Y-21893714D01*
X7726190Y-21998476D01*
X7821428Y-21998476D02*
X7821428Y-21865143D01*
X7821428Y-21884190D02*
X7830952Y-21874667D01*
X7850000Y-21865143D01*
X7878571Y-21865143D01*
X7897619Y-21874667D01*
X7907143Y-21893714D01*
X7907143Y-21998476D01*
X7907143Y-21893714D02*
X7916667Y-21874667D01*
X7935714Y-21865143D01*
X7964286Y-21865143D01*
X7983333Y-21874667D01*
X7992857Y-21893714D01*
X7992857Y-21998476D01*
X8383333Y-21788952D02*
X8211905Y-22046095D01*
X8640476Y-21798476D02*
X8659524Y-21798476D01*
X8678571Y-21808000D01*
X8688095Y-21817524D01*
X8697619Y-21836571D01*
X8707143Y-21874667D01*
X8707143Y-21922286D01*
X8697619Y-21960381D01*
X8688095Y-21979429D01*
X8678571Y-21988952D01*
X8659524Y-21998476D01*
X8640476Y-21998476D01*
X8621429Y-21988952D01*
X8611905Y-21979429D01*
X8602381Y-21960381D01*
X8592857Y-21922286D01*
X8592857Y-21874667D01*
X8602381Y-21836571D01*
X8611905Y-21817524D01*
X8621429Y-21808000D01*
X8640476Y-21798476D01*
X8792857Y-21979429D02*
X8802381Y-21988952D01*
X8792857Y-21998476D01*
X8783333Y-21988952D01*
X8792857Y-21979429D01*
X8792857Y-21998476D01*
X8926190Y-21798476D02*
X8945238Y-21798476D01*
X8964286Y-21808000D01*
X8973810Y-21817524D01*
X8983333Y-21836571D01*
X8992857Y-21874667D01*
X8992857Y-21922286D01*
X8983333Y-21960381D01*
X8973810Y-21979429D01*
X8964286Y-21988952D01*
X8945238Y-21998476D01*
X8926190Y-21998476D01*
X8907143Y-21988952D01*
X8897619Y-21979429D01*
X8888095Y-21960381D01*
X8878571Y-21922286D01*
X8878571Y-21874667D01*
X8888095Y-21836571D01*
X8897619Y-21817524D01*
X8907143Y-21808000D01*
X8926190Y-21798476D01*
X9088095Y-21998476D02*
X9126190Y-21998476D01*
X9145238Y-21988952D01*
X9154762Y-21979429D01*
X9173810Y-21950857D01*
X9183333Y-21912762D01*
X9183333Y-21836571D01*
X9173810Y-21817524D01*
X9164286Y-21808000D01*
X9145238Y-21798476D01*
X9107143Y-21798476D01*
X9088095Y-21808000D01*
X9078571Y-21817524D01*
X9069048Y-21836571D01*
X9069048Y-21884190D01*
X9078571Y-21903238D01*
X9088095Y-21912762D01*
X9107143Y-21922286D01*
X9145238Y-21922286D01*
X9164286Y-21912762D01*
X9173810Y-21903238D01*
X9183333Y-21884190D01*
X9307143Y-21798476D02*
X9326190Y-21798476D01*
X9345238Y-21808000D01*
X9354762Y-21817524D01*
X9364286Y-21836571D01*
X9373810Y-21874667D01*
X9373810Y-21922286D01*
X9364286Y-21960381D01*
X9354762Y-21979429D01*
X9345238Y-21988952D01*
X9326190Y-21998476D01*
X9307143Y-21998476D01*
X9288095Y-21988952D01*
X9278571Y-21979429D01*
X9269048Y-21960381D01*
X9259524Y-21922286D01*
X9259524Y-21874667D01*
X9269048Y-21836571D01*
X9278571Y-21817524D01*
X9288095Y-21808000D01*
X9307143Y-21798476D01*
X9545238Y-21798476D02*
X9507143Y-21798476D01*
X9488095Y-21808000D01*
X9478571Y-21817524D01*
X9459524Y-21846095D01*
X9450000Y-21884190D01*
X9450000Y-21960381D01*
X9459524Y-21979429D01*
X9469048Y-21988952D01*
X9488095Y-21998476D01*
X9526190Y-21998476D01*
X9545238Y-21988952D01*
X9554762Y-21979429D01*
X9564286Y-21960381D01*
X9564286Y-21912762D01*
X9554762Y-21893714D01*
X9545238Y-21884190D01*
X9526190Y-21874667D01*
X9488095Y-21874667D01*
X9469048Y-21884190D01*
X9459524Y-21893714D01*
X9450000Y-21912762D01*
X9640476Y-21798476D02*
X9640476Y-21836571D01*
X9716667Y-21798476D02*
X9716667Y-21836571D01*
X10011905Y-22074667D02*
X10002381Y-22065143D01*
X9983333Y-22036571D01*
X9973810Y-22017524D01*
X9964286Y-21988952D01*
X9954762Y-21941333D01*
X9954762Y-21903238D01*
X9964286Y-21855619D01*
X9973810Y-21827048D01*
X9983333Y-21808000D01*
X10002381Y-21779429D01*
X10011905Y-21769905D01*
X10078571Y-21817524D02*
X10088095Y-21808000D01*
X10107143Y-21798476D01*
X10154762Y-21798476D01*
X10173810Y-21808000D01*
X10183333Y-21817524D01*
X10192857Y-21836571D01*
X10192857Y-21855619D01*
X10183333Y-21884190D01*
X10069048Y-21998476D01*
X10192857Y-21998476D01*
X10430952Y-21998476D02*
X10430952Y-21798476D01*
X10516667Y-21998476D02*
X10516667Y-21893714D01*
X10507143Y-21874667D01*
X10488095Y-21865143D01*
X10459524Y-21865143D01*
X10440476Y-21874667D01*
X10430952Y-21884190D01*
X10640476Y-21998476D02*
X10621429Y-21988952D01*
X10611905Y-21979429D01*
X10602381Y-21960381D01*
X10602381Y-21903238D01*
X10611905Y-21884190D01*
X10621429Y-21874667D01*
X10640476Y-21865143D01*
X10669048Y-21865143D01*
X10688095Y-21874667D01*
X10697619Y-21884190D01*
X10707143Y-21903238D01*
X10707143Y-21960381D01*
X10697619Y-21979429D01*
X10688095Y-21988952D01*
X10669048Y-21998476D01*
X10640476Y-21998476D01*
X10821429Y-21998476D02*
X10802381Y-21988952D01*
X10792857Y-21969905D01*
X10792857Y-21798476D01*
X10973810Y-21988952D02*
X10954762Y-21998476D01*
X10916667Y-21998476D01*
X10897619Y-21988952D01*
X10888095Y-21969905D01*
X10888095Y-21893714D01*
X10897619Y-21874667D01*
X10916667Y-21865143D01*
X10954762Y-21865143D01*
X10973810Y-21874667D01*
X10983333Y-21893714D01*
X10983333Y-21912762D01*
X10888095Y-21931810D01*
X11059524Y-21988952D02*
X11078571Y-21998476D01*
X11116667Y-21998476D01*
X11135714Y-21988952D01*
X11145238Y-21969905D01*
X11145238Y-21960381D01*
X11135714Y-21941333D01*
X11116667Y-21931810D01*
X11088095Y-21931810D01*
X11069048Y-21922286D01*
X11059524Y-21903238D01*
X11059524Y-21893714D01*
X11069048Y-21874667D01*
X11088095Y-21865143D01*
X11116667Y-21865143D01*
X11135714Y-21874667D01*
X11211905Y-22074667D02*
X11221428Y-22065143D01*
X11240476Y-22036571D01*
X11250000Y-22017524D01*
X11259524Y-21988952D01*
X11269048Y-21941333D01*
X11269048Y-21903238D01*
X11259524Y-21855619D01*
X11250000Y-21827048D01*
X11240476Y-21808000D01*
X11221428Y-21779429D01*
X11211905Y-21769905D01*
M02*
