G04 #@! TF.GenerationSoftware,KiCad,Pcbnew,6.0.9+dfsg-1*
G04 #@! TF.CreationDate,2023-01-25T21:24:40+01:00*
G04 #@! TF.ProjectId,siproslic,73697072-6f73-46c6-9963-2e6b69636164,rev?*
G04 #@! TF.SameCoordinates,Original*
G04 #@! TF.FileFunction,Soldermask,Top*
G04 #@! TF.FilePolarity,Negative*
%FSLAX46Y46*%
G04 Gerber Fmt 4.6, Leading zero omitted, Abs format (unit mm)*
G04 Created by KiCad (PCBNEW 6.0.9+dfsg-1) date 2023-01-25 21:24:40*
%MOMM*%
%LPD*%
G01*
G04 APERTURE LIST*
G04 Aperture macros list*
%AMRoundRect*
0 Rectangle with rounded corners*
0 $1 Rounding radius*
0 $2 $3 $4 $5 $6 $7 $8 $9 X,Y pos of 4 corners*
0 Add a 4 corners polygon primitive as box body*
4,1,4,$2,$3,$4,$5,$6,$7,$8,$9,$2,$3,0*
0 Add four circle primitives for the rounded corners*
1,1,$1+$1,$2,$3*
1,1,$1+$1,$4,$5*
1,1,$1+$1,$6,$7*
1,1,$1+$1,$8,$9*
0 Add four rect primitives between the rounded corners*
20,1,$1+$1,$2,$3,$4,$5,0*
20,1,$1+$1,$4,$5,$6,$7,0*
20,1,$1+$1,$6,$7,$8,$9,0*
20,1,$1+$1,$8,$9,$2,$3,0*%
G04 Aperture macros list end*
%ADD10C,0.300000*%
%ADD11C,0.200000*%
%ADD12C,3.302000*%
%ADD13RoundRect,0.269750X0.218750X0.256250X-0.218750X0.256250X-0.218750X-0.256250X0.218750X-0.256250X0*%
%ADD14RoundRect,0.269750X-0.218750X-0.256250X0.218750X-0.256250X0.218750X0.256250X-0.218750X0.256250X0*%
%ADD15RoundRect,0.051000X-0.850000X-0.850000X0.850000X-0.850000X0.850000X0.850000X-0.850000X0.850000X0*%
%ADD16O,1.802000X1.802000*%
%ADD17C,1.802000*%
%ADD18RoundRect,0.301000X-0.250000X-0.475000X0.250000X-0.475000X0.250000X0.475000X-0.250000X0.475000X0*%
%ADD19RoundRect,0.301000X-0.262500X-0.450000X0.262500X-0.450000X0.262500X0.450000X-0.262500X0.450000X0*%
%ADD20C,1.702000*%
%ADD21RoundRect,0.051000X-0.800000X0.800000X-0.800000X-0.800000X0.800000X-0.800000X0.800000X0.800000X0*%
%ADD22RoundRect,0.062200X-2.988800X-2.988800X2.988800X-2.988800X2.988800X2.988800X-2.988800X2.988800X0*%
%ADD23RoundRect,0.062200X0.128800X-0.723800X0.128800X0.723800X-0.128800X0.723800X-0.128800X-0.723800X0*%
%ADD24RoundRect,0.062200X-0.723800X-0.128800X0.723800X-0.128800X0.723800X0.128800X-0.723800X0.128800X0*%
%ADD25RoundRect,0.088800X0.232200X-0.742200X0.232200X0.742200X-0.232200X0.742200X-0.232200X-0.742200X0*%
%ADD26RoundRect,0.088800X-0.742200X-0.232200X0.742200X-0.232200X0.742200X0.232200X-0.742200X0.232200X0*%
%ADD27RoundRect,0.093000X-1.108000X-1.758000X1.108000X-1.758000X1.108000X1.758000X-1.108000X1.758000X0*%
%ADD28RoundRect,0.093000X-0.943000X-0.258000X0.943000X-0.258000X0.943000X0.258000X-0.943000X0.258000X0*%
%ADD29RoundRect,0.051000X-0.704000X0.704000X-0.704000X-0.704000X0.704000X-0.704000X0.704000X0.704000X0*%
%ADD30C,1.510000*%
%ADD31C,1.602000*%
%ADD32RoundRect,0.051000X0.800000X-0.800000X0.800000X0.800000X-0.800000X0.800000X-0.800000X-0.800000X0*%
%ADD33C,4.102000*%
%ADD34RoundRect,0.051000X0.850000X0.850000X-0.850000X0.850000X-0.850000X-0.850000X0.850000X-0.850000X0*%
G04 APERTURE END LIST*
D10*
X164182142Y-197353571D02*
X164182142Y-195853571D01*
X163610714Y-195853571D01*
X163467857Y-195925000D01*
X163396428Y-195996428D01*
X163325000Y-196139285D01*
X163325000Y-196353571D01*
X163396428Y-196496428D01*
X163467857Y-196567857D01*
X163610714Y-196639285D01*
X164182142Y-196639285D01*
X161825000Y-197353571D02*
X162325000Y-196639285D01*
X162682142Y-197353571D02*
X162682142Y-195853571D01*
X162110714Y-195853571D01*
X161967857Y-195925000D01*
X161896428Y-195996428D01*
X161825000Y-196139285D01*
X161825000Y-196353571D01*
X161896428Y-196496428D01*
X161967857Y-196567857D01*
X162110714Y-196639285D01*
X162682142Y-196639285D01*
X160896428Y-195853571D02*
X160610714Y-195853571D01*
X160467857Y-195925000D01*
X160325000Y-196067857D01*
X160253571Y-196353571D01*
X160253571Y-196853571D01*
X160325000Y-197139285D01*
X160467857Y-197282142D01*
X160610714Y-197353571D01*
X160896428Y-197353571D01*
X161039285Y-197282142D01*
X161182142Y-197139285D01*
X161253571Y-196853571D01*
X161253571Y-196353571D01*
X161182142Y-196067857D01*
X161039285Y-195925000D01*
X160896428Y-195853571D01*
X159682142Y-197282142D02*
X159467857Y-197353571D01*
X159110714Y-197353571D01*
X158967857Y-197282142D01*
X158896428Y-197210714D01*
X158825000Y-197067857D01*
X158825000Y-196925000D01*
X158896428Y-196782142D01*
X158967857Y-196710714D01*
X159110714Y-196639285D01*
X159396428Y-196567857D01*
X159539285Y-196496428D01*
X159610714Y-196425000D01*
X159682142Y-196282142D01*
X159682142Y-196139285D01*
X159610714Y-195996428D01*
X159539285Y-195925000D01*
X159396428Y-195853571D01*
X159039285Y-195853571D01*
X158825000Y-195925000D01*
X157467857Y-197353571D02*
X158182142Y-197353571D01*
X158182142Y-195853571D01*
X156967857Y-197353571D02*
X156967857Y-195853571D01*
X155396428Y-197210714D02*
X155467857Y-197282142D01*
X155682142Y-197353571D01*
X155825000Y-197353571D01*
X156039285Y-197282142D01*
X156182142Y-197139285D01*
X156253571Y-196996428D01*
X156325000Y-196710714D01*
X156325000Y-196496428D01*
X156253571Y-196210714D01*
X156182142Y-196067857D01*
X156039285Y-195925000D01*
X155825000Y-195853571D01*
X155682142Y-195853571D01*
X155467857Y-195925000D01*
X155396428Y-195996428D01*
X153610714Y-197353571D02*
X153610714Y-195853571D01*
X153039285Y-195853571D01*
X152896428Y-195925000D01*
X152825000Y-195996428D01*
X152753571Y-196139285D01*
X152753571Y-196353571D01*
X152825000Y-196496428D01*
X152896428Y-196567857D01*
X153039285Y-196639285D01*
X153610714Y-196639285D01*
X151253571Y-197210714D02*
X151325000Y-197282142D01*
X151539285Y-197353571D01*
X151682142Y-197353571D01*
X151896428Y-197282142D01*
X152039285Y-197139285D01*
X152110714Y-196996428D01*
X152182142Y-196710714D01*
X152182142Y-196496428D01*
X152110714Y-196210714D01*
X152039285Y-196067857D01*
X151896428Y-195925000D01*
X151682142Y-195853571D01*
X151539285Y-195853571D01*
X151325000Y-195925000D01*
X151253571Y-195996428D01*
X150110714Y-196567857D02*
X149896428Y-196639285D01*
X149825000Y-196710714D01*
X149753571Y-196853571D01*
X149753571Y-197067857D01*
X149825000Y-197210714D01*
X149896428Y-197282142D01*
X150039285Y-197353571D01*
X150610714Y-197353571D01*
X150610714Y-195853571D01*
X150110714Y-195853571D01*
X149967857Y-195925000D01*
X149896428Y-195996428D01*
X149825000Y-196139285D01*
X149825000Y-196282142D01*
X149896428Y-196425000D01*
X149967857Y-196496428D01*
X150110714Y-196567857D01*
X150610714Y-196567857D01*
X148110714Y-196353571D02*
X147753571Y-197353571D01*
X147396428Y-196353571D01*
X146039285Y-197353571D02*
X146896428Y-197353571D01*
X146467857Y-197353571D02*
X146467857Y-195853571D01*
X146610714Y-196067857D01*
X146753571Y-196210714D01*
X146896428Y-196282142D01*
X145396428Y-197210714D02*
X145325000Y-197282142D01*
X145396428Y-197353571D01*
X145467857Y-197282142D01*
X145396428Y-197210714D01*
X145396428Y-197353571D01*
X144396428Y-195853571D02*
X144253571Y-195853571D01*
X144110714Y-195925000D01*
X144039285Y-195996428D01*
X143967857Y-196139285D01*
X143896428Y-196425000D01*
X143896428Y-196782142D01*
X143967857Y-197067857D01*
X144039285Y-197210714D01*
X144110714Y-197282142D01*
X144253571Y-197353571D01*
X144396428Y-197353571D01*
X144539285Y-197282142D01*
X144610714Y-197210714D01*
X144682142Y-197067857D01*
X144753571Y-196782142D01*
X144753571Y-196425000D01*
X144682142Y-196139285D01*
X144610714Y-195996428D01*
X144539285Y-195925000D01*
X144396428Y-195853571D01*
G36*
X129875000Y-194125000D02*
G01*
X109375000Y-194125000D01*
X109375000Y-188625000D01*
X129875000Y-188625000D01*
X129875000Y-194125000D01*
G37*
D11*
X129875000Y-194125000D02*
X109375000Y-194125000D01*
X109375000Y-188625000D01*
X129875000Y-188625000D01*
X129875000Y-194125000D01*
G36*
X105825000Y-189625000D02*
G01*
X97825000Y-189625000D01*
X97825000Y-186125000D01*
X105825000Y-186125000D01*
X105825000Y-189625000D01*
G37*
D10*
X164182142Y-197353571D02*
X164182142Y-195853571D01*
X163610714Y-195853571D01*
X163467857Y-195925000D01*
X163396428Y-195996428D01*
X163325000Y-196139285D01*
X163325000Y-196353571D01*
X163396428Y-196496428D01*
X163467857Y-196567857D01*
X163610714Y-196639285D01*
X164182142Y-196639285D01*
X161825000Y-197353571D02*
X162325000Y-196639285D01*
X162682142Y-197353571D02*
X162682142Y-195853571D01*
X162110714Y-195853571D01*
X161967857Y-195925000D01*
X161896428Y-195996428D01*
X161825000Y-196139285D01*
X161825000Y-196353571D01*
X161896428Y-196496428D01*
X161967857Y-196567857D01*
X162110714Y-196639285D01*
X162682142Y-196639285D01*
X160896428Y-195853571D02*
X160610714Y-195853571D01*
X160467857Y-195925000D01*
X160325000Y-196067857D01*
X160253571Y-196353571D01*
X160253571Y-196853571D01*
X160325000Y-197139285D01*
X160467857Y-197282142D01*
X160610714Y-197353571D01*
X160896428Y-197353571D01*
X161039285Y-197282142D01*
X161182142Y-197139285D01*
X161253571Y-196853571D01*
X161253571Y-196353571D01*
X161182142Y-196067857D01*
X161039285Y-195925000D01*
X160896428Y-195853571D01*
X159682142Y-197282142D02*
X159467857Y-197353571D01*
X159110714Y-197353571D01*
X158967857Y-197282142D01*
X158896428Y-197210714D01*
X158825000Y-197067857D01*
X158825000Y-196925000D01*
X158896428Y-196782142D01*
X158967857Y-196710714D01*
X159110714Y-196639285D01*
X159396428Y-196567857D01*
X159539285Y-196496428D01*
X159610714Y-196425000D01*
X159682142Y-196282142D01*
X159682142Y-196139285D01*
X159610714Y-195996428D01*
X159539285Y-195925000D01*
X159396428Y-195853571D01*
X159039285Y-195853571D01*
X158825000Y-195925000D01*
X157467857Y-197353571D02*
X158182142Y-197353571D01*
X158182142Y-195853571D01*
X156967857Y-197353571D02*
X156967857Y-195853571D01*
X155396428Y-197210714D02*
X155467857Y-197282142D01*
X155682142Y-197353571D01*
X155825000Y-197353571D01*
X156039285Y-197282142D01*
X156182142Y-197139285D01*
X156253571Y-196996428D01*
X156325000Y-196710714D01*
X156325000Y-196496428D01*
X156253571Y-196210714D01*
X156182142Y-196067857D01*
X156039285Y-195925000D01*
X155825000Y-195853571D01*
X155682142Y-195853571D01*
X155467857Y-195925000D01*
X155396428Y-195996428D01*
X153610714Y-197353571D02*
X153610714Y-195853571D01*
X153039285Y-195853571D01*
X152896428Y-195925000D01*
X152825000Y-195996428D01*
X152753571Y-196139285D01*
X152753571Y-196353571D01*
X152825000Y-196496428D01*
X152896428Y-196567857D01*
X153039285Y-196639285D01*
X153610714Y-196639285D01*
X151253571Y-197210714D02*
X151325000Y-197282142D01*
X151539285Y-197353571D01*
X151682142Y-197353571D01*
X151896428Y-197282142D01*
X152039285Y-197139285D01*
X152110714Y-196996428D01*
X152182142Y-196710714D01*
X152182142Y-196496428D01*
X152110714Y-196210714D01*
X152039285Y-196067857D01*
X151896428Y-195925000D01*
X151682142Y-195853571D01*
X151539285Y-195853571D01*
X151325000Y-195925000D01*
X151253571Y-195996428D01*
X150110714Y-196567857D02*
X149896428Y-196639285D01*
X149825000Y-196710714D01*
X149753571Y-196853571D01*
X149753571Y-197067857D01*
X149825000Y-197210714D01*
X149896428Y-197282142D01*
X150039285Y-197353571D01*
X150610714Y-197353571D01*
X150610714Y-195853571D01*
X150110714Y-195853571D01*
X149967857Y-195925000D01*
X149896428Y-195996428D01*
X149825000Y-196139285D01*
X149825000Y-196282142D01*
X149896428Y-196425000D01*
X149967857Y-196496428D01*
X150110714Y-196567857D01*
X150610714Y-196567857D01*
X148110714Y-196353571D02*
X147753571Y-197353571D01*
X147396428Y-196353571D01*
X146039285Y-197353571D02*
X146896428Y-197353571D01*
X146467857Y-197353571D02*
X146467857Y-195853571D01*
X146610714Y-196067857D01*
X146753571Y-196210714D01*
X146896428Y-196282142D01*
X145396428Y-197210714D02*
X145325000Y-197282142D01*
X145396428Y-197353571D01*
X145467857Y-197282142D01*
X145396428Y-197210714D01*
X145396428Y-197353571D01*
X144396428Y-195853571D02*
X144253571Y-195853571D01*
X144110714Y-195925000D01*
X144039285Y-195996428D01*
X143967857Y-196139285D01*
X143896428Y-196425000D01*
X143896428Y-196782142D01*
X143967857Y-197067857D01*
X144039285Y-197210714D01*
X144110714Y-197282142D01*
X144253571Y-197353571D01*
X144396428Y-197353571D01*
X144539285Y-197282142D01*
X144610714Y-197210714D01*
X144682142Y-197067857D01*
X144753571Y-196782142D01*
X144753571Y-196425000D01*
X144682142Y-196139285D01*
X144610714Y-195996428D01*
X144539285Y-195925000D01*
X144396428Y-195853571D01*
G36*
X129875000Y-194125000D02*
G01*
X109375000Y-194125000D01*
X109375000Y-188625000D01*
X129875000Y-188625000D01*
X129875000Y-194125000D01*
G37*
D11*
X129875000Y-194125000D02*
X109375000Y-194125000D01*
X109375000Y-188625000D01*
X129875000Y-188625000D01*
X129875000Y-194125000D01*
G36*
X105825000Y-189625000D02*
G01*
X97825000Y-189625000D01*
X97825000Y-186125000D01*
X105825000Y-186125000D01*
X105825000Y-189625000D01*
G37*
D12*
X71975000Y-147300000D03*
X71975000Y-185500000D03*
D13*
X124912500Y-180625000D03*
X123337500Y-180625000D03*
D14*
X126337500Y-180625000D03*
X127912500Y-180625000D03*
D15*
X110800000Y-147640000D03*
D16*
X113340000Y-147640000D03*
X110800000Y-150180000D03*
X113340000Y-150180000D03*
X110800000Y-152720000D03*
X113340000Y-152720000D03*
X110800000Y-155260000D03*
X113340000Y-155260000D03*
D17*
X110800000Y-157800000D03*
D16*
X113340000Y-157800000D03*
D18*
X87275000Y-151475000D03*
X85375000Y-151475000D03*
X83275000Y-151475000D03*
X81375000Y-151475000D03*
X85375000Y-167275000D03*
X87275000Y-167275000D03*
X81375000Y-167275000D03*
X83275000Y-167275000D03*
D19*
X39612500Y-173075000D03*
X41437500Y-173075000D03*
X39612500Y-171025000D03*
X41437500Y-171025000D03*
X39625000Y-188875000D03*
X41450000Y-188875000D03*
X39612500Y-186825000D03*
X41437500Y-186825000D03*
D20*
X97675000Y-158175000D03*
D21*
X97675000Y-155675000D03*
D20*
X97675000Y-150975000D03*
D21*
X97675000Y-148475000D03*
X105075000Y-148475000D03*
D20*
X105075000Y-150975000D03*
D21*
X105075000Y-155675000D03*
D20*
X105075000Y-158175000D03*
D22*
X100425000Y-170475000D03*
D23*
X96675000Y-164805000D03*
X97175000Y-164805000D03*
X97675000Y-164805000D03*
X98175000Y-164805000D03*
X98675000Y-164805000D03*
X99175000Y-164805000D03*
X99675000Y-164805000D03*
X100175000Y-164805000D03*
X100675000Y-164805000D03*
X101175000Y-164805000D03*
X101675000Y-164805000D03*
X102175000Y-164805000D03*
X102675000Y-164805000D03*
X103175000Y-164805000D03*
X103675000Y-164805000D03*
X104175000Y-164805000D03*
D24*
X106095000Y-166725000D03*
X106095000Y-167225000D03*
X106095000Y-167725000D03*
X106095000Y-168225000D03*
X106095000Y-168725000D03*
X106095000Y-169225000D03*
X106095000Y-169725000D03*
X106095000Y-170225000D03*
X106095000Y-170725000D03*
X106095000Y-171225000D03*
X106095000Y-171725000D03*
X106095000Y-172225000D03*
X106095000Y-172725000D03*
X106095000Y-173225000D03*
X106095000Y-173725000D03*
X106095000Y-174225000D03*
D23*
X104175000Y-176145000D03*
X103675000Y-176145000D03*
X103175000Y-176145000D03*
X102675000Y-176145000D03*
X102175000Y-176145000D03*
X101675000Y-176145000D03*
X101175000Y-176145000D03*
X100675000Y-176145000D03*
X100175000Y-176145000D03*
X99675000Y-176145000D03*
X99175000Y-176145000D03*
X98675000Y-176145000D03*
X98175000Y-176145000D03*
X97675000Y-176145000D03*
X97175000Y-176145000D03*
X96675000Y-176145000D03*
D24*
X94755000Y-174225000D03*
X94755000Y-173725000D03*
X94755000Y-173225000D03*
X94755000Y-172725000D03*
X94755000Y-172225000D03*
X94755000Y-171725000D03*
X94755000Y-171225000D03*
X94755000Y-170725000D03*
X94755000Y-170225000D03*
X94755000Y-169725000D03*
X94755000Y-169225000D03*
X94755000Y-168725000D03*
X94755000Y-168225000D03*
X94755000Y-167725000D03*
X94755000Y-167225000D03*
X94755000Y-166725000D03*
D25*
X112425000Y-167745000D03*
X113225000Y-167745000D03*
X114025000Y-167745000D03*
X114825000Y-167745000D03*
X115625000Y-167745000D03*
X116425000Y-167745000D03*
X117225000Y-167745000D03*
X118025000Y-167745000D03*
D26*
X119405000Y-169125000D03*
X119405000Y-169925000D03*
X119405000Y-170725000D03*
X119405000Y-171525000D03*
X119405000Y-172325000D03*
X119405000Y-173125000D03*
X119405000Y-173925000D03*
X119405000Y-174725000D03*
D25*
X118025000Y-176105000D03*
X117225000Y-176105000D03*
X116425000Y-176105000D03*
X115625000Y-176105000D03*
X114825000Y-176105000D03*
X114025000Y-176105000D03*
X113225000Y-176105000D03*
X112425000Y-176105000D03*
D26*
X111045000Y-174725000D03*
X111045000Y-173925000D03*
X111045000Y-173125000D03*
X111045000Y-172325000D03*
X111045000Y-171525000D03*
X111045000Y-170725000D03*
X111045000Y-169925000D03*
X111045000Y-169125000D03*
D27*
X84325000Y-157875000D03*
D28*
X86800000Y-153430000D03*
X86800000Y-154700000D03*
X86800000Y-155970000D03*
X86800000Y-157240000D03*
X86800000Y-158510000D03*
X86800000Y-159780000D03*
X86800000Y-161050000D03*
X86800000Y-162320000D03*
X81850000Y-162320000D03*
X81850000Y-161050000D03*
X81850000Y-159780000D03*
X81850000Y-158510000D03*
X81850000Y-157240000D03*
X81850000Y-155970000D03*
X81850000Y-154700000D03*
X81850000Y-153430000D03*
X81855000Y-169315000D03*
X81855000Y-170585000D03*
X81855000Y-171855000D03*
X81855000Y-173125000D03*
X81855000Y-174395000D03*
X81855000Y-175665000D03*
X81855000Y-176935000D03*
X81855000Y-178205000D03*
X86805000Y-178205000D03*
X86805000Y-176935000D03*
X86805000Y-175665000D03*
X86805000Y-174395000D03*
X86805000Y-173125000D03*
X86805000Y-171855000D03*
X86805000Y-170585000D03*
X86805000Y-169315000D03*
D27*
X84330000Y-173760000D03*
D28*
X114195000Y-161320000D03*
X114195000Y-162590000D03*
X114195000Y-163860000D03*
X114195000Y-165130000D03*
X109255000Y-165130000D03*
X109255000Y-163860000D03*
X109255000Y-162590000D03*
X109255000Y-161320000D03*
D12*
X69425000Y-154145000D03*
X69425000Y-167285000D03*
X69425000Y-177445000D03*
D29*
X78315000Y-156050000D03*
X78315000Y-169050000D03*
D30*
X75775000Y-170320000D03*
X75775000Y-157320000D03*
X78315000Y-158590000D03*
X78315000Y-171590000D03*
X75775000Y-159860000D03*
X75775000Y-172860000D03*
X78315000Y-174130000D03*
X78315000Y-161130000D03*
X75775000Y-162400000D03*
X75775000Y-175400000D03*
D31*
X126625000Y-172125000D03*
X126625000Y-167245000D03*
D32*
X117437500Y-152275000D03*
D20*
X117437500Y-154775000D03*
X119437500Y-154775000D03*
X119437500Y-152275000D03*
D33*
X122297500Y-147525000D03*
X122297500Y-159525000D03*
D34*
X120450000Y-164075000D03*
D16*
X117910000Y-164075000D03*
G36*
X100352379Y-175380773D02*
G01*
X100356425Y-175383476D01*
X100422789Y-175404256D01*
X100493588Y-175383467D01*
X100497621Y-175380773D01*
X100499617Y-175380642D01*
X100500728Y-175382305D01*
X100500395Y-175383547D01*
X100490620Y-175398176D01*
X100486000Y-175421399D01*
X100486000Y-176868601D01*
X100490620Y-176891824D01*
X100500395Y-176906453D01*
X100500526Y-176908449D01*
X100498863Y-176909560D01*
X100497621Y-176909227D01*
X100493575Y-176906524D01*
X100427211Y-176885744D01*
X100356412Y-176906533D01*
X100352379Y-176909227D01*
X100350383Y-176909358D01*
X100349272Y-176907695D01*
X100349605Y-176906453D01*
X100359380Y-176891824D01*
X100364000Y-176868601D01*
X100364000Y-175421399D01*
X100359380Y-175398176D01*
X100349605Y-175383547D01*
X100349474Y-175381551D01*
X100351137Y-175380440D01*
X100352379Y-175380773D01*
G37*
G36*
X96852379Y-175380773D02*
G01*
X96856425Y-175383476D01*
X96922789Y-175404256D01*
X96993588Y-175383467D01*
X96997621Y-175380773D01*
X96999617Y-175380642D01*
X97000728Y-175382305D01*
X97000395Y-175383547D01*
X96990620Y-175398176D01*
X96986000Y-175421399D01*
X96986000Y-176868601D01*
X96990620Y-176891824D01*
X97000395Y-176906453D01*
X97000526Y-176908449D01*
X96998863Y-176909560D01*
X96997621Y-176909227D01*
X96993575Y-176906524D01*
X96927211Y-176885744D01*
X96856412Y-176906533D01*
X96852379Y-176909227D01*
X96850383Y-176909358D01*
X96849272Y-176907695D01*
X96849605Y-176906453D01*
X96859380Y-176891824D01*
X96864000Y-176868601D01*
X96864000Y-175421399D01*
X96859380Y-175398176D01*
X96849605Y-175383547D01*
X96849474Y-175381551D01*
X96851137Y-175380440D01*
X96852379Y-175380773D01*
G37*
G36*
X103352379Y-175380773D02*
G01*
X103356425Y-175383476D01*
X103422789Y-175404256D01*
X103493588Y-175383467D01*
X103497621Y-175380773D01*
X103499617Y-175380642D01*
X103500728Y-175382305D01*
X103500395Y-175383547D01*
X103490620Y-175398176D01*
X103486000Y-175421399D01*
X103486000Y-176868601D01*
X103490620Y-176891824D01*
X103500395Y-176906453D01*
X103500526Y-176908449D01*
X103498863Y-176909560D01*
X103497621Y-176909227D01*
X103493575Y-176906524D01*
X103427211Y-176885744D01*
X103356412Y-176906533D01*
X103352379Y-176909227D01*
X103350383Y-176909358D01*
X103349272Y-176907695D01*
X103349605Y-176906453D01*
X103359380Y-176891824D01*
X103364000Y-176868601D01*
X103364000Y-175421399D01*
X103359380Y-175398176D01*
X103349605Y-175383547D01*
X103349474Y-175381551D01*
X103351137Y-175380440D01*
X103352379Y-175380773D01*
G37*
G36*
X97352379Y-175380773D02*
G01*
X97356425Y-175383476D01*
X97422789Y-175404256D01*
X97493588Y-175383467D01*
X97497621Y-175380773D01*
X97499617Y-175380642D01*
X97500728Y-175382305D01*
X97500395Y-175383547D01*
X97490620Y-175398176D01*
X97486000Y-175421399D01*
X97486000Y-176868601D01*
X97490620Y-176891824D01*
X97500395Y-176906453D01*
X97500526Y-176908449D01*
X97498863Y-176909560D01*
X97497621Y-176909227D01*
X97493575Y-176906524D01*
X97427211Y-176885744D01*
X97356412Y-176906533D01*
X97352379Y-176909227D01*
X97350383Y-176909358D01*
X97349272Y-176907695D01*
X97349605Y-176906453D01*
X97359380Y-176891824D01*
X97364000Y-176868601D01*
X97364000Y-175421399D01*
X97359380Y-175398176D01*
X97349605Y-175383547D01*
X97349474Y-175381551D01*
X97351137Y-175380440D01*
X97352379Y-175380773D01*
G37*
G36*
X99852379Y-175380773D02*
G01*
X99856425Y-175383476D01*
X99922789Y-175404256D01*
X99993588Y-175383467D01*
X99997621Y-175380773D01*
X99999617Y-175380642D01*
X100000728Y-175382305D01*
X100000395Y-175383547D01*
X99990620Y-175398176D01*
X99986000Y-175421399D01*
X99986000Y-176868601D01*
X99990620Y-176891824D01*
X100000395Y-176906453D01*
X100000526Y-176908449D01*
X99998863Y-176909560D01*
X99997621Y-176909227D01*
X99993575Y-176906524D01*
X99927211Y-176885744D01*
X99856412Y-176906533D01*
X99852379Y-176909227D01*
X99850383Y-176909358D01*
X99849272Y-176907695D01*
X99849605Y-176906453D01*
X99859380Y-176891824D01*
X99864000Y-176868601D01*
X99864000Y-175421399D01*
X99859380Y-175398176D01*
X99849605Y-175383547D01*
X99849474Y-175381551D01*
X99851137Y-175380440D01*
X99852379Y-175380773D01*
G37*
G36*
X102352379Y-175380773D02*
G01*
X102356425Y-175383476D01*
X102422789Y-175404256D01*
X102493588Y-175383467D01*
X102497621Y-175380773D01*
X102499617Y-175380642D01*
X102500728Y-175382305D01*
X102500395Y-175383547D01*
X102490620Y-175398176D01*
X102486000Y-175421399D01*
X102486000Y-176868601D01*
X102490620Y-176891824D01*
X102500395Y-176906453D01*
X102500526Y-176908449D01*
X102498863Y-176909560D01*
X102497621Y-176909227D01*
X102493575Y-176906524D01*
X102427211Y-176885744D01*
X102356412Y-176906533D01*
X102352379Y-176909227D01*
X102350383Y-176909358D01*
X102349272Y-176907695D01*
X102349605Y-176906453D01*
X102359380Y-176891824D01*
X102364000Y-176868601D01*
X102364000Y-175421399D01*
X102359380Y-175398176D01*
X102349605Y-175383547D01*
X102349474Y-175381551D01*
X102351137Y-175380440D01*
X102352379Y-175380773D01*
G37*
G36*
X97852379Y-175380773D02*
G01*
X97856425Y-175383476D01*
X97922789Y-175404256D01*
X97993588Y-175383467D01*
X97997621Y-175380773D01*
X97999617Y-175380642D01*
X98000728Y-175382305D01*
X98000395Y-175383547D01*
X97990620Y-175398176D01*
X97986000Y-175421399D01*
X97986000Y-176868601D01*
X97990620Y-176891824D01*
X98000395Y-176906453D01*
X98000526Y-176908449D01*
X97998863Y-176909560D01*
X97997621Y-176909227D01*
X97993575Y-176906524D01*
X97927211Y-176885744D01*
X97856412Y-176906533D01*
X97852379Y-176909227D01*
X97850383Y-176909358D01*
X97849272Y-176907695D01*
X97849605Y-176906453D01*
X97859380Y-176891824D01*
X97864000Y-176868601D01*
X97864000Y-175421399D01*
X97859380Y-175398176D01*
X97849605Y-175383547D01*
X97849474Y-175381551D01*
X97851137Y-175380440D01*
X97852379Y-175380773D01*
G37*
G36*
X99352379Y-175380773D02*
G01*
X99356425Y-175383476D01*
X99422789Y-175404256D01*
X99493588Y-175383467D01*
X99497621Y-175380773D01*
X99499617Y-175380642D01*
X99500728Y-175382305D01*
X99500395Y-175383547D01*
X99490620Y-175398176D01*
X99486000Y-175421399D01*
X99486000Y-176868601D01*
X99490620Y-176891824D01*
X99500395Y-176906453D01*
X99500526Y-176908449D01*
X99498863Y-176909560D01*
X99497621Y-176909227D01*
X99493575Y-176906524D01*
X99427211Y-176885744D01*
X99356412Y-176906533D01*
X99352379Y-176909227D01*
X99350383Y-176909358D01*
X99349272Y-176907695D01*
X99349605Y-176906453D01*
X99359380Y-176891824D01*
X99364000Y-176868601D01*
X99364000Y-175421399D01*
X99359380Y-175398176D01*
X99349605Y-175383547D01*
X99349474Y-175381551D01*
X99351137Y-175380440D01*
X99352379Y-175380773D01*
G37*
G36*
X101852379Y-175380773D02*
G01*
X101856425Y-175383476D01*
X101922789Y-175404256D01*
X101993588Y-175383467D01*
X101997621Y-175380773D01*
X101999617Y-175380642D01*
X102000728Y-175382305D01*
X102000395Y-175383547D01*
X101990620Y-175398176D01*
X101986000Y-175421399D01*
X101986000Y-176868601D01*
X101990620Y-176891824D01*
X102000395Y-176906453D01*
X102000526Y-176908449D01*
X101998863Y-176909560D01*
X101997621Y-176909227D01*
X101993575Y-176906524D01*
X101927211Y-176885744D01*
X101856412Y-176906533D01*
X101852379Y-176909227D01*
X101850383Y-176909358D01*
X101849272Y-176907695D01*
X101849605Y-176906453D01*
X101859380Y-176891824D01*
X101864000Y-176868601D01*
X101864000Y-175421399D01*
X101859380Y-175398176D01*
X101849605Y-175383547D01*
X101849474Y-175381551D01*
X101851137Y-175380440D01*
X101852379Y-175380773D01*
G37*
G36*
X103852379Y-175380773D02*
G01*
X103856425Y-175383476D01*
X103922789Y-175404256D01*
X103993588Y-175383467D01*
X103997621Y-175380773D01*
X103999617Y-175380642D01*
X104000728Y-175382305D01*
X104000395Y-175383547D01*
X103990620Y-175398176D01*
X103986000Y-175421399D01*
X103986000Y-176868601D01*
X103990620Y-176891824D01*
X104000395Y-176906453D01*
X104000526Y-176908449D01*
X103998863Y-176909560D01*
X103997621Y-176909227D01*
X103993575Y-176906524D01*
X103927211Y-176885744D01*
X103856412Y-176906533D01*
X103852379Y-176909227D01*
X103850383Y-176909358D01*
X103849272Y-176907695D01*
X103849605Y-176906453D01*
X103859380Y-176891824D01*
X103864000Y-176868601D01*
X103864000Y-175421399D01*
X103859380Y-175398176D01*
X103849605Y-175383547D01*
X103849474Y-175381551D01*
X103851137Y-175380440D01*
X103852379Y-175380773D01*
G37*
G36*
X98352379Y-175380773D02*
G01*
X98356425Y-175383476D01*
X98422789Y-175404256D01*
X98493588Y-175383467D01*
X98497621Y-175380773D01*
X98499617Y-175380642D01*
X98500728Y-175382305D01*
X98500395Y-175383547D01*
X98490620Y-175398176D01*
X98486000Y-175421399D01*
X98486000Y-176868601D01*
X98490620Y-176891824D01*
X98500395Y-176906453D01*
X98500526Y-176908449D01*
X98498863Y-176909560D01*
X98497621Y-176909227D01*
X98493575Y-176906524D01*
X98427211Y-176885744D01*
X98356412Y-176906533D01*
X98352379Y-176909227D01*
X98350383Y-176909358D01*
X98349272Y-176907695D01*
X98349605Y-176906453D01*
X98359380Y-176891824D01*
X98364000Y-176868601D01*
X98364000Y-175421399D01*
X98359380Y-175398176D01*
X98349605Y-175383547D01*
X98349474Y-175381551D01*
X98351137Y-175380440D01*
X98352379Y-175380773D01*
G37*
G36*
X101352379Y-175380773D02*
G01*
X101356425Y-175383476D01*
X101422789Y-175404256D01*
X101493588Y-175383467D01*
X101497621Y-175380773D01*
X101499617Y-175380642D01*
X101500728Y-175382305D01*
X101500395Y-175383547D01*
X101490620Y-175398176D01*
X101486000Y-175421399D01*
X101486000Y-176868601D01*
X101490620Y-176891824D01*
X101500395Y-176906453D01*
X101500526Y-176908449D01*
X101498863Y-176909560D01*
X101497621Y-176909227D01*
X101493575Y-176906524D01*
X101427211Y-176885744D01*
X101356412Y-176906533D01*
X101352379Y-176909227D01*
X101350383Y-176909358D01*
X101349272Y-176907695D01*
X101349605Y-176906453D01*
X101359380Y-176891824D01*
X101364000Y-176868601D01*
X101364000Y-175421399D01*
X101359380Y-175398176D01*
X101349605Y-175383547D01*
X101349474Y-175381551D01*
X101351137Y-175380440D01*
X101352379Y-175380773D01*
G37*
G36*
X100852379Y-175380773D02*
G01*
X100856425Y-175383476D01*
X100922789Y-175404256D01*
X100993588Y-175383467D01*
X100997621Y-175380773D01*
X100999617Y-175380642D01*
X101000728Y-175382305D01*
X101000395Y-175383547D01*
X100990620Y-175398176D01*
X100986000Y-175421399D01*
X100986000Y-176868601D01*
X100990620Y-176891824D01*
X101000395Y-176906453D01*
X101000526Y-176908449D01*
X100998863Y-176909560D01*
X100997621Y-176909227D01*
X100993575Y-176906524D01*
X100927211Y-176885744D01*
X100856412Y-176906533D01*
X100852379Y-176909227D01*
X100850383Y-176909358D01*
X100849272Y-176907695D01*
X100849605Y-176906453D01*
X100859380Y-176891824D01*
X100864000Y-176868601D01*
X100864000Y-175421399D01*
X100859380Y-175398176D01*
X100849605Y-175383547D01*
X100849474Y-175381551D01*
X100851137Y-175380440D01*
X100852379Y-175380773D01*
G37*
G36*
X102852379Y-175380773D02*
G01*
X102856425Y-175383476D01*
X102922789Y-175404256D01*
X102993588Y-175383467D01*
X102997621Y-175380773D01*
X102999617Y-175380642D01*
X103000728Y-175382305D01*
X103000395Y-175383547D01*
X102990620Y-175398176D01*
X102986000Y-175421399D01*
X102986000Y-176868601D01*
X102990620Y-176891824D01*
X103000395Y-176906453D01*
X103000526Y-176908449D01*
X102998863Y-176909560D01*
X102997621Y-176909227D01*
X102993575Y-176906524D01*
X102927211Y-176885744D01*
X102856412Y-176906533D01*
X102852379Y-176909227D01*
X102850383Y-176909358D01*
X102849272Y-176907695D01*
X102849605Y-176906453D01*
X102859380Y-176891824D01*
X102864000Y-176868601D01*
X102864000Y-175421399D01*
X102859380Y-175398176D01*
X102849605Y-175383547D01*
X102849474Y-175381551D01*
X102851137Y-175380440D01*
X102852379Y-175380773D01*
G37*
G36*
X98852379Y-175380773D02*
G01*
X98856425Y-175383476D01*
X98922789Y-175404256D01*
X98993588Y-175383467D01*
X98997621Y-175380773D01*
X98999617Y-175380642D01*
X99000728Y-175382305D01*
X99000395Y-175383547D01*
X98990620Y-175398176D01*
X98986000Y-175421399D01*
X98986000Y-176868601D01*
X98990620Y-176891824D01*
X99000395Y-176906453D01*
X99000526Y-176908449D01*
X98998863Y-176909560D01*
X98997621Y-176909227D01*
X98993575Y-176906524D01*
X98927211Y-176885744D01*
X98856412Y-176906533D01*
X98852379Y-176909227D01*
X98850383Y-176909358D01*
X98849272Y-176907695D01*
X98849605Y-176906453D01*
X98859380Y-176891824D01*
X98864000Y-176868601D01*
X98864000Y-175421399D01*
X98859380Y-175398176D01*
X98849605Y-175383547D01*
X98849474Y-175381551D01*
X98851137Y-175380440D01*
X98852379Y-175380773D01*
G37*
G36*
X113528891Y-175309874D02*
G01*
X113575945Y-175349197D01*
X113644661Y-175357828D01*
X113707291Y-175327864D01*
X113714802Y-175319196D01*
X113716692Y-175318542D01*
X113718203Y-175319852D01*
X113717976Y-175321617D01*
X113712644Y-175329597D01*
X113706000Y-175362999D01*
X113706000Y-176847001D01*
X113712644Y-176880403D01*
X113724055Y-176897480D01*
X113724186Y-176899476D01*
X113722523Y-176900587D01*
X113721109Y-176900126D01*
X113674055Y-176860803D01*
X113605339Y-176852172D01*
X113542709Y-176882136D01*
X113535198Y-176890804D01*
X113533308Y-176891458D01*
X113531797Y-176890148D01*
X113532024Y-176888383D01*
X113537356Y-176880403D01*
X113544000Y-176847001D01*
X113544000Y-175362999D01*
X113537356Y-175329597D01*
X113525945Y-175312520D01*
X113525814Y-175310524D01*
X113527477Y-175309413D01*
X113528891Y-175309874D01*
G37*
G36*
X115128891Y-175309874D02*
G01*
X115175945Y-175349197D01*
X115244661Y-175357828D01*
X115307291Y-175327864D01*
X115314802Y-175319196D01*
X115316692Y-175318542D01*
X115318203Y-175319852D01*
X115317976Y-175321617D01*
X115312644Y-175329597D01*
X115306000Y-175362999D01*
X115306000Y-176847001D01*
X115312644Y-176880403D01*
X115324055Y-176897480D01*
X115324186Y-176899476D01*
X115322523Y-176900587D01*
X115321109Y-176900126D01*
X115274055Y-176860803D01*
X115205339Y-176852172D01*
X115142709Y-176882136D01*
X115135198Y-176890804D01*
X115133308Y-176891458D01*
X115131797Y-176890148D01*
X115132024Y-176888383D01*
X115137356Y-176880403D01*
X115144000Y-176847001D01*
X115144000Y-175362999D01*
X115137356Y-175329597D01*
X115125945Y-175312520D01*
X115125814Y-175310524D01*
X115127477Y-175309413D01*
X115128891Y-175309874D01*
G37*
G36*
X116728891Y-175309874D02*
G01*
X116775945Y-175349197D01*
X116844661Y-175357828D01*
X116907291Y-175327864D01*
X116914802Y-175319196D01*
X116916692Y-175318542D01*
X116918203Y-175319852D01*
X116917976Y-175321617D01*
X116912644Y-175329597D01*
X116906000Y-175362999D01*
X116906000Y-176847001D01*
X116912644Y-176880403D01*
X116924055Y-176897480D01*
X116924186Y-176899476D01*
X116922523Y-176900587D01*
X116921109Y-176900126D01*
X116874055Y-176860803D01*
X116805339Y-176852172D01*
X116742709Y-176882136D01*
X116735198Y-176890804D01*
X116733308Y-176891458D01*
X116731797Y-176890148D01*
X116732024Y-176888383D01*
X116737356Y-176880403D01*
X116744000Y-176847001D01*
X116744000Y-175362999D01*
X116737356Y-175329597D01*
X116725945Y-175312520D01*
X116725814Y-175310524D01*
X116727477Y-175309413D01*
X116728891Y-175309874D01*
G37*
G36*
X115928891Y-175309874D02*
G01*
X115975945Y-175349197D01*
X116044661Y-175357828D01*
X116107291Y-175327864D01*
X116114802Y-175319196D01*
X116116692Y-175318542D01*
X116118203Y-175319852D01*
X116117976Y-175321617D01*
X116112644Y-175329597D01*
X116106000Y-175362999D01*
X116106000Y-176847001D01*
X116112644Y-176880403D01*
X116124055Y-176897480D01*
X116124186Y-176899476D01*
X116122523Y-176900587D01*
X116121109Y-176900126D01*
X116074055Y-176860803D01*
X116005339Y-176852172D01*
X115942709Y-176882136D01*
X115935198Y-176890804D01*
X115933308Y-176891458D01*
X115931797Y-176890148D01*
X115932024Y-176888383D01*
X115937356Y-176880403D01*
X115944000Y-176847001D01*
X115944000Y-175362999D01*
X115937356Y-175329597D01*
X115925945Y-175312520D01*
X115925814Y-175310524D01*
X115927477Y-175309413D01*
X115928891Y-175309874D01*
G37*
G36*
X114328891Y-175309874D02*
G01*
X114375945Y-175349197D01*
X114444661Y-175357828D01*
X114507291Y-175327864D01*
X114514802Y-175319196D01*
X114516692Y-175318542D01*
X114518203Y-175319852D01*
X114517976Y-175321617D01*
X114512644Y-175329597D01*
X114506000Y-175362999D01*
X114506000Y-176847001D01*
X114512644Y-176880403D01*
X114524055Y-176897480D01*
X114524186Y-176899476D01*
X114522523Y-176900587D01*
X114521109Y-176900126D01*
X114474055Y-176860803D01*
X114405339Y-176852172D01*
X114342709Y-176882136D01*
X114335198Y-176890804D01*
X114333308Y-176891458D01*
X114331797Y-176890148D01*
X114332024Y-176888383D01*
X114337356Y-176880403D01*
X114344000Y-176847001D01*
X114344000Y-175362999D01*
X114337356Y-175329597D01*
X114325945Y-175312520D01*
X114325814Y-175310524D01*
X114327477Y-175309413D01*
X114328891Y-175309874D01*
G37*
G36*
X117528891Y-175309874D02*
G01*
X117575945Y-175349197D01*
X117644661Y-175357828D01*
X117707291Y-175327864D01*
X117714802Y-175319196D01*
X117716692Y-175318542D01*
X117718203Y-175319852D01*
X117717976Y-175321617D01*
X117712644Y-175329597D01*
X117706000Y-175362999D01*
X117706000Y-176847001D01*
X117712644Y-176880403D01*
X117724055Y-176897480D01*
X117724186Y-176899476D01*
X117722523Y-176900587D01*
X117721109Y-176900126D01*
X117674055Y-176860803D01*
X117605339Y-176852172D01*
X117542709Y-176882136D01*
X117535198Y-176890804D01*
X117533308Y-176891458D01*
X117531797Y-176890148D01*
X117532024Y-176888383D01*
X117537356Y-176880403D01*
X117544000Y-176847001D01*
X117544000Y-175362999D01*
X117537356Y-175329597D01*
X117525945Y-175312520D01*
X117525814Y-175310524D01*
X117527477Y-175309413D01*
X117528891Y-175309874D01*
G37*
G36*
X112728891Y-175309874D02*
G01*
X112775945Y-175349197D01*
X112844661Y-175357828D01*
X112907291Y-175327864D01*
X112914802Y-175319196D01*
X112916692Y-175318542D01*
X112918203Y-175319852D01*
X112917976Y-175321617D01*
X112912644Y-175329597D01*
X112906000Y-175362999D01*
X112906000Y-176847001D01*
X112912644Y-176880403D01*
X112924055Y-176897480D01*
X112924186Y-176899476D01*
X112922523Y-176900587D01*
X112921109Y-176900126D01*
X112874055Y-176860803D01*
X112805339Y-176852172D01*
X112742709Y-176882136D01*
X112735198Y-176890804D01*
X112733308Y-176891458D01*
X112731797Y-176890148D01*
X112732024Y-176888383D01*
X112737356Y-176880403D01*
X112744000Y-176847001D01*
X112744000Y-175362999D01*
X112737356Y-175329597D01*
X112725945Y-175312520D01*
X112725814Y-175310524D01*
X112727477Y-175309413D01*
X112728891Y-175309874D01*
G37*
G36*
X85532919Y-174076120D02*
G01*
X85552596Y-174143135D01*
X85604939Y-174188490D01*
X85673492Y-174198347D01*
X85736490Y-174169576D01*
X85771439Y-174115195D01*
X85773217Y-174114278D01*
X85774900Y-174115360D01*
X85775084Y-174116666D01*
X85771000Y-174137199D01*
X85771000Y-174652801D01*
X85776606Y-174680986D01*
X85775963Y-174682880D01*
X85774001Y-174683270D01*
X85772872Y-174682303D01*
X85744453Y-174627971D01*
X85684269Y-174593696D01*
X85615111Y-174597402D01*
X85558933Y-174637909D01*
X85533481Y-174702593D01*
X85532998Y-174713404D01*
X85531922Y-174715090D01*
X85529924Y-174715001D01*
X85529000Y-174713315D01*
X85529000Y-174076683D01*
X85530000Y-174074951D01*
X85532000Y-174074951D01*
X85532919Y-174076120D01*
G37*
G36*
X83130076Y-174075022D02*
G01*
X83131000Y-174076708D01*
X83131000Y-174713312D01*
X83130000Y-174715044D01*
X83128000Y-174715044D01*
X83127081Y-174713875D01*
X83107405Y-174646863D01*
X83055062Y-174601508D01*
X82986509Y-174591651D01*
X82923511Y-174620422D01*
X82888561Y-174674804D01*
X82886783Y-174675721D01*
X82885100Y-174674639D01*
X82884916Y-174673333D01*
X82889000Y-174652801D01*
X82889000Y-174137199D01*
X82883394Y-174109016D01*
X82884037Y-174107122D01*
X82885999Y-174106732D01*
X82887128Y-174107699D01*
X82915551Y-174162034D01*
X82975735Y-174196307D01*
X83044893Y-174192599D01*
X83101070Y-174152091D01*
X83126520Y-174087406D01*
X83127002Y-174076619D01*
X83128078Y-174074933D01*
X83130076Y-174075022D01*
G37*
G36*
X120200587Y-174227477D02*
G01*
X120200126Y-174228891D01*
X120160803Y-174275945D01*
X120152172Y-174344661D01*
X120182136Y-174407291D01*
X120190804Y-174414802D01*
X120191458Y-174416692D01*
X120190148Y-174418203D01*
X120188383Y-174417976D01*
X120180403Y-174412644D01*
X120147001Y-174406000D01*
X118662999Y-174406000D01*
X118629597Y-174412644D01*
X118612520Y-174424055D01*
X118610524Y-174424186D01*
X118609413Y-174422523D01*
X118609874Y-174421109D01*
X118649197Y-174374055D01*
X118657828Y-174305339D01*
X118627864Y-174242709D01*
X118619196Y-174235198D01*
X118618542Y-174233308D01*
X118619852Y-174231797D01*
X118621617Y-174232024D01*
X118629597Y-174237356D01*
X118662999Y-174244000D01*
X120147001Y-174244000D01*
X120180403Y-174237356D01*
X120197480Y-174225945D01*
X120199476Y-174225814D01*
X120200587Y-174227477D01*
G37*
G36*
X111840587Y-174227477D02*
G01*
X111840126Y-174228891D01*
X111800803Y-174275945D01*
X111792172Y-174344661D01*
X111822136Y-174407291D01*
X111830804Y-174414802D01*
X111831458Y-174416692D01*
X111830148Y-174418203D01*
X111828383Y-174417976D01*
X111820403Y-174412644D01*
X111787001Y-174406000D01*
X110302999Y-174406000D01*
X110269597Y-174412644D01*
X110252520Y-174424055D01*
X110250524Y-174424186D01*
X110249413Y-174422523D01*
X110249874Y-174421109D01*
X110289197Y-174374055D01*
X110297828Y-174305339D01*
X110267864Y-174242709D01*
X110259196Y-174235198D01*
X110258542Y-174233308D01*
X110259852Y-174231797D01*
X110261617Y-174232024D01*
X110269597Y-174237356D01*
X110302999Y-174244000D01*
X111787001Y-174244000D01*
X111820403Y-174237356D01*
X111837480Y-174225945D01*
X111839476Y-174225814D01*
X111840587Y-174227477D01*
G37*
G36*
X93993547Y-173899605D02*
G01*
X94008176Y-173909380D01*
X94031399Y-173914000D01*
X95478601Y-173914000D01*
X95501824Y-173909380D01*
X95516453Y-173899605D01*
X95518449Y-173899474D01*
X95519560Y-173901137D01*
X95519227Y-173902379D01*
X95516524Y-173906425D01*
X95495744Y-173972789D01*
X95516533Y-174043588D01*
X95519227Y-174047621D01*
X95519358Y-174049617D01*
X95517695Y-174050728D01*
X95516453Y-174050395D01*
X95501824Y-174040620D01*
X95478601Y-174036000D01*
X94031399Y-174036000D01*
X94008176Y-174040620D01*
X93993547Y-174050395D01*
X93991551Y-174050526D01*
X93990440Y-174048863D01*
X93990773Y-174047621D01*
X93993476Y-174043575D01*
X94014256Y-173977211D01*
X93993467Y-173906412D01*
X93990773Y-173902379D01*
X93990642Y-173900383D01*
X93992305Y-173899272D01*
X93993547Y-173899605D01*
G37*
G36*
X105333547Y-173899605D02*
G01*
X105348176Y-173909380D01*
X105371399Y-173914000D01*
X106818601Y-173914000D01*
X106841824Y-173909380D01*
X106856453Y-173899605D01*
X106858449Y-173899474D01*
X106859560Y-173901137D01*
X106859227Y-173902379D01*
X106856524Y-173906425D01*
X106835744Y-173972789D01*
X106856533Y-174043588D01*
X106859227Y-174047621D01*
X106859358Y-174049617D01*
X106857695Y-174050728D01*
X106856453Y-174050395D01*
X106841824Y-174040620D01*
X106818601Y-174036000D01*
X105371399Y-174036000D01*
X105348176Y-174040620D01*
X105333547Y-174050395D01*
X105331551Y-174050526D01*
X105330440Y-174048863D01*
X105330773Y-174047621D01*
X105333476Y-174043575D01*
X105354256Y-173977211D01*
X105333467Y-173906412D01*
X105330773Y-173902379D01*
X105330642Y-173900383D01*
X105332305Y-173899272D01*
X105333547Y-173899605D01*
G37*
G36*
X111840587Y-173427477D02*
G01*
X111840126Y-173428891D01*
X111800803Y-173475945D01*
X111792172Y-173544661D01*
X111822136Y-173607291D01*
X111830804Y-173614802D01*
X111831458Y-173616692D01*
X111830148Y-173618203D01*
X111828383Y-173617976D01*
X111820403Y-173612644D01*
X111787001Y-173606000D01*
X110302999Y-173606000D01*
X110269597Y-173612644D01*
X110252520Y-173624055D01*
X110250524Y-173624186D01*
X110249413Y-173622523D01*
X110249874Y-173621109D01*
X110289197Y-173574055D01*
X110297828Y-173505339D01*
X110267864Y-173442709D01*
X110259196Y-173435198D01*
X110258542Y-173433308D01*
X110259852Y-173431797D01*
X110261617Y-173432024D01*
X110269597Y-173437356D01*
X110302999Y-173444000D01*
X111787001Y-173444000D01*
X111820403Y-173437356D01*
X111837480Y-173425945D01*
X111839476Y-173425814D01*
X111840587Y-173427477D01*
G37*
G36*
X120200587Y-173427477D02*
G01*
X120200126Y-173428891D01*
X120160803Y-173475945D01*
X120152172Y-173544661D01*
X120182136Y-173607291D01*
X120190804Y-173614802D01*
X120191458Y-173616692D01*
X120190148Y-173618203D01*
X120188383Y-173617976D01*
X120180403Y-173612644D01*
X120147001Y-173606000D01*
X118662999Y-173606000D01*
X118629597Y-173612644D01*
X118612520Y-173624055D01*
X118610524Y-173624186D01*
X118609413Y-173622523D01*
X118609874Y-173621109D01*
X118649197Y-173574055D01*
X118657828Y-173505339D01*
X118627864Y-173442709D01*
X118619196Y-173435198D01*
X118618542Y-173433308D01*
X118619852Y-173431797D01*
X118621617Y-173432024D01*
X118629597Y-173437356D01*
X118662999Y-173444000D01*
X120147001Y-173444000D01*
X120180403Y-173437356D01*
X120197480Y-173425945D01*
X120199476Y-173425814D01*
X120200587Y-173427477D01*
G37*
G36*
X105333547Y-173399605D02*
G01*
X105348176Y-173409380D01*
X105371399Y-173414000D01*
X106818601Y-173414000D01*
X106841824Y-173409380D01*
X106856453Y-173399605D01*
X106858449Y-173399474D01*
X106859560Y-173401137D01*
X106859227Y-173402379D01*
X106856524Y-173406425D01*
X106835744Y-173472789D01*
X106856533Y-173543588D01*
X106859227Y-173547621D01*
X106859358Y-173549617D01*
X106857695Y-173550728D01*
X106856453Y-173550395D01*
X106841824Y-173540620D01*
X106818601Y-173536000D01*
X105371399Y-173536000D01*
X105348176Y-173540620D01*
X105333547Y-173550395D01*
X105331551Y-173550526D01*
X105330440Y-173548863D01*
X105330773Y-173547621D01*
X105333476Y-173543575D01*
X105354256Y-173477211D01*
X105333467Y-173406412D01*
X105330773Y-173402379D01*
X105330642Y-173400383D01*
X105332305Y-173399272D01*
X105333547Y-173399605D01*
G37*
G36*
X93993547Y-173399605D02*
G01*
X94008176Y-173409380D01*
X94031399Y-173414000D01*
X95478601Y-173414000D01*
X95501824Y-173409380D01*
X95516453Y-173399605D01*
X95518449Y-173399474D01*
X95519560Y-173401137D01*
X95519227Y-173402379D01*
X95516524Y-173406425D01*
X95495744Y-173472789D01*
X95516533Y-173543588D01*
X95519227Y-173547621D01*
X95519358Y-173549617D01*
X95517695Y-173550728D01*
X95516453Y-173550395D01*
X95501824Y-173540620D01*
X95478601Y-173536000D01*
X94031399Y-173536000D01*
X94008176Y-173540620D01*
X93993547Y-173550395D01*
X93991551Y-173550526D01*
X93990440Y-173548863D01*
X93990773Y-173547621D01*
X93993476Y-173543575D01*
X94014256Y-173477211D01*
X93993467Y-173406412D01*
X93990773Y-173402379D01*
X93990642Y-173400383D01*
X93992305Y-173399272D01*
X93993547Y-173399605D01*
G37*
G36*
X85532919Y-172806125D02*
G01*
X85552595Y-172873137D01*
X85604938Y-172918492D01*
X85673491Y-172928349D01*
X85736489Y-172899578D01*
X85771439Y-172845196D01*
X85773217Y-172844279D01*
X85774900Y-172845361D01*
X85775084Y-172846667D01*
X85771000Y-172867199D01*
X85771000Y-173382801D01*
X85776606Y-173410984D01*
X85775963Y-173412878D01*
X85774001Y-173413268D01*
X85772872Y-173412301D01*
X85744449Y-173357966D01*
X85684265Y-173323693D01*
X85615107Y-173327401D01*
X85558930Y-173367909D01*
X85533480Y-173432594D01*
X85532998Y-173443381D01*
X85531922Y-173445067D01*
X85529924Y-173444978D01*
X85529000Y-173443292D01*
X85529000Y-172806688D01*
X85530000Y-172804956D01*
X85532000Y-172804956D01*
X85532919Y-172806125D01*
G37*
G36*
X83130076Y-172804999D02*
G01*
X83131000Y-172806685D01*
X83131000Y-173443317D01*
X83130000Y-173445049D01*
X83128000Y-173445049D01*
X83127081Y-173443880D01*
X83107404Y-173376865D01*
X83055061Y-173331510D01*
X82986508Y-173321653D01*
X82923510Y-173350424D01*
X82888561Y-173404805D01*
X82886783Y-173405722D01*
X82885100Y-173404640D01*
X82884916Y-173403334D01*
X82889000Y-173382801D01*
X82889000Y-172867199D01*
X82883394Y-172839014D01*
X82884037Y-172837120D01*
X82885999Y-172836730D01*
X82887128Y-172837697D01*
X82915547Y-172892029D01*
X82975731Y-172926304D01*
X83044889Y-172922598D01*
X83101067Y-172882091D01*
X83126519Y-172817407D01*
X83127002Y-172806596D01*
X83128078Y-172804910D01*
X83130076Y-172804999D01*
G37*
G36*
X93993547Y-172899605D02*
G01*
X94008176Y-172909380D01*
X94031399Y-172914000D01*
X95478601Y-172914000D01*
X95501824Y-172909380D01*
X95516453Y-172899605D01*
X95518449Y-172899474D01*
X95519560Y-172901137D01*
X95519227Y-172902379D01*
X95516524Y-172906425D01*
X95495744Y-172972789D01*
X95516533Y-173043588D01*
X95519227Y-173047621D01*
X95519358Y-173049617D01*
X95517695Y-173050728D01*
X95516453Y-173050395D01*
X95501824Y-173040620D01*
X95478601Y-173036000D01*
X94031399Y-173036000D01*
X94008176Y-173040620D01*
X93993547Y-173050395D01*
X93991551Y-173050526D01*
X93990440Y-173048863D01*
X93990773Y-173047621D01*
X93993476Y-173043575D01*
X94014256Y-172977211D01*
X93993467Y-172906412D01*
X93990773Y-172902379D01*
X93990642Y-172900383D01*
X93992305Y-172899272D01*
X93993547Y-172899605D01*
G37*
G36*
X105333547Y-172899605D02*
G01*
X105348176Y-172909380D01*
X105371399Y-172914000D01*
X106818601Y-172914000D01*
X106841824Y-172909380D01*
X106856453Y-172899605D01*
X106858449Y-172899474D01*
X106859560Y-172901137D01*
X106859227Y-172902379D01*
X106856524Y-172906425D01*
X106835744Y-172972789D01*
X106856533Y-173043588D01*
X106859227Y-173047621D01*
X106859358Y-173049617D01*
X106857695Y-173050728D01*
X106856453Y-173050395D01*
X106841824Y-173040620D01*
X106818601Y-173036000D01*
X105371399Y-173036000D01*
X105348176Y-173040620D01*
X105333547Y-173050395D01*
X105331551Y-173050526D01*
X105330440Y-173048863D01*
X105330773Y-173047621D01*
X105333476Y-173043575D01*
X105354256Y-172977211D01*
X105333467Y-172906412D01*
X105330773Y-172902379D01*
X105330642Y-172900383D01*
X105332305Y-172899272D01*
X105333547Y-172899605D01*
G37*
G36*
X111840587Y-172627477D02*
G01*
X111840126Y-172628891D01*
X111800803Y-172675945D01*
X111792172Y-172744661D01*
X111822136Y-172807291D01*
X111830804Y-172814802D01*
X111831458Y-172816692D01*
X111830148Y-172818203D01*
X111828383Y-172817976D01*
X111820403Y-172812644D01*
X111787001Y-172806000D01*
X110302999Y-172806000D01*
X110269597Y-172812644D01*
X110252520Y-172824055D01*
X110250524Y-172824186D01*
X110249413Y-172822523D01*
X110249874Y-172821109D01*
X110289197Y-172774055D01*
X110297828Y-172705339D01*
X110267864Y-172642709D01*
X110259196Y-172635198D01*
X110258542Y-172633308D01*
X110259852Y-172631797D01*
X110261617Y-172632024D01*
X110269597Y-172637356D01*
X110302999Y-172644000D01*
X111787001Y-172644000D01*
X111820403Y-172637356D01*
X111837480Y-172625945D01*
X111839476Y-172625814D01*
X111840587Y-172627477D01*
G37*
G36*
X120200587Y-172627477D02*
G01*
X120200126Y-172628891D01*
X120160803Y-172675945D01*
X120152172Y-172744661D01*
X120182136Y-172807291D01*
X120190804Y-172814802D01*
X120191458Y-172816692D01*
X120190148Y-172818203D01*
X120188383Y-172817976D01*
X120180403Y-172812644D01*
X120147001Y-172806000D01*
X118662999Y-172806000D01*
X118629597Y-172812644D01*
X118612520Y-172824055D01*
X118610524Y-172824186D01*
X118609413Y-172822523D01*
X118609874Y-172821109D01*
X118649197Y-172774055D01*
X118657828Y-172705339D01*
X118627864Y-172642709D01*
X118619196Y-172635198D01*
X118618542Y-172633308D01*
X118619852Y-172631797D01*
X118621617Y-172632024D01*
X118629597Y-172637356D01*
X118662999Y-172644000D01*
X120147001Y-172644000D01*
X120180403Y-172637356D01*
X120197480Y-172625945D01*
X120199476Y-172625814D01*
X120200587Y-172627477D01*
G37*
G36*
X93993547Y-172399605D02*
G01*
X94008176Y-172409380D01*
X94031399Y-172414000D01*
X95478601Y-172414000D01*
X95501824Y-172409380D01*
X95516453Y-172399605D01*
X95518449Y-172399474D01*
X95519560Y-172401137D01*
X95519227Y-172402379D01*
X95516524Y-172406425D01*
X95495744Y-172472789D01*
X95516533Y-172543588D01*
X95519227Y-172547621D01*
X95519358Y-172549617D01*
X95517695Y-172550728D01*
X95516453Y-172550395D01*
X95501824Y-172540620D01*
X95478601Y-172536000D01*
X94031399Y-172536000D01*
X94008176Y-172540620D01*
X93993547Y-172550395D01*
X93991551Y-172550526D01*
X93990440Y-172548863D01*
X93990773Y-172547621D01*
X93993476Y-172543575D01*
X94014256Y-172477211D01*
X93993467Y-172406412D01*
X93990773Y-172402379D01*
X93990642Y-172400383D01*
X93992305Y-172399272D01*
X93993547Y-172399605D01*
G37*
G36*
X105333547Y-172399605D02*
G01*
X105348176Y-172409380D01*
X105371399Y-172414000D01*
X106818601Y-172414000D01*
X106841824Y-172409380D01*
X106856453Y-172399605D01*
X106858449Y-172399474D01*
X106859560Y-172401137D01*
X106859227Y-172402379D01*
X106856524Y-172406425D01*
X106835744Y-172472789D01*
X106856533Y-172543588D01*
X106859227Y-172547621D01*
X106859358Y-172549617D01*
X106857695Y-172550728D01*
X106856453Y-172550395D01*
X106841824Y-172540620D01*
X106818601Y-172536000D01*
X105371399Y-172536000D01*
X105348176Y-172540620D01*
X105333547Y-172550395D01*
X105331551Y-172550526D01*
X105330440Y-172548863D01*
X105330773Y-172547621D01*
X105333476Y-172543575D01*
X105354256Y-172477211D01*
X105333467Y-172406412D01*
X105330773Y-172402379D01*
X105330642Y-172400383D01*
X105332305Y-172399272D01*
X105333547Y-172399605D01*
G37*
G36*
X93993547Y-171899605D02*
G01*
X94008176Y-171909380D01*
X94031399Y-171914000D01*
X95478601Y-171914000D01*
X95501824Y-171909380D01*
X95516453Y-171899605D01*
X95518449Y-171899474D01*
X95519560Y-171901137D01*
X95519227Y-171902379D01*
X95516524Y-171906425D01*
X95495744Y-171972789D01*
X95516533Y-172043588D01*
X95519227Y-172047621D01*
X95519358Y-172049617D01*
X95517695Y-172050728D01*
X95516453Y-172050395D01*
X95501824Y-172040620D01*
X95478601Y-172036000D01*
X94031399Y-172036000D01*
X94008176Y-172040620D01*
X93993547Y-172050395D01*
X93991551Y-172050526D01*
X93990440Y-172048863D01*
X93990773Y-172047621D01*
X93993476Y-172043575D01*
X94014256Y-171977211D01*
X93993467Y-171906412D01*
X93990773Y-171902379D01*
X93990642Y-171900383D01*
X93992305Y-171899272D01*
X93993547Y-171899605D01*
G37*
G36*
X105333547Y-171899605D02*
G01*
X105348176Y-171909380D01*
X105371399Y-171914000D01*
X106818601Y-171914000D01*
X106841824Y-171909380D01*
X106856453Y-171899605D01*
X106858449Y-171899474D01*
X106859560Y-171901137D01*
X106859227Y-171902379D01*
X106856524Y-171906425D01*
X106835744Y-171972789D01*
X106856533Y-172043588D01*
X106859227Y-172047621D01*
X106859358Y-172049617D01*
X106857695Y-172050728D01*
X106856453Y-172050395D01*
X106841824Y-172040620D01*
X106818601Y-172036000D01*
X105371399Y-172036000D01*
X105348176Y-172040620D01*
X105333547Y-172050395D01*
X105331551Y-172050526D01*
X105330440Y-172048863D01*
X105330773Y-172047621D01*
X105333476Y-172043575D01*
X105354256Y-171977211D01*
X105333467Y-171906412D01*
X105330773Y-171902379D01*
X105330642Y-171900383D01*
X105332305Y-171899272D01*
X105333547Y-171899605D01*
G37*
G36*
X120200587Y-171827477D02*
G01*
X120200126Y-171828891D01*
X120160803Y-171875945D01*
X120152172Y-171944661D01*
X120182136Y-172007291D01*
X120190804Y-172014802D01*
X120191458Y-172016692D01*
X120190148Y-172018203D01*
X120188383Y-172017976D01*
X120180403Y-172012644D01*
X120147001Y-172006000D01*
X118662999Y-172006000D01*
X118629597Y-172012644D01*
X118612520Y-172024055D01*
X118610524Y-172024186D01*
X118609413Y-172022523D01*
X118609874Y-172021109D01*
X118649197Y-171974055D01*
X118657828Y-171905339D01*
X118627864Y-171842709D01*
X118619196Y-171835198D01*
X118618542Y-171833308D01*
X118619852Y-171831797D01*
X118621617Y-171832024D01*
X118629597Y-171837356D01*
X118662999Y-171844000D01*
X120147001Y-171844000D01*
X120180403Y-171837356D01*
X120197480Y-171825945D01*
X120199476Y-171825814D01*
X120200587Y-171827477D01*
G37*
G36*
X111840587Y-171827477D02*
G01*
X111840126Y-171828891D01*
X111800803Y-171875945D01*
X111792172Y-171944661D01*
X111822136Y-172007291D01*
X111830804Y-172014802D01*
X111831458Y-172016692D01*
X111830148Y-172018203D01*
X111828383Y-172017976D01*
X111820403Y-172012644D01*
X111787001Y-172006000D01*
X110302999Y-172006000D01*
X110269597Y-172012644D01*
X110252520Y-172024055D01*
X110250524Y-172024186D01*
X110249413Y-172022523D01*
X110249874Y-172021109D01*
X110289197Y-171974055D01*
X110297828Y-171905339D01*
X110267864Y-171842709D01*
X110259196Y-171835198D01*
X110258542Y-171833308D01*
X110259852Y-171831797D01*
X110261617Y-171832024D01*
X110269597Y-171837356D01*
X110302999Y-171844000D01*
X111787001Y-171844000D01*
X111820403Y-171837356D01*
X111837480Y-171825945D01*
X111839476Y-171825814D01*
X111840587Y-171827477D01*
G37*
G36*
X105333547Y-171399605D02*
G01*
X105348176Y-171409380D01*
X105371399Y-171414000D01*
X106818601Y-171414000D01*
X106841824Y-171409380D01*
X106856453Y-171399605D01*
X106858449Y-171399474D01*
X106859560Y-171401137D01*
X106859227Y-171402379D01*
X106856524Y-171406425D01*
X106835744Y-171472789D01*
X106856533Y-171543588D01*
X106859227Y-171547621D01*
X106859358Y-171549617D01*
X106857695Y-171550728D01*
X106856453Y-171550395D01*
X106841824Y-171540620D01*
X106818601Y-171536000D01*
X105371399Y-171536000D01*
X105348176Y-171540620D01*
X105333547Y-171550395D01*
X105331551Y-171550526D01*
X105330440Y-171548863D01*
X105330773Y-171547621D01*
X105333476Y-171543575D01*
X105354256Y-171477211D01*
X105333467Y-171406412D01*
X105330773Y-171402379D01*
X105330642Y-171400383D01*
X105332305Y-171399272D01*
X105333547Y-171399605D01*
G37*
G36*
X93993547Y-171399605D02*
G01*
X94008176Y-171409380D01*
X94031399Y-171414000D01*
X95478601Y-171414000D01*
X95501824Y-171409380D01*
X95516453Y-171399605D01*
X95518449Y-171399474D01*
X95519560Y-171401137D01*
X95519227Y-171402379D01*
X95516524Y-171406425D01*
X95495744Y-171472789D01*
X95516533Y-171543588D01*
X95519227Y-171547621D01*
X95519358Y-171549617D01*
X95517695Y-171550728D01*
X95516453Y-171550395D01*
X95501824Y-171540620D01*
X95478601Y-171536000D01*
X94031399Y-171536000D01*
X94008176Y-171540620D01*
X93993547Y-171550395D01*
X93991551Y-171550526D01*
X93990440Y-171548863D01*
X93990773Y-171547621D01*
X93993476Y-171543575D01*
X94014256Y-171477211D01*
X93993467Y-171406412D01*
X93990773Y-171402379D01*
X93990642Y-171400383D01*
X93992305Y-171399272D01*
X93993547Y-171399605D01*
G37*
G36*
X120200587Y-171027477D02*
G01*
X120200126Y-171028891D01*
X120160803Y-171075945D01*
X120152172Y-171144661D01*
X120182136Y-171207291D01*
X120190804Y-171214802D01*
X120191458Y-171216692D01*
X120190148Y-171218203D01*
X120188383Y-171217976D01*
X120180403Y-171212644D01*
X120147001Y-171206000D01*
X118662999Y-171206000D01*
X118629597Y-171212644D01*
X118612520Y-171224055D01*
X118610524Y-171224186D01*
X118609413Y-171222523D01*
X118609874Y-171221109D01*
X118649197Y-171174055D01*
X118657828Y-171105339D01*
X118627864Y-171042709D01*
X118619196Y-171035198D01*
X118618542Y-171033308D01*
X118619852Y-171031797D01*
X118621617Y-171032024D01*
X118629597Y-171037356D01*
X118662999Y-171044000D01*
X120147001Y-171044000D01*
X120180403Y-171037356D01*
X120197480Y-171025945D01*
X120199476Y-171025814D01*
X120200587Y-171027477D01*
G37*
G36*
X111840587Y-171027477D02*
G01*
X111840126Y-171028891D01*
X111800803Y-171075945D01*
X111792172Y-171144661D01*
X111822136Y-171207291D01*
X111830804Y-171214802D01*
X111831458Y-171216692D01*
X111830148Y-171218203D01*
X111828383Y-171217976D01*
X111820403Y-171212644D01*
X111787001Y-171206000D01*
X110302999Y-171206000D01*
X110269597Y-171212644D01*
X110252520Y-171224055D01*
X110250524Y-171224186D01*
X110249413Y-171222523D01*
X110249874Y-171221109D01*
X110289197Y-171174055D01*
X110297828Y-171105339D01*
X110267864Y-171042709D01*
X110259196Y-171035198D01*
X110258542Y-171033308D01*
X110259852Y-171031797D01*
X110261617Y-171032024D01*
X110269597Y-171037356D01*
X110302999Y-171044000D01*
X111787001Y-171044000D01*
X111820403Y-171037356D01*
X111837480Y-171025945D01*
X111839476Y-171025814D01*
X111840587Y-171027477D01*
G37*
G36*
X105333547Y-170899605D02*
G01*
X105348176Y-170909380D01*
X105371399Y-170914000D01*
X106818601Y-170914000D01*
X106841824Y-170909380D01*
X106856453Y-170899605D01*
X106858449Y-170899474D01*
X106859560Y-170901137D01*
X106859227Y-170902379D01*
X106856524Y-170906425D01*
X106835744Y-170972789D01*
X106856533Y-171043588D01*
X106859227Y-171047621D01*
X106859358Y-171049617D01*
X106857695Y-171050728D01*
X106856453Y-171050395D01*
X106841824Y-171040620D01*
X106818601Y-171036000D01*
X105371399Y-171036000D01*
X105348176Y-171040620D01*
X105333547Y-171050395D01*
X105331551Y-171050526D01*
X105330440Y-171048863D01*
X105330773Y-171047621D01*
X105333476Y-171043575D01*
X105354256Y-170977211D01*
X105333467Y-170906412D01*
X105330773Y-170902379D01*
X105330642Y-170900383D01*
X105332305Y-170899272D01*
X105333547Y-170899605D01*
G37*
G36*
X93993547Y-170899605D02*
G01*
X94008176Y-170909380D01*
X94031399Y-170914000D01*
X95478601Y-170914000D01*
X95501824Y-170909380D01*
X95516453Y-170899605D01*
X95518449Y-170899474D01*
X95519560Y-170901137D01*
X95519227Y-170902379D01*
X95516524Y-170906425D01*
X95495744Y-170972789D01*
X95516533Y-171043588D01*
X95519227Y-171047621D01*
X95519358Y-171049617D01*
X95517695Y-171050728D01*
X95516453Y-171050395D01*
X95501824Y-171040620D01*
X95478601Y-171036000D01*
X94031399Y-171036000D01*
X94008176Y-171040620D01*
X93993547Y-171050395D01*
X93991551Y-171050526D01*
X93990440Y-171048863D01*
X93990773Y-171047621D01*
X93993476Y-171043575D01*
X94014256Y-170977211D01*
X93993467Y-170906412D01*
X93990773Y-170902379D01*
X93990642Y-170900383D01*
X93992305Y-170899272D01*
X93993547Y-170899605D01*
G37*
G36*
X105333547Y-170399605D02*
G01*
X105348176Y-170409380D01*
X105371399Y-170414000D01*
X106818601Y-170414000D01*
X106841824Y-170409380D01*
X106856453Y-170399605D01*
X106858449Y-170399474D01*
X106859560Y-170401137D01*
X106859227Y-170402379D01*
X106856524Y-170406425D01*
X106835744Y-170472789D01*
X106856533Y-170543588D01*
X106859227Y-170547621D01*
X106859358Y-170549617D01*
X106857695Y-170550728D01*
X106856453Y-170550395D01*
X106841824Y-170540620D01*
X106818601Y-170536000D01*
X105371399Y-170536000D01*
X105348176Y-170540620D01*
X105333547Y-170550395D01*
X105331551Y-170550526D01*
X105330440Y-170548863D01*
X105330773Y-170547621D01*
X105333476Y-170543575D01*
X105354256Y-170477211D01*
X105333467Y-170406412D01*
X105330773Y-170402379D01*
X105330642Y-170400383D01*
X105332305Y-170399272D01*
X105333547Y-170399605D01*
G37*
G36*
X93993547Y-170399605D02*
G01*
X94008176Y-170409380D01*
X94031399Y-170414000D01*
X95478601Y-170414000D01*
X95501824Y-170409380D01*
X95516453Y-170399605D01*
X95518449Y-170399474D01*
X95519560Y-170401137D01*
X95519227Y-170402379D01*
X95516524Y-170406425D01*
X95495744Y-170472789D01*
X95516533Y-170543588D01*
X95519227Y-170547621D01*
X95519358Y-170549617D01*
X95517695Y-170550728D01*
X95516453Y-170550395D01*
X95501824Y-170540620D01*
X95478601Y-170536000D01*
X94031399Y-170536000D01*
X94008176Y-170540620D01*
X93993547Y-170550395D01*
X93991551Y-170550526D01*
X93990440Y-170548863D01*
X93990773Y-170547621D01*
X93993476Y-170543575D01*
X94014256Y-170477211D01*
X93993467Y-170406412D01*
X93990773Y-170402379D01*
X93990642Y-170400383D01*
X93992305Y-170399272D01*
X93993547Y-170399605D01*
G37*
G36*
X120200587Y-170227477D02*
G01*
X120200126Y-170228891D01*
X120160803Y-170275945D01*
X120152172Y-170344661D01*
X120182136Y-170407291D01*
X120190804Y-170414802D01*
X120191458Y-170416692D01*
X120190148Y-170418203D01*
X120188383Y-170417976D01*
X120180403Y-170412644D01*
X120147001Y-170406000D01*
X118662999Y-170406000D01*
X118629597Y-170412644D01*
X118612520Y-170424055D01*
X118610524Y-170424186D01*
X118609413Y-170422523D01*
X118609874Y-170421109D01*
X118649197Y-170374055D01*
X118657828Y-170305339D01*
X118627864Y-170242709D01*
X118619196Y-170235198D01*
X118618542Y-170233308D01*
X118619852Y-170231797D01*
X118621617Y-170232024D01*
X118629597Y-170237356D01*
X118662999Y-170244000D01*
X120147001Y-170244000D01*
X120180403Y-170237356D01*
X120197480Y-170225945D01*
X120199476Y-170225814D01*
X120200587Y-170227477D01*
G37*
G36*
X111840587Y-170227477D02*
G01*
X111840126Y-170228891D01*
X111800803Y-170275945D01*
X111792172Y-170344661D01*
X111822136Y-170407291D01*
X111830804Y-170414802D01*
X111831458Y-170416692D01*
X111830148Y-170418203D01*
X111828383Y-170417976D01*
X111820403Y-170412644D01*
X111787001Y-170406000D01*
X110302999Y-170406000D01*
X110269597Y-170412644D01*
X110252520Y-170424055D01*
X110250524Y-170424186D01*
X110249413Y-170422523D01*
X110249874Y-170421109D01*
X110289197Y-170374055D01*
X110297828Y-170305339D01*
X110267864Y-170242709D01*
X110259196Y-170235198D01*
X110258542Y-170233308D01*
X110259852Y-170231797D01*
X110261617Y-170232024D01*
X110269597Y-170237356D01*
X110302999Y-170244000D01*
X111787001Y-170244000D01*
X111820403Y-170237356D01*
X111837480Y-170225945D01*
X111839476Y-170225814D01*
X111840587Y-170227477D01*
G37*
G36*
X105333547Y-169899605D02*
G01*
X105348176Y-169909380D01*
X105371399Y-169914000D01*
X106818601Y-169914000D01*
X106841824Y-169909380D01*
X106856453Y-169899605D01*
X106858449Y-169899474D01*
X106859560Y-169901137D01*
X106859227Y-169902379D01*
X106856524Y-169906425D01*
X106835744Y-169972789D01*
X106856533Y-170043588D01*
X106859227Y-170047621D01*
X106859358Y-170049617D01*
X106857695Y-170050728D01*
X106856453Y-170050395D01*
X106841824Y-170040620D01*
X106818601Y-170036000D01*
X105371399Y-170036000D01*
X105348176Y-170040620D01*
X105333547Y-170050395D01*
X105331551Y-170050526D01*
X105330440Y-170048863D01*
X105330773Y-170047621D01*
X105333476Y-170043575D01*
X105354256Y-169977211D01*
X105333467Y-169906412D01*
X105330773Y-169902379D01*
X105330642Y-169900383D01*
X105332305Y-169899272D01*
X105333547Y-169899605D01*
G37*
G36*
X93993547Y-169899605D02*
G01*
X94008176Y-169909380D01*
X94031399Y-169914000D01*
X95478601Y-169914000D01*
X95501824Y-169909380D01*
X95516453Y-169899605D01*
X95518449Y-169899474D01*
X95519560Y-169901137D01*
X95519227Y-169902379D01*
X95516524Y-169906425D01*
X95495744Y-169972789D01*
X95516533Y-170043588D01*
X95519227Y-170047621D01*
X95519358Y-170049617D01*
X95517695Y-170050728D01*
X95516453Y-170050395D01*
X95501824Y-170040620D01*
X95478601Y-170036000D01*
X94031399Y-170036000D01*
X94008176Y-170040620D01*
X93993547Y-170050395D01*
X93991551Y-170050526D01*
X93990440Y-170048863D01*
X93990773Y-170047621D01*
X93993476Y-170043575D01*
X94014256Y-169977211D01*
X93993467Y-169906412D01*
X93990773Y-169902379D01*
X93990642Y-169900383D01*
X93992305Y-169899272D01*
X93993547Y-169899605D01*
G37*
G36*
X120200587Y-169427477D02*
G01*
X120200126Y-169428891D01*
X120160803Y-169475945D01*
X120152172Y-169544661D01*
X120182136Y-169607291D01*
X120190804Y-169614802D01*
X120191458Y-169616692D01*
X120190148Y-169618203D01*
X120188383Y-169617976D01*
X120180403Y-169612644D01*
X120147001Y-169606000D01*
X118662999Y-169606000D01*
X118629597Y-169612644D01*
X118612520Y-169624055D01*
X118610524Y-169624186D01*
X118609413Y-169622523D01*
X118609874Y-169621109D01*
X118649197Y-169574055D01*
X118657828Y-169505339D01*
X118627864Y-169442709D01*
X118619196Y-169435198D01*
X118618542Y-169433308D01*
X118619852Y-169431797D01*
X118621617Y-169432024D01*
X118629597Y-169437356D01*
X118662999Y-169444000D01*
X120147001Y-169444000D01*
X120180403Y-169437356D01*
X120197480Y-169425945D01*
X120199476Y-169425814D01*
X120200587Y-169427477D01*
G37*
G36*
X111840587Y-169427477D02*
G01*
X111840126Y-169428891D01*
X111800803Y-169475945D01*
X111792172Y-169544661D01*
X111822136Y-169607291D01*
X111830804Y-169614802D01*
X111831458Y-169616692D01*
X111830148Y-169618203D01*
X111828383Y-169617976D01*
X111820403Y-169612644D01*
X111787001Y-169606000D01*
X110302999Y-169606000D01*
X110269597Y-169612644D01*
X110252520Y-169624055D01*
X110250524Y-169624186D01*
X110249413Y-169622523D01*
X110249874Y-169621109D01*
X110289197Y-169574055D01*
X110297828Y-169505339D01*
X110267864Y-169442709D01*
X110259196Y-169435198D01*
X110258542Y-169433308D01*
X110259852Y-169431797D01*
X110261617Y-169432024D01*
X110269597Y-169437356D01*
X110302999Y-169444000D01*
X111787001Y-169444000D01*
X111820403Y-169437356D01*
X111837480Y-169425945D01*
X111839476Y-169425814D01*
X111840587Y-169427477D01*
G37*
G36*
X93993547Y-169399605D02*
G01*
X94008176Y-169409380D01*
X94031399Y-169414000D01*
X95478601Y-169414000D01*
X95501824Y-169409380D01*
X95516453Y-169399605D01*
X95518449Y-169399474D01*
X95519560Y-169401137D01*
X95519227Y-169402379D01*
X95516524Y-169406425D01*
X95495744Y-169472789D01*
X95516533Y-169543588D01*
X95519227Y-169547621D01*
X95519358Y-169549617D01*
X95517695Y-169550728D01*
X95516453Y-169550395D01*
X95501824Y-169540620D01*
X95478601Y-169536000D01*
X94031399Y-169536000D01*
X94008176Y-169540620D01*
X93993547Y-169550395D01*
X93991551Y-169550526D01*
X93990440Y-169548863D01*
X93990773Y-169547621D01*
X93993476Y-169543575D01*
X94014256Y-169477211D01*
X93993467Y-169406412D01*
X93990773Y-169402379D01*
X93990642Y-169400383D01*
X93992305Y-169399272D01*
X93993547Y-169399605D01*
G37*
G36*
X105333547Y-169399605D02*
G01*
X105348176Y-169409380D01*
X105371399Y-169414000D01*
X106818601Y-169414000D01*
X106841824Y-169409380D01*
X106856453Y-169399605D01*
X106858449Y-169399474D01*
X106859560Y-169401137D01*
X106859227Y-169402379D01*
X106856524Y-169406425D01*
X106835744Y-169472789D01*
X106856533Y-169543588D01*
X106859227Y-169547621D01*
X106859358Y-169549617D01*
X106857695Y-169550728D01*
X106856453Y-169550395D01*
X106841824Y-169540620D01*
X106818601Y-169536000D01*
X105371399Y-169536000D01*
X105348176Y-169540620D01*
X105333547Y-169550395D01*
X105331551Y-169550526D01*
X105330440Y-169548863D01*
X105330773Y-169547621D01*
X105333476Y-169543575D01*
X105354256Y-169477211D01*
X105333467Y-169406412D01*
X105330773Y-169402379D01*
X105330642Y-169400383D01*
X105332305Y-169399272D01*
X105333547Y-169399605D01*
G37*
G36*
X93993547Y-168899605D02*
G01*
X94008176Y-168909380D01*
X94031399Y-168914000D01*
X95478601Y-168914000D01*
X95501824Y-168909380D01*
X95516453Y-168899605D01*
X95518449Y-168899474D01*
X95519560Y-168901137D01*
X95519227Y-168902379D01*
X95516524Y-168906425D01*
X95495744Y-168972789D01*
X95516533Y-169043588D01*
X95519227Y-169047621D01*
X95519358Y-169049617D01*
X95517695Y-169050728D01*
X95516453Y-169050395D01*
X95501824Y-169040620D01*
X95478601Y-169036000D01*
X94031399Y-169036000D01*
X94008176Y-169040620D01*
X93993547Y-169050395D01*
X93991551Y-169050526D01*
X93990440Y-169048863D01*
X93990773Y-169047621D01*
X93993476Y-169043575D01*
X94014256Y-168977211D01*
X93993467Y-168906412D01*
X93990773Y-168902379D01*
X93990642Y-168900383D01*
X93992305Y-168899272D01*
X93993547Y-168899605D01*
G37*
G36*
X105333547Y-168899605D02*
G01*
X105348176Y-168909380D01*
X105371399Y-168914000D01*
X106818601Y-168914000D01*
X106841824Y-168909380D01*
X106856453Y-168899605D01*
X106858449Y-168899474D01*
X106859560Y-168901137D01*
X106859227Y-168902379D01*
X106856524Y-168906425D01*
X106835744Y-168972789D01*
X106856533Y-169043588D01*
X106859227Y-169047621D01*
X106859358Y-169049617D01*
X106857695Y-169050728D01*
X106856453Y-169050395D01*
X106841824Y-169040620D01*
X106818601Y-169036000D01*
X105371399Y-169036000D01*
X105348176Y-169040620D01*
X105333547Y-169050395D01*
X105331551Y-169050526D01*
X105330440Y-169048863D01*
X105330773Y-169047621D01*
X105333476Y-169043575D01*
X105354256Y-168977211D01*
X105333467Y-168906412D01*
X105330773Y-168902379D01*
X105330642Y-168900383D01*
X105332305Y-168899272D01*
X105333547Y-168899605D01*
G37*
G36*
X93993547Y-168399605D02*
G01*
X94008176Y-168409380D01*
X94031399Y-168414000D01*
X95478601Y-168414000D01*
X95501824Y-168409380D01*
X95516453Y-168399605D01*
X95518449Y-168399474D01*
X95519560Y-168401137D01*
X95519227Y-168402379D01*
X95516524Y-168406425D01*
X95495744Y-168472789D01*
X95516533Y-168543588D01*
X95519227Y-168547621D01*
X95519358Y-168549617D01*
X95517695Y-168550728D01*
X95516453Y-168550395D01*
X95501824Y-168540620D01*
X95478601Y-168536000D01*
X94031399Y-168536000D01*
X94008176Y-168540620D01*
X93993547Y-168550395D01*
X93991551Y-168550526D01*
X93990440Y-168548863D01*
X93990773Y-168547621D01*
X93993476Y-168543575D01*
X94014256Y-168477211D01*
X93993467Y-168406412D01*
X93990773Y-168402379D01*
X93990642Y-168400383D01*
X93992305Y-168399272D01*
X93993547Y-168399605D01*
G37*
G36*
X105333547Y-168399605D02*
G01*
X105348176Y-168409380D01*
X105371399Y-168414000D01*
X106818601Y-168414000D01*
X106841824Y-168409380D01*
X106856453Y-168399605D01*
X106858449Y-168399474D01*
X106859560Y-168401137D01*
X106859227Y-168402379D01*
X106856524Y-168406425D01*
X106835744Y-168472789D01*
X106856533Y-168543588D01*
X106859227Y-168547621D01*
X106859358Y-168549617D01*
X106857695Y-168550728D01*
X106856453Y-168550395D01*
X106841824Y-168540620D01*
X106818601Y-168536000D01*
X105371399Y-168536000D01*
X105348176Y-168540620D01*
X105333547Y-168550395D01*
X105331551Y-168550526D01*
X105330440Y-168548863D01*
X105330773Y-168547621D01*
X105333476Y-168543575D01*
X105354256Y-168477211D01*
X105333467Y-168406412D01*
X105330773Y-168402379D01*
X105330642Y-168400383D01*
X105332305Y-168399272D01*
X105333547Y-168399605D01*
G37*
G36*
X112728891Y-166949874D02*
G01*
X112775945Y-166989197D01*
X112844661Y-166997828D01*
X112907291Y-166967864D01*
X112914802Y-166959196D01*
X112916692Y-166958542D01*
X112918203Y-166959852D01*
X112917976Y-166961617D01*
X112912644Y-166969597D01*
X112906000Y-167002999D01*
X112906000Y-168487001D01*
X112912644Y-168520403D01*
X112924055Y-168537480D01*
X112924186Y-168539476D01*
X112922523Y-168540587D01*
X112921109Y-168540126D01*
X112874055Y-168500803D01*
X112805339Y-168492172D01*
X112742709Y-168522136D01*
X112735198Y-168530804D01*
X112733308Y-168531458D01*
X112731797Y-168530148D01*
X112732024Y-168528383D01*
X112737356Y-168520403D01*
X112744000Y-168487001D01*
X112744000Y-167002999D01*
X112737356Y-166969597D01*
X112725945Y-166952520D01*
X112725814Y-166950524D01*
X112727477Y-166949413D01*
X112728891Y-166949874D01*
G37*
G36*
X115128891Y-166949874D02*
G01*
X115175945Y-166989197D01*
X115244661Y-166997828D01*
X115307291Y-166967864D01*
X115314802Y-166959196D01*
X115316692Y-166958542D01*
X115318203Y-166959852D01*
X115317976Y-166961617D01*
X115312644Y-166969597D01*
X115306000Y-167002999D01*
X115306000Y-168487001D01*
X115312644Y-168520403D01*
X115324055Y-168537480D01*
X115324186Y-168539476D01*
X115322523Y-168540587D01*
X115321109Y-168540126D01*
X115274055Y-168500803D01*
X115205339Y-168492172D01*
X115142709Y-168522136D01*
X115135198Y-168530804D01*
X115133308Y-168531458D01*
X115131797Y-168530148D01*
X115132024Y-168528383D01*
X115137356Y-168520403D01*
X115144000Y-168487001D01*
X115144000Y-167002999D01*
X115137356Y-166969597D01*
X115125945Y-166952520D01*
X115125814Y-166950524D01*
X115127477Y-166949413D01*
X115128891Y-166949874D01*
G37*
G36*
X115928891Y-166949874D02*
G01*
X115975945Y-166989197D01*
X116044661Y-166997828D01*
X116107291Y-166967864D01*
X116114802Y-166959196D01*
X116116692Y-166958542D01*
X116118203Y-166959852D01*
X116117976Y-166961617D01*
X116112644Y-166969597D01*
X116106000Y-167002999D01*
X116106000Y-168487001D01*
X116112644Y-168520403D01*
X116124055Y-168537480D01*
X116124186Y-168539476D01*
X116122523Y-168540587D01*
X116121109Y-168540126D01*
X116074055Y-168500803D01*
X116005339Y-168492172D01*
X115942709Y-168522136D01*
X115935198Y-168530804D01*
X115933308Y-168531458D01*
X115931797Y-168530148D01*
X115932024Y-168528383D01*
X115937356Y-168520403D01*
X115944000Y-168487001D01*
X115944000Y-167002999D01*
X115937356Y-166969597D01*
X115925945Y-166952520D01*
X115925814Y-166950524D01*
X115927477Y-166949413D01*
X115928891Y-166949874D01*
G37*
G36*
X114328891Y-166949874D02*
G01*
X114375945Y-166989197D01*
X114444661Y-166997828D01*
X114507291Y-166967864D01*
X114514802Y-166959196D01*
X114516692Y-166958542D01*
X114518203Y-166959852D01*
X114517976Y-166961617D01*
X114512644Y-166969597D01*
X114506000Y-167002999D01*
X114506000Y-168487001D01*
X114512644Y-168520403D01*
X114524055Y-168537480D01*
X114524186Y-168539476D01*
X114522523Y-168540587D01*
X114521109Y-168540126D01*
X114474055Y-168500803D01*
X114405339Y-168492172D01*
X114342709Y-168522136D01*
X114335198Y-168530804D01*
X114333308Y-168531458D01*
X114331797Y-168530148D01*
X114332024Y-168528383D01*
X114337356Y-168520403D01*
X114344000Y-168487001D01*
X114344000Y-167002999D01*
X114337356Y-166969597D01*
X114325945Y-166952520D01*
X114325814Y-166950524D01*
X114327477Y-166949413D01*
X114328891Y-166949874D01*
G37*
G36*
X116728891Y-166949874D02*
G01*
X116775945Y-166989197D01*
X116844661Y-166997828D01*
X116907291Y-166967864D01*
X116914802Y-166959196D01*
X116916692Y-166958542D01*
X116918203Y-166959852D01*
X116917976Y-166961617D01*
X116912644Y-166969597D01*
X116906000Y-167002999D01*
X116906000Y-168487001D01*
X116912644Y-168520403D01*
X116924055Y-168537480D01*
X116924186Y-168539476D01*
X116922523Y-168540587D01*
X116921109Y-168540126D01*
X116874055Y-168500803D01*
X116805339Y-168492172D01*
X116742709Y-168522136D01*
X116735198Y-168530804D01*
X116733308Y-168531458D01*
X116731797Y-168530148D01*
X116732024Y-168528383D01*
X116737356Y-168520403D01*
X116744000Y-168487001D01*
X116744000Y-167002999D01*
X116737356Y-166969597D01*
X116725945Y-166952520D01*
X116725814Y-166950524D01*
X116727477Y-166949413D01*
X116728891Y-166949874D01*
G37*
G36*
X113528891Y-166949874D02*
G01*
X113575945Y-166989197D01*
X113644661Y-166997828D01*
X113707291Y-166967864D01*
X113714802Y-166959196D01*
X113716692Y-166958542D01*
X113718203Y-166959852D01*
X113717976Y-166961617D01*
X113712644Y-166969597D01*
X113706000Y-167002999D01*
X113706000Y-168487001D01*
X113712644Y-168520403D01*
X113724055Y-168537480D01*
X113724186Y-168539476D01*
X113722523Y-168540587D01*
X113721109Y-168540126D01*
X113674055Y-168500803D01*
X113605339Y-168492172D01*
X113542709Y-168522136D01*
X113535198Y-168530804D01*
X113533308Y-168531458D01*
X113531797Y-168530148D01*
X113532024Y-168528383D01*
X113537356Y-168520403D01*
X113544000Y-168487001D01*
X113544000Y-167002999D01*
X113537356Y-166969597D01*
X113525945Y-166952520D01*
X113525814Y-166950524D01*
X113527477Y-166949413D01*
X113528891Y-166949874D01*
G37*
G36*
X117528891Y-166949874D02*
G01*
X117575945Y-166989197D01*
X117644661Y-166997828D01*
X117707291Y-166967864D01*
X117714802Y-166959196D01*
X117716692Y-166958542D01*
X117718203Y-166959852D01*
X117717976Y-166961617D01*
X117712644Y-166969597D01*
X117706000Y-167002999D01*
X117706000Y-168487001D01*
X117712644Y-168520403D01*
X117724055Y-168537480D01*
X117724186Y-168539476D01*
X117722523Y-168540587D01*
X117721109Y-168540126D01*
X117674055Y-168500803D01*
X117605339Y-168492172D01*
X117542709Y-168522136D01*
X117535198Y-168530804D01*
X117533308Y-168531458D01*
X117531797Y-168530148D01*
X117532024Y-168528383D01*
X117537356Y-168520403D01*
X117544000Y-168487001D01*
X117544000Y-167002999D01*
X117537356Y-166969597D01*
X117525945Y-166952520D01*
X117525814Y-166950524D01*
X117527477Y-166949413D01*
X117528891Y-166949874D01*
G37*
G36*
X93993547Y-167899605D02*
G01*
X94008176Y-167909380D01*
X94031399Y-167914000D01*
X95478601Y-167914000D01*
X95501824Y-167909380D01*
X95516453Y-167899605D01*
X95518449Y-167899474D01*
X95519560Y-167901137D01*
X95519227Y-167902379D01*
X95516524Y-167906425D01*
X95495744Y-167972789D01*
X95516533Y-168043588D01*
X95519227Y-168047621D01*
X95519358Y-168049617D01*
X95517695Y-168050728D01*
X95516453Y-168050395D01*
X95501824Y-168040620D01*
X95478601Y-168036000D01*
X94031399Y-168036000D01*
X94008176Y-168040620D01*
X93993547Y-168050395D01*
X93991551Y-168050526D01*
X93990440Y-168048863D01*
X93990773Y-168047621D01*
X93993476Y-168043575D01*
X94014256Y-167977211D01*
X93993467Y-167906412D01*
X93990773Y-167902379D01*
X93990642Y-167900383D01*
X93992305Y-167899272D01*
X93993547Y-167899605D01*
G37*
G36*
X105333547Y-167899605D02*
G01*
X105348176Y-167909380D01*
X105371399Y-167914000D01*
X106818601Y-167914000D01*
X106841824Y-167909380D01*
X106856453Y-167899605D01*
X106858449Y-167899474D01*
X106859560Y-167901137D01*
X106859227Y-167902379D01*
X106856524Y-167906425D01*
X106835744Y-167972789D01*
X106856533Y-168043588D01*
X106859227Y-168047621D01*
X106859358Y-168049617D01*
X106857695Y-168050728D01*
X106856453Y-168050395D01*
X106841824Y-168040620D01*
X106818601Y-168036000D01*
X105371399Y-168036000D01*
X105348176Y-168040620D01*
X105333547Y-168050395D01*
X105331551Y-168050526D01*
X105330440Y-168048863D01*
X105330773Y-168047621D01*
X105333476Y-168043575D01*
X105354256Y-167977211D01*
X105333467Y-167906412D01*
X105330773Y-167902379D01*
X105330642Y-167900383D01*
X105332305Y-167899272D01*
X105333547Y-167899605D01*
G37*
G36*
X93993547Y-167399605D02*
G01*
X94008176Y-167409380D01*
X94031399Y-167414000D01*
X95478601Y-167414000D01*
X95501824Y-167409380D01*
X95516453Y-167399605D01*
X95518449Y-167399474D01*
X95519560Y-167401137D01*
X95519227Y-167402379D01*
X95516524Y-167406425D01*
X95495744Y-167472789D01*
X95516533Y-167543588D01*
X95519227Y-167547621D01*
X95519358Y-167549617D01*
X95517695Y-167550728D01*
X95516453Y-167550395D01*
X95501824Y-167540620D01*
X95478601Y-167536000D01*
X94031399Y-167536000D01*
X94008176Y-167540620D01*
X93993547Y-167550395D01*
X93991551Y-167550526D01*
X93990440Y-167548863D01*
X93990773Y-167547621D01*
X93993476Y-167543575D01*
X94014256Y-167477211D01*
X93993467Y-167406412D01*
X93990773Y-167402379D01*
X93990642Y-167400383D01*
X93992305Y-167399272D01*
X93993547Y-167399605D01*
G37*
G36*
X105333547Y-167399605D02*
G01*
X105348176Y-167409380D01*
X105371399Y-167414000D01*
X106818601Y-167414000D01*
X106841824Y-167409380D01*
X106856453Y-167399605D01*
X106858449Y-167399474D01*
X106859560Y-167401137D01*
X106859227Y-167402379D01*
X106856524Y-167406425D01*
X106835744Y-167472789D01*
X106856533Y-167543588D01*
X106859227Y-167547621D01*
X106859358Y-167549617D01*
X106857695Y-167550728D01*
X106856453Y-167550395D01*
X106841824Y-167540620D01*
X106818601Y-167536000D01*
X105371399Y-167536000D01*
X105348176Y-167540620D01*
X105333547Y-167550395D01*
X105331551Y-167550526D01*
X105330440Y-167548863D01*
X105330773Y-167547621D01*
X105333476Y-167543575D01*
X105354256Y-167477211D01*
X105333467Y-167406412D01*
X105330773Y-167402379D01*
X105330642Y-167400383D01*
X105332305Y-167399272D01*
X105333547Y-167399605D01*
G37*
G36*
X93993547Y-166899605D02*
G01*
X94008176Y-166909380D01*
X94031399Y-166914000D01*
X95478601Y-166914000D01*
X95501824Y-166909380D01*
X95516453Y-166899605D01*
X95518449Y-166899474D01*
X95519560Y-166901137D01*
X95519227Y-166902379D01*
X95516524Y-166906425D01*
X95495744Y-166972789D01*
X95516533Y-167043588D01*
X95519227Y-167047621D01*
X95519358Y-167049617D01*
X95517695Y-167050728D01*
X95516453Y-167050395D01*
X95501824Y-167040620D01*
X95478601Y-167036000D01*
X94031399Y-167036000D01*
X94008176Y-167040620D01*
X93993547Y-167050395D01*
X93991551Y-167050526D01*
X93990440Y-167048863D01*
X93990773Y-167047621D01*
X93993476Y-167043575D01*
X94014256Y-166977211D01*
X93993467Y-166906412D01*
X93990773Y-166902379D01*
X93990642Y-166900383D01*
X93992305Y-166899272D01*
X93993547Y-166899605D01*
G37*
G36*
X105333547Y-166899605D02*
G01*
X105348176Y-166909380D01*
X105371399Y-166914000D01*
X106818601Y-166914000D01*
X106841824Y-166909380D01*
X106856453Y-166899605D01*
X106858449Y-166899474D01*
X106859560Y-166901137D01*
X106859227Y-166902379D01*
X106856524Y-166906425D01*
X106835744Y-166972789D01*
X106856533Y-167043588D01*
X106859227Y-167047621D01*
X106859358Y-167049617D01*
X106857695Y-167050728D01*
X106856453Y-167050395D01*
X106841824Y-167040620D01*
X106818601Y-167036000D01*
X105371399Y-167036000D01*
X105348176Y-167040620D01*
X105333547Y-167050395D01*
X105331551Y-167050526D01*
X105330440Y-167048863D01*
X105330773Y-167047621D01*
X105333476Y-167043575D01*
X105354256Y-166977211D01*
X105333467Y-166906412D01*
X105330773Y-166902379D01*
X105330642Y-166900383D01*
X105332305Y-166899272D01*
X105333547Y-166899605D01*
G37*
G36*
X99852379Y-164040773D02*
G01*
X99856425Y-164043476D01*
X99922789Y-164064256D01*
X99993588Y-164043467D01*
X99997621Y-164040773D01*
X99999617Y-164040642D01*
X100000728Y-164042305D01*
X100000395Y-164043547D01*
X99990620Y-164058176D01*
X99986000Y-164081399D01*
X99986000Y-165528601D01*
X99990620Y-165551824D01*
X100000395Y-165566453D01*
X100000526Y-165568449D01*
X99998863Y-165569560D01*
X99997621Y-165569227D01*
X99993575Y-165566524D01*
X99927211Y-165545744D01*
X99856412Y-165566533D01*
X99852379Y-165569227D01*
X99850383Y-165569358D01*
X99849272Y-165567695D01*
X99849605Y-165566453D01*
X99859380Y-165551824D01*
X99864000Y-165528601D01*
X99864000Y-164081399D01*
X99859380Y-164058176D01*
X99849605Y-164043547D01*
X99849474Y-164041551D01*
X99851137Y-164040440D01*
X99852379Y-164040773D01*
G37*
G36*
X102352379Y-164040773D02*
G01*
X102356425Y-164043476D01*
X102422789Y-164064256D01*
X102493588Y-164043467D01*
X102497621Y-164040773D01*
X102499617Y-164040642D01*
X102500728Y-164042305D01*
X102500395Y-164043547D01*
X102490620Y-164058176D01*
X102486000Y-164081399D01*
X102486000Y-165528601D01*
X102490620Y-165551824D01*
X102500395Y-165566453D01*
X102500526Y-165568449D01*
X102498863Y-165569560D01*
X102497621Y-165569227D01*
X102493575Y-165566524D01*
X102427211Y-165545744D01*
X102356412Y-165566533D01*
X102352379Y-165569227D01*
X102350383Y-165569358D01*
X102349272Y-165567695D01*
X102349605Y-165566453D01*
X102359380Y-165551824D01*
X102364000Y-165528601D01*
X102364000Y-164081399D01*
X102359380Y-164058176D01*
X102349605Y-164043547D01*
X102349474Y-164041551D01*
X102351137Y-164040440D01*
X102352379Y-164040773D01*
G37*
G36*
X103852379Y-164040773D02*
G01*
X103856425Y-164043476D01*
X103922789Y-164064256D01*
X103993588Y-164043467D01*
X103997621Y-164040773D01*
X103999617Y-164040642D01*
X104000728Y-164042305D01*
X104000395Y-164043547D01*
X103990620Y-164058176D01*
X103986000Y-164081399D01*
X103986000Y-165528601D01*
X103990620Y-165551824D01*
X104000395Y-165566453D01*
X104000526Y-165568449D01*
X103998863Y-165569560D01*
X103997621Y-165569227D01*
X103993575Y-165566524D01*
X103927211Y-165545744D01*
X103856412Y-165566533D01*
X103852379Y-165569227D01*
X103850383Y-165569358D01*
X103849272Y-165567695D01*
X103849605Y-165566453D01*
X103859380Y-165551824D01*
X103864000Y-165528601D01*
X103864000Y-164081399D01*
X103859380Y-164058176D01*
X103849605Y-164043547D01*
X103849474Y-164041551D01*
X103851137Y-164040440D01*
X103852379Y-164040773D01*
G37*
G36*
X97852379Y-164040773D02*
G01*
X97856425Y-164043476D01*
X97922789Y-164064256D01*
X97993588Y-164043467D01*
X97997621Y-164040773D01*
X97999617Y-164040642D01*
X98000728Y-164042305D01*
X98000395Y-164043547D01*
X97990620Y-164058176D01*
X97986000Y-164081399D01*
X97986000Y-165528601D01*
X97990620Y-165551824D01*
X98000395Y-165566453D01*
X98000526Y-165568449D01*
X97998863Y-165569560D01*
X97997621Y-165569227D01*
X97993575Y-165566524D01*
X97927211Y-165545744D01*
X97856412Y-165566533D01*
X97852379Y-165569227D01*
X97850383Y-165569358D01*
X97849272Y-165567695D01*
X97849605Y-165566453D01*
X97859380Y-165551824D01*
X97864000Y-165528601D01*
X97864000Y-164081399D01*
X97859380Y-164058176D01*
X97849605Y-164043547D01*
X97849474Y-164041551D01*
X97851137Y-164040440D01*
X97852379Y-164040773D01*
G37*
G36*
X99352379Y-164040773D02*
G01*
X99356425Y-164043476D01*
X99422789Y-164064256D01*
X99493588Y-164043467D01*
X99497621Y-164040773D01*
X99499617Y-164040642D01*
X99500728Y-164042305D01*
X99500395Y-164043547D01*
X99490620Y-164058176D01*
X99486000Y-164081399D01*
X99486000Y-165528601D01*
X99490620Y-165551824D01*
X99500395Y-165566453D01*
X99500526Y-165568449D01*
X99498863Y-165569560D01*
X99497621Y-165569227D01*
X99493575Y-165566524D01*
X99427211Y-165545744D01*
X99356412Y-165566533D01*
X99352379Y-165569227D01*
X99350383Y-165569358D01*
X99349272Y-165567695D01*
X99349605Y-165566453D01*
X99359380Y-165551824D01*
X99364000Y-165528601D01*
X99364000Y-164081399D01*
X99359380Y-164058176D01*
X99349605Y-164043547D01*
X99349474Y-164041551D01*
X99351137Y-164040440D01*
X99352379Y-164040773D01*
G37*
G36*
X103352379Y-164040773D02*
G01*
X103356425Y-164043476D01*
X103422789Y-164064256D01*
X103493588Y-164043467D01*
X103497621Y-164040773D01*
X103499617Y-164040642D01*
X103500728Y-164042305D01*
X103500395Y-164043547D01*
X103490620Y-164058176D01*
X103486000Y-164081399D01*
X103486000Y-165528601D01*
X103490620Y-165551824D01*
X103500395Y-165566453D01*
X103500526Y-165568449D01*
X103498863Y-165569560D01*
X103497621Y-165569227D01*
X103493575Y-165566524D01*
X103427211Y-165545744D01*
X103356412Y-165566533D01*
X103352379Y-165569227D01*
X103350383Y-165569358D01*
X103349272Y-165567695D01*
X103349605Y-165566453D01*
X103359380Y-165551824D01*
X103364000Y-165528601D01*
X103364000Y-164081399D01*
X103359380Y-164058176D01*
X103349605Y-164043547D01*
X103349474Y-164041551D01*
X103351137Y-164040440D01*
X103352379Y-164040773D01*
G37*
G36*
X102852379Y-164040773D02*
G01*
X102856425Y-164043476D01*
X102922789Y-164064256D01*
X102993588Y-164043467D01*
X102997621Y-164040773D01*
X102999617Y-164040642D01*
X103000728Y-164042305D01*
X103000395Y-164043547D01*
X102990620Y-164058176D01*
X102986000Y-164081399D01*
X102986000Y-165528601D01*
X102990620Y-165551824D01*
X103000395Y-165566453D01*
X103000526Y-165568449D01*
X102998863Y-165569560D01*
X102997621Y-165569227D01*
X102993575Y-165566524D01*
X102927211Y-165545744D01*
X102856412Y-165566533D01*
X102852379Y-165569227D01*
X102850383Y-165569358D01*
X102849272Y-165567695D01*
X102849605Y-165566453D01*
X102859380Y-165551824D01*
X102864000Y-165528601D01*
X102864000Y-164081399D01*
X102859380Y-164058176D01*
X102849605Y-164043547D01*
X102849474Y-164041551D01*
X102851137Y-164040440D01*
X102852379Y-164040773D01*
G37*
G36*
X96852379Y-164040773D02*
G01*
X96856425Y-164043476D01*
X96922789Y-164064256D01*
X96993588Y-164043467D01*
X96997621Y-164040773D01*
X96999617Y-164040642D01*
X97000728Y-164042305D01*
X97000395Y-164043547D01*
X96990620Y-164058176D01*
X96986000Y-164081399D01*
X96986000Y-165528601D01*
X96990620Y-165551824D01*
X97000395Y-165566453D01*
X97000526Y-165568449D01*
X96998863Y-165569560D01*
X96997621Y-165569227D01*
X96993575Y-165566524D01*
X96927211Y-165545744D01*
X96856412Y-165566533D01*
X96852379Y-165569227D01*
X96850383Y-165569358D01*
X96849272Y-165567695D01*
X96849605Y-165566453D01*
X96859380Y-165551824D01*
X96864000Y-165528601D01*
X96864000Y-164081399D01*
X96859380Y-164058176D01*
X96849605Y-164043547D01*
X96849474Y-164041551D01*
X96851137Y-164040440D01*
X96852379Y-164040773D01*
G37*
G36*
X98352379Y-164040773D02*
G01*
X98356425Y-164043476D01*
X98422789Y-164064256D01*
X98493588Y-164043467D01*
X98497621Y-164040773D01*
X98499617Y-164040642D01*
X98500728Y-164042305D01*
X98500395Y-164043547D01*
X98490620Y-164058176D01*
X98486000Y-164081399D01*
X98486000Y-165528601D01*
X98490620Y-165551824D01*
X98500395Y-165566453D01*
X98500526Y-165568449D01*
X98498863Y-165569560D01*
X98497621Y-165569227D01*
X98493575Y-165566524D01*
X98427211Y-165545744D01*
X98356412Y-165566533D01*
X98352379Y-165569227D01*
X98350383Y-165569358D01*
X98349272Y-165567695D01*
X98349605Y-165566453D01*
X98359380Y-165551824D01*
X98364000Y-165528601D01*
X98364000Y-164081399D01*
X98359380Y-164058176D01*
X98349605Y-164043547D01*
X98349474Y-164041551D01*
X98351137Y-164040440D01*
X98352379Y-164040773D01*
G37*
G36*
X97352379Y-164040773D02*
G01*
X97356425Y-164043476D01*
X97422789Y-164064256D01*
X97493588Y-164043467D01*
X97497621Y-164040773D01*
X97499617Y-164040642D01*
X97500728Y-164042305D01*
X97500395Y-164043547D01*
X97490620Y-164058176D01*
X97486000Y-164081399D01*
X97486000Y-165528601D01*
X97490620Y-165551824D01*
X97500395Y-165566453D01*
X97500526Y-165568449D01*
X97498863Y-165569560D01*
X97497621Y-165569227D01*
X97493575Y-165566524D01*
X97427211Y-165545744D01*
X97356412Y-165566533D01*
X97352379Y-165569227D01*
X97350383Y-165569358D01*
X97349272Y-165567695D01*
X97349605Y-165566453D01*
X97359380Y-165551824D01*
X97364000Y-165528601D01*
X97364000Y-164081399D01*
X97359380Y-164058176D01*
X97349605Y-164043547D01*
X97349474Y-164041551D01*
X97351137Y-164040440D01*
X97352379Y-164040773D01*
G37*
G36*
X101852379Y-164040773D02*
G01*
X101856425Y-164043476D01*
X101922789Y-164064256D01*
X101993588Y-164043467D01*
X101997621Y-164040773D01*
X101999617Y-164040642D01*
X102000728Y-164042305D01*
X102000395Y-164043547D01*
X101990620Y-164058176D01*
X101986000Y-164081399D01*
X101986000Y-165528601D01*
X101990620Y-165551824D01*
X102000395Y-165566453D01*
X102000526Y-165568449D01*
X101998863Y-165569560D01*
X101997621Y-165569227D01*
X101993575Y-165566524D01*
X101927211Y-165545744D01*
X101856412Y-165566533D01*
X101852379Y-165569227D01*
X101850383Y-165569358D01*
X101849272Y-165567695D01*
X101849605Y-165566453D01*
X101859380Y-165551824D01*
X101864000Y-165528601D01*
X101864000Y-164081399D01*
X101859380Y-164058176D01*
X101849605Y-164043547D01*
X101849474Y-164041551D01*
X101851137Y-164040440D01*
X101852379Y-164040773D01*
G37*
G36*
X101352379Y-164040773D02*
G01*
X101356425Y-164043476D01*
X101422789Y-164064256D01*
X101493588Y-164043467D01*
X101497621Y-164040773D01*
X101499617Y-164040642D01*
X101500728Y-164042305D01*
X101500395Y-164043547D01*
X101490620Y-164058176D01*
X101486000Y-164081399D01*
X101486000Y-165528601D01*
X101490620Y-165551824D01*
X101500395Y-165566453D01*
X101500526Y-165568449D01*
X101498863Y-165569560D01*
X101497621Y-165569227D01*
X101493575Y-165566524D01*
X101427211Y-165545744D01*
X101356412Y-165566533D01*
X101352379Y-165569227D01*
X101350383Y-165569358D01*
X101349272Y-165567695D01*
X101349605Y-165566453D01*
X101359380Y-165551824D01*
X101364000Y-165528601D01*
X101364000Y-164081399D01*
X101359380Y-164058176D01*
X101349605Y-164043547D01*
X101349474Y-164041551D01*
X101351137Y-164040440D01*
X101352379Y-164040773D01*
G37*
G36*
X100852379Y-164040773D02*
G01*
X100856425Y-164043476D01*
X100922789Y-164064256D01*
X100993588Y-164043467D01*
X100997621Y-164040773D01*
X100999617Y-164040642D01*
X101000728Y-164042305D01*
X101000395Y-164043547D01*
X100990620Y-164058176D01*
X100986000Y-164081399D01*
X100986000Y-165528601D01*
X100990620Y-165551824D01*
X101000395Y-165566453D01*
X101000526Y-165568449D01*
X100998863Y-165569560D01*
X100997621Y-165569227D01*
X100993575Y-165566524D01*
X100927211Y-165545744D01*
X100856412Y-165566533D01*
X100852379Y-165569227D01*
X100850383Y-165569358D01*
X100849272Y-165567695D01*
X100849605Y-165566453D01*
X100859380Y-165551824D01*
X100864000Y-165528601D01*
X100864000Y-164081399D01*
X100859380Y-164058176D01*
X100849605Y-164043547D01*
X100849474Y-164041551D01*
X100851137Y-164040440D01*
X100852379Y-164040773D01*
G37*
G36*
X100352379Y-164040773D02*
G01*
X100356425Y-164043476D01*
X100422789Y-164064256D01*
X100493588Y-164043467D01*
X100497621Y-164040773D01*
X100499617Y-164040642D01*
X100500728Y-164042305D01*
X100500395Y-164043547D01*
X100490620Y-164058176D01*
X100486000Y-164081399D01*
X100486000Y-165528601D01*
X100490620Y-165551824D01*
X100500395Y-165566453D01*
X100500526Y-165568449D01*
X100498863Y-165569560D01*
X100497621Y-165569227D01*
X100493575Y-165566524D01*
X100427211Y-165545744D01*
X100356412Y-165566533D01*
X100352379Y-165569227D01*
X100350383Y-165569358D01*
X100349272Y-165567695D01*
X100349605Y-165566453D01*
X100359380Y-165551824D01*
X100364000Y-165528601D01*
X100364000Y-164081399D01*
X100359380Y-164058176D01*
X100349605Y-164043547D01*
X100349474Y-164041551D01*
X100351137Y-164040440D01*
X100352379Y-164040773D01*
G37*
G36*
X98852379Y-164040773D02*
G01*
X98856425Y-164043476D01*
X98922789Y-164064256D01*
X98993588Y-164043467D01*
X98997621Y-164040773D01*
X98999617Y-164040642D01*
X99000728Y-164042305D01*
X99000395Y-164043547D01*
X98990620Y-164058176D01*
X98986000Y-164081399D01*
X98986000Y-165528601D01*
X98990620Y-165551824D01*
X99000395Y-165566453D01*
X99000526Y-165568449D01*
X98998863Y-165569560D01*
X98997621Y-165569227D01*
X98993575Y-165566524D01*
X98927211Y-165545744D01*
X98856412Y-165566533D01*
X98852379Y-165569227D01*
X98850383Y-165569358D01*
X98849272Y-165567695D01*
X98849605Y-165566453D01*
X98859380Y-165551824D01*
X98864000Y-165528601D01*
X98864000Y-164081399D01*
X98859380Y-164058176D01*
X98849605Y-164043547D01*
X98849474Y-164041551D01*
X98851137Y-164040440D01*
X98852379Y-164040773D01*
G37*
G36*
X85527919Y-158191120D02*
G01*
X85547596Y-158258135D01*
X85599939Y-158303490D01*
X85668492Y-158313347D01*
X85731490Y-158284576D01*
X85766439Y-158230195D01*
X85768217Y-158229278D01*
X85769900Y-158230360D01*
X85770084Y-158231666D01*
X85766000Y-158252199D01*
X85766000Y-158767801D01*
X85771606Y-158795986D01*
X85770963Y-158797880D01*
X85769001Y-158798270D01*
X85767872Y-158797303D01*
X85739453Y-158742971D01*
X85679269Y-158708696D01*
X85610111Y-158712402D01*
X85553933Y-158752909D01*
X85528481Y-158817593D01*
X85527998Y-158828404D01*
X85526922Y-158830090D01*
X85524924Y-158830001D01*
X85524000Y-158828315D01*
X85524000Y-158191683D01*
X85525000Y-158189951D01*
X85527000Y-158189951D01*
X85527919Y-158191120D01*
G37*
G36*
X83125076Y-158190022D02*
G01*
X83126000Y-158191708D01*
X83126000Y-158828312D01*
X83125000Y-158830044D01*
X83123000Y-158830044D01*
X83122081Y-158828875D01*
X83102405Y-158761863D01*
X83050062Y-158716508D01*
X82981509Y-158706651D01*
X82918511Y-158735422D01*
X82883561Y-158789804D01*
X82881783Y-158790721D01*
X82880100Y-158789639D01*
X82879916Y-158788333D01*
X82884000Y-158767801D01*
X82884000Y-158252199D01*
X82878394Y-158224016D01*
X82879037Y-158222122D01*
X82880999Y-158221732D01*
X82882128Y-158222699D01*
X82910551Y-158277034D01*
X82970735Y-158311307D01*
X83039893Y-158307599D01*
X83096070Y-158267091D01*
X83121520Y-158202406D01*
X83122002Y-158191619D01*
X83123078Y-158189933D01*
X83125076Y-158190022D01*
G37*
G36*
X85527919Y-156921125D02*
G01*
X85547595Y-156988137D01*
X85599938Y-157033492D01*
X85668491Y-157043349D01*
X85731489Y-157014578D01*
X85766439Y-156960196D01*
X85768217Y-156959279D01*
X85769900Y-156960361D01*
X85770084Y-156961667D01*
X85766000Y-156982199D01*
X85766000Y-157497801D01*
X85771606Y-157525984D01*
X85770963Y-157527878D01*
X85769001Y-157528268D01*
X85767872Y-157527301D01*
X85739449Y-157472966D01*
X85679265Y-157438693D01*
X85610107Y-157442401D01*
X85553930Y-157482909D01*
X85528480Y-157547594D01*
X85527998Y-157558381D01*
X85526922Y-157560067D01*
X85524924Y-157559978D01*
X85524000Y-157558292D01*
X85524000Y-156921688D01*
X85525000Y-156919956D01*
X85527000Y-156919956D01*
X85527919Y-156921125D01*
G37*
G36*
X83125076Y-156919999D02*
G01*
X83126000Y-156921685D01*
X83126000Y-157558317D01*
X83125000Y-157560049D01*
X83123000Y-157560049D01*
X83122081Y-157558880D01*
X83102404Y-157491865D01*
X83050061Y-157446510D01*
X82981508Y-157436653D01*
X82918510Y-157465424D01*
X82883561Y-157519805D01*
X82881783Y-157520722D01*
X82880100Y-157519640D01*
X82879916Y-157518334D01*
X82884000Y-157497801D01*
X82884000Y-156982199D01*
X82878394Y-156954014D01*
X82879037Y-156952120D01*
X82880999Y-156951730D01*
X82882128Y-156952697D01*
X82910547Y-157007029D01*
X82970731Y-157041304D01*
X83039889Y-157037598D01*
X83096067Y-156997091D01*
X83121519Y-156932407D01*
X83122002Y-156921596D01*
X83123078Y-156919910D01*
X83125076Y-156919999D01*
G37*
M02*
