G04 #@! TF.GenerationSoftware,KiCad,Pcbnew,6.0.9+dfsg-1*
G04 #@! TF.CreationDate,2023-01-25T21:24:40+01:00*
G04 #@! TF.ProjectId,siproslic,73697072-6f73-46c6-9963-2e6b69636164,rev?*
G04 #@! TF.SameCoordinates,Original*
G04 #@! TF.FileFunction,Paste,Bot*
G04 #@! TF.FilePolarity,Positive*
%FSLAX46Y46*%
G04 Gerber Fmt 4.6, Leading zero omitted, Abs format (unit mm)*
G04 Created by KiCad (PCBNEW 6.0.9+dfsg-1) date 2023-01-25 21:24:40*
%MOMM*%
%LPD*%
G01*
G04 APERTURE LIST*
G04 Aperture macros list*
%AMRoundRect*
0 Rectangle with rounded corners*
0 $1 Rounding radius*
0 $2 $3 $4 $5 $6 $7 $8 $9 X,Y pos of 4 corners*
0 Add a 4 corners polygon primitive as box body*
4,1,4,$2,$3,$4,$5,$6,$7,$8,$9,$2,$3,0*
0 Add four circle primitives for the rounded corners*
1,1,$1+$1,$2,$3*
1,1,$1+$1,$4,$5*
1,1,$1+$1,$6,$7*
1,1,$1+$1,$8,$9*
0 Add four rect primitives between the rounded corners*
20,1,$1+$1,$2,$3,$4,$5,0*
20,1,$1+$1,$4,$5,$6,$7,0*
20,1,$1+$1,$6,$7,$8,$9,0*
20,1,$1+$1,$8,$9,$2,$3,0*%
G04 Aperture macros list end*
%ADD10RoundRect,0.218750X0.256250X-0.218750X0.256250X0.218750X-0.256250X0.218750X-0.256250X-0.218750X0*%
%ADD11RoundRect,0.218750X-0.256250X0.218750X-0.256250X-0.218750X0.256250X-0.218750X0.256250X0.218750X0*%
%ADD12RoundRect,0.250000X0.450000X-0.262500X0.450000X0.262500X-0.450000X0.262500X-0.450000X-0.262500X0*%
%ADD13RoundRect,0.037800X0.232200X-0.742200X0.232200X0.742200X-0.232200X0.742200X-0.232200X-0.742200X0*%
%ADD14RoundRect,0.037800X0.742200X0.232200X-0.742200X0.232200X-0.742200X-0.232200X0.742200X-0.232200X0*%
%ADD15RoundRect,0.042000X0.943000X0.258000X-0.943000X0.258000X-0.943000X-0.258000X0.943000X-0.258000X0*%
%ADD16RoundRect,0.250000X-0.262500X-0.450000X0.262500X-0.450000X0.262500X0.450000X-0.262500X0.450000X0*%
%ADD17RoundRect,0.250000X-0.250000X-0.475000X0.250000X-0.475000X0.250000X0.475000X-0.250000X0.475000X0*%
%ADD18RoundRect,0.250000X0.250000X0.475000X-0.250000X0.475000X-0.250000X-0.475000X0.250000X-0.475000X0*%
%ADD19RoundRect,0.250000X0.412500X0.925000X-0.412500X0.925000X-0.412500X-0.925000X0.412500X-0.925000X0*%
%ADD20R,5.500000X2.000000*%
G04 APERTURE END LIST*
D10*
X128375000Y-183912500D03*
X128375000Y-182337500D03*
D11*
X126875000Y-182337500D03*
X126875000Y-183912500D03*
D12*
X101375000Y-160087500D03*
X101375000Y-158262500D03*
D13*
X118022500Y-167745000D03*
X117222500Y-167745000D03*
X116422500Y-167745000D03*
X115622500Y-167745000D03*
X114822500Y-167745000D03*
X114022500Y-167745000D03*
X113222500Y-167745000D03*
X112422500Y-167745000D03*
D14*
X111042500Y-169125000D03*
X111042500Y-169925000D03*
X111042500Y-170725000D03*
X111042500Y-171525000D03*
X111042500Y-172325000D03*
X111042500Y-173125000D03*
X111042500Y-173925000D03*
X111042500Y-174725000D03*
D13*
X112422500Y-176105000D03*
X113222500Y-176105000D03*
X114022500Y-176105000D03*
X114822500Y-176105000D03*
X115622500Y-176105000D03*
X116422500Y-176105000D03*
X117222500Y-176105000D03*
X118022500Y-176105000D03*
D14*
X119402500Y-174725000D03*
X119402500Y-173925000D03*
X119402500Y-173125000D03*
X119402500Y-172325000D03*
X119402500Y-171525000D03*
X119402500Y-170725000D03*
X119402500Y-169925000D03*
X119402500Y-169125000D03*
D15*
X86795000Y-169305000D03*
X86795000Y-170575000D03*
X86795000Y-171845000D03*
X86795000Y-173115000D03*
X81855000Y-173115000D03*
X81855000Y-171845000D03*
X81855000Y-170575000D03*
X81855000Y-169305000D03*
X86795000Y-153420000D03*
X86795000Y-154690000D03*
X86795000Y-155960000D03*
X86795000Y-157230000D03*
X81855000Y-157230000D03*
X81855000Y-155960000D03*
X81855000Y-154690000D03*
X81855000Y-153420000D03*
D16*
X91737500Y-171360000D03*
X89912500Y-171360000D03*
X91750000Y-167260000D03*
X89925000Y-167260000D03*
X91750000Y-151475000D03*
X89925000Y-151475000D03*
D17*
X83275000Y-167260000D03*
X81375000Y-167260000D03*
D16*
X89912500Y-155625000D03*
X91737500Y-155625000D03*
X91737500Y-153525000D03*
X89912500Y-153525000D03*
D17*
X87275000Y-151475000D03*
X85375000Y-151475000D03*
D18*
X124875000Y-172125000D03*
X122975000Y-172125000D03*
D16*
X89912500Y-157725000D03*
X91737500Y-157725000D03*
D19*
X127962500Y-155925000D03*
X124887500Y-155925000D03*
D20*
X89875000Y-159945000D03*
X89875000Y-163805000D03*
D16*
X91737500Y-173410000D03*
X89912500Y-173410000D03*
D17*
X87275000Y-167260000D03*
X85375000Y-167260000D03*
X83275000Y-151475000D03*
X81375000Y-151475000D03*
D18*
X124875000Y-167225000D03*
X122975000Y-167225000D03*
D20*
X83625000Y-159945000D03*
X83625000Y-163805000D03*
X89875000Y-175630000D03*
X89875000Y-179490000D03*
D19*
X127962500Y-151225000D03*
X124887500Y-151225000D03*
D16*
X91750000Y-169310000D03*
X89925000Y-169310000D03*
D20*
X83625000Y-179490000D03*
X83625000Y-175630000D03*
M02*
