G04 #@! TF.GenerationSoftware,KiCad,Pcbnew,6.0.9+dfsg-1*
G04 #@! TF.CreationDate,2023-01-25T21:24:40+01:00*
G04 #@! TF.ProjectId,siproslic,73697072-6f73-46c6-9963-2e6b69636164,rev?*
G04 #@! TF.SameCoordinates,Original*
G04 #@! TF.FileFunction,Legend,Top*
G04 #@! TF.FilePolarity,Positive*
%FSLAX46Y46*%
G04 Gerber Fmt 4.6, Leading zero omitted, Abs format (unit mm)*
G04 Created by KiCad (PCBNEW 6.0.9+dfsg-1) date 2023-01-25 21:24:40*
%MOMM*%
%LPD*%
G01*
G04 APERTURE LIST*
G04 Aperture macros list*
%AMRoundRect*
0 Rectangle with rounded corners*
0 $1 Rounding radius*
0 $2 $3 $4 $5 $6 $7 $8 $9 X,Y pos of 4 corners*
0 Add a 4 corners polygon primitive as box body*
4,1,4,$2,$3,$4,$5,$6,$7,$8,$9,$2,$3,0*
0 Add four circle primitives for the rounded corners*
1,1,$1+$1,$2,$3*
1,1,$1+$1,$4,$5*
1,1,$1+$1,$6,$7*
1,1,$1+$1,$8,$9*
0 Add four rect primitives between the rounded corners*
20,1,$1+$1,$2,$3,$4,$5,0*
20,1,$1+$1,$4,$5,$6,$7,0*
20,1,$1+$1,$6,$7,$8,$9,0*
20,1,$1+$1,$8,$9,$2,$3,0*%
G04 Aperture macros list end*
%ADD10C,0.150000*%
%ADD11C,0.120000*%
%ADD12C,0.200000*%
%ADD13C,0.127000*%
%ADD14C,0.400000*%
%ADD15C,0.300000*%
%ADD16C,3.302000*%
%ADD17RoundRect,0.269750X0.218750X0.256250X-0.218750X0.256250X-0.218750X-0.256250X0.218750X-0.256250X0*%
%ADD18RoundRect,0.269750X-0.218750X-0.256250X0.218750X-0.256250X0.218750X0.256250X-0.218750X0.256250X0*%
%ADD19RoundRect,0.051000X-0.850000X-0.850000X0.850000X-0.850000X0.850000X0.850000X-0.850000X0.850000X0*%
%ADD20O,1.802000X1.802000*%
%ADD21C,1.802000*%
%ADD22RoundRect,0.301000X-0.250000X-0.475000X0.250000X-0.475000X0.250000X0.475000X-0.250000X0.475000X0*%
%ADD23RoundRect,0.301000X-0.262500X-0.450000X0.262500X-0.450000X0.262500X0.450000X-0.262500X0.450000X0*%
%ADD24C,1.702000*%
%ADD25RoundRect,0.051000X-0.800000X0.800000X-0.800000X-0.800000X0.800000X-0.800000X0.800000X0.800000X0*%
%ADD26RoundRect,0.062200X-2.988800X-2.988800X2.988800X-2.988800X2.988800X2.988800X-2.988800X2.988800X0*%
%ADD27RoundRect,0.062200X0.128800X-0.723800X0.128800X0.723800X-0.128800X0.723800X-0.128800X-0.723800X0*%
%ADD28RoundRect,0.062200X-0.723800X-0.128800X0.723800X-0.128800X0.723800X0.128800X-0.723800X0.128800X0*%
%ADD29RoundRect,0.088800X0.232200X-0.742200X0.232200X0.742200X-0.232200X0.742200X-0.232200X-0.742200X0*%
%ADD30RoundRect,0.088800X-0.742200X-0.232200X0.742200X-0.232200X0.742200X0.232200X-0.742200X0.232200X0*%
%ADD31RoundRect,0.093000X-1.108000X-1.758000X1.108000X-1.758000X1.108000X1.758000X-1.108000X1.758000X0*%
%ADD32RoundRect,0.093000X-0.943000X-0.258000X0.943000X-0.258000X0.943000X0.258000X-0.943000X0.258000X0*%
%ADD33RoundRect,0.051000X-0.704000X0.704000X-0.704000X-0.704000X0.704000X-0.704000X0.704000X0.704000X0*%
%ADD34C,1.510000*%
%ADD35C,1.602000*%
%ADD36RoundRect,0.051000X0.800000X-0.800000X0.800000X0.800000X-0.800000X0.800000X-0.800000X-0.800000X0*%
%ADD37C,4.102000*%
%ADD38RoundRect,0.051000X0.850000X0.850000X-0.850000X0.850000X-0.850000X-0.850000X0.850000X-0.850000X0*%
G04 APERTURE END LIST*
D10*
X123482142Y-179702380D02*
X123148809Y-179226190D01*
X122910714Y-179702380D02*
X122910714Y-178702380D01*
X123291666Y-178702380D01*
X123386904Y-178750000D01*
X123434523Y-178797619D01*
X123482142Y-178892857D01*
X123482142Y-179035714D01*
X123434523Y-179130952D01*
X123386904Y-179178571D01*
X123291666Y-179226190D01*
X122910714Y-179226190D01*
X124434523Y-179702380D02*
X123863095Y-179702380D01*
X124148809Y-179702380D02*
X124148809Y-178702380D01*
X124053571Y-178845238D01*
X123958333Y-178940476D01*
X123863095Y-178988095D01*
X125053571Y-178702380D02*
X125148809Y-178702380D01*
X125244047Y-178750000D01*
X125291666Y-178797619D01*
X125339285Y-178892857D01*
X125386904Y-179083333D01*
X125386904Y-179321428D01*
X125339285Y-179511904D01*
X125291666Y-179607142D01*
X125244047Y-179654761D01*
X125148809Y-179702380D01*
X125053571Y-179702380D01*
X124958333Y-179654761D01*
X124910714Y-179607142D01*
X124863095Y-179511904D01*
X124815476Y-179321428D01*
X124815476Y-179083333D01*
X124863095Y-178892857D01*
X124910714Y-178797619D01*
X124958333Y-178750000D01*
X125053571Y-178702380D01*
X126958333Y-179702380D02*
X126625000Y-179226190D01*
X126386904Y-179702380D02*
X126386904Y-178702380D01*
X126767857Y-178702380D01*
X126863095Y-178750000D01*
X126910714Y-178797619D01*
X126958333Y-178892857D01*
X126958333Y-179035714D01*
X126910714Y-179130952D01*
X126863095Y-179178571D01*
X126767857Y-179226190D01*
X126386904Y-179226190D01*
X127434523Y-179702380D02*
X127625000Y-179702380D01*
X127720238Y-179654761D01*
X127767857Y-179607142D01*
X127863095Y-179464285D01*
X127910714Y-179273809D01*
X127910714Y-178892857D01*
X127863095Y-178797619D01*
X127815476Y-178750000D01*
X127720238Y-178702380D01*
X127529761Y-178702380D01*
X127434523Y-178750000D01*
X127386904Y-178797619D01*
X127339285Y-178892857D01*
X127339285Y-179130952D01*
X127386904Y-179226190D01*
X127434523Y-179273809D01*
X127529761Y-179321428D01*
X127720238Y-179321428D01*
X127815476Y-179273809D01*
X127863095Y-179226190D01*
X127910714Y-179130952D01*
X86082142Y-150132142D02*
X86034523Y-150179761D01*
X85891666Y-150227380D01*
X85796428Y-150227380D01*
X85653571Y-150179761D01*
X85558333Y-150084523D01*
X85510714Y-149989285D01*
X85463095Y-149798809D01*
X85463095Y-149655952D01*
X85510714Y-149465476D01*
X85558333Y-149370238D01*
X85653571Y-149275000D01*
X85796428Y-149227380D01*
X85891666Y-149227380D01*
X86034523Y-149275000D01*
X86082142Y-149322619D01*
X87034523Y-150227380D02*
X86463095Y-150227380D01*
X86748809Y-150227380D02*
X86748809Y-149227380D01*
X86653571Y-149370238D01*
X86558333Y-149465476D01*
X86463095Y-149513095D01*
X87653571Y-149227380D02*
X87748809Y-149227380D01*
X87844047Y-149275000D01*
X87891666Y-149322619D01*
X87939285Y-149417857D01*
X87986904Y-149608333D01*
X87986904Y-149846428D01*
X87939285Y-150036904D01*
X87891666Y-150132142D01*
X87844047Y-150179761D01*
X87748809Y-150227380D01*
X87653571Y-150227380D01*
X87558333Y-150179761D01*
X87510714Y-150132142D01*
X87463095Y-150036904D01*
X87415476Y-149846428D01*
X87415476Y-149608333D01*
X87463095Y-149417857D01*
X87510714Y-149322619D01*
X87558333Y-149275000D01*
X87653571Y-149227380D01*
X82158333Y-150152142D02*
X82110714Y-150199761D01*
X81967857Y-150247380D01*
X81872619Y-150247380D01*
X81729761Y-150199761D01*
X81634523Y-150104523D01*
X81586904Y-150009285D01*
X81539285Y-149818809D01*
X81539285Y-149675952D01*
X81586904Y-149485476D01*
X81634523Y-149390238D01*
X81729761Y-149295000D01*
X81872619Y-149247380D01*
X81967857Y-149247380D01*
X82110714Y-149295000D01*
X82158333Y-149342619D01*
X82634523Y-150247380D02*
X82825000Y-150247380D01*
X82920238Y-150199761D01*
X82967857Y-150152142D01*
X83063095Y-150009285D01*
X83110714Y-149818809D01*
X83110714Y-149437857D01*
X83063095Y-149342619D01*
X83015476Y-149295000D01*
X82920238Y-149247380D01*
X82729761Y-149247380D01*
X82634523Y-149295000D01*
X82586904Y-149342619D01*
X82539285Y-149437857D01*
X82539285Y-149675952D01*
X82586904Y-149771190D01*
X82634523Y-149818809D01*
X82729761Y-149866428D01*
X82920238Y-149866428D01*
X83015476Y-149818809D01*
X83063095Y-149771190D01*
X83110714Y-149675952D01*
X86032142Y-165952142D02*
X85984523Y-165999761D01*
X85841666Y-166047380D01*
X85746428Y-166047380D01*
X85603571Y-165999761D01*
X85508333Y-165904523D01*
X85460714Y-165809285D01*
X85413095Y-165618809D01*
X85413095Y-165475952D01*
X85460714Y-165285476D01*
X85508333Y-165190238D01*
X85603571Y-165095000D01*
X85746428Y-165047380D01*
X85841666Y-165047380D01*
X85984523Y-165095000D01*
X86032142Y-165142619D01*
X86984523Y-166047380D02*
X86413095Y-166047380D01*
X86698809Y-166047380D02*
X86698809Y-165047380D01*
X86603571Y-165190238D01*
X86508333Y-165285476D01*
X86413095Y-165333095D01*
X87365476Y-165142619D02*
X87413095Y-165095000D01*
X87508333Y-165047380D01*
X87746428Y-165047380D01*
X87841666Y-165095000D01*
X87889285Y-165142619D01*
X87936904Y-165237857D01*
X87936904Y-165333095D01*
X87889285Y-165475952D01*
X87317857Y-166047380D01*
X87936904Y-166047380D01*
X81382142Y-165952142D02*
X81334523Y-165999761D01*
X81191666Y-166047380D01*
X81096428Y-166047380D01*
X80953571Y-165999761D01*
X80858333Y-165904523D01*
X80810714Y-165809285D01*
X80763095Y-165618809D01*
X80763095Y-165475952D01*
X80810714Y-165285476D01*
X80858333Y-165190238D01*
X80953571Y-165095000D01*
X81096428Y-165047380D01*
X81191666Y-165047380D01*
X81334523Y-165095000D01*
X81382142Y-165142619D01*
X82334523Y-166047380D02*
X81763095Y-166047380D01*
X82048809Y-166047380D02*
X82048809Y-165047380D01*
X81953571Y-165190238D01*
X81858333Y-165285476D01*
X81763095Y-165333095D01*
X83286904Y-166047380D02*
X82715476Y-166047380D01*
X83001190Y-166047380D02*
X83001190Y-165047380D01*
X82905952Y-165190238D01*
X82810714Y-165285476D01*
X82715476Y-165333095D01*
X43082142Y-173527380D02*
X42748809Y-173051190D01*
X42510714Y-173527380D02*
X42510714Y-172527380D01*
X42891666Y-172527380D01*
X42986904Y-172575000D01*
X43034523Y-172622619D01*
X43082142Y-172717857D01*
X43082142Y-172860714D01*
X43034523Y-172955952D01*
X42986904Y-173003571D01*
X42891666Y-173051190D01*
X42510714Y-173051190D01*
X44034523Y-173527380D02*
X43463095Y-173527380D01*
X43748809Y-173527380D02*
X43748809Y-172527380D01*
X43653571Y-172670238D01*
X43558333Y-172765476D01*
X43463095Y-172813095D01*
X44891666Y-172860714D02*
X44891666Y-173527380D01*
X44653571Y-172479761D02*
X44415476Y-173194047D01*
X45034523Y-173194047D01*
X43082142Y-171477380D02*
X42748809Y-171001190D01*
X42510714Y-171477380D02*
X42510714Y-170477380D01*
X42891666Y-170477380D01*
X42986904Y-170525000D01*
X43034523Y-170572619D01*
X43082142Y-170667857D01*
X43082142Y-170810714D01*
X43034523Y-170905952D01*
X42986904Y-170953571D01*
X42891666Y-171001190D01*
X42510714Y-171001190D01*
X44034523Y-171477380D02*
X43463095Y-171477380D01*
X43748809Y-171477380D02*
X43748809Y-170477380D01*
X43653571Y-170620238D01*
X43558333Y-170715476D01*
X43463095Y-170763095D01*
X44891666Y-170810714D02*
X44891666Y-171477380D01*
X44653571Y-170429761D02*
X44415476Y-171144047D01*
X45034523Y-171144047D01*
X43032142Y-189327380D02*
X42698809Y-188851190D01*
X42460714Y-189327380D02*
X42460714Y-188327380D01*
X42841666Y-188327380D01*
X42936904Y-188375000D01*
X42984523Y-188422619D01*
X43032142Y-188517857D01*
X43032142Y-188660714D01*
X42984523Y-188755952D01*
X42936904Y-188803571D01*
X42841666Y-188851190D01*
X42460714Y-188851190D01*
X43984523Y-189327380D02*
X43413095Y-189327380D01*
X43698809Y-189327380D02*
X43698809Y-188327380D01*
X43603571Y-188470238D01*
X43508333Y-188565476D01*
X43413095Y-188613095D01*
X44317857Y-188327380D02*
X44936904Y-188327380D01*
X44603571Y-188708333D01*
X44746428Y-188708333D01*
X44841666Y-188755952D01*
X44889285Y-188803571D01*
X44936904Y-188898809D01*
X44936904Y-189136904D01*
X44889285Y-189232142D01*
X44841666Y-189279761D01*
X44746428Y-189327380D01*
X44460714Y-189327380D01*
X44365476Y-189279761D01*
X44317857Y-189232142D01*
X43132142Y-187277380D02*
X42798809Y-186801190D01*
X42560714Y-187277380D02*
X42560714Y-186277380D01*
X42941666Y-186277380D01*
X43036904Y-186325000D01*
X43084523Y-186372619D01*
X43132142Y-186467857D01*
X43132142Y-186610714D01*
X43084523Y-186705952D01*
X43036904Y-186753571D01*
X42941666Y-186801190D01*
X42560714Y-186801190D01*
X44084523Y-187277380D02*
X43513095Y-187277380D01*
X43798809Y-187277380D02*
X43798809Y-186277380D01*
X43703571Y-186420238D01*
X43608333Y-186515476D01*
X43513095Y-186563095D01*
X44465476Y-186372619D02*
X44513095Y-186325000D01*
X44608333Y-186277380D01*
X44846428Y-186277380D01*
X44941666Y-186325000D01*
X44989285Y-186372619D01*
X45036904Y-186467857D01*
X45036904Y-186563095D01*
X44989285Y-186705952D01*
X44417857Y-187277380D01*
X45036904Y-187277380D01*
X93903571Y-155339404D02*
X93903571Y-155006071D01*
X94427380Y-154863214D02*
X94427380Y-155339404D01*
X93427380Y-155339404D01*
X93427380Y-154863214D01*
X94332142Y-153863214D02*
X94379761Y-153910833D01*
X94427380Y-154053690D01*
X94427380Y-154148928D01*
X94379761Y-154291785D01*
X94284523Y-154387023D01*
X94189285Y-154434642D01*
X93998809Y-154482261D01*
X93855952Y-154482261D01*
X93665476Y-154434642D01*
X93570238Y-154387023D01*
X93475000Y-154291785D01*
X93427380Y-154148928D01*
X93427380Y-154053690D01*
X93475000Y-153910833D01*
X93522619Y-153863214D01*
X94427380Y-152910833D02*
X94427380Y-153482261D01*
X94427380Y-153196547D02*
X93427380Y-153196547D01*
X93570238Y-153291785D01*
X93665476Y-153387023D01*
X93713095Y-153482261D01*
X93903571Y-148139404D02*
X93903571Y-147806071D01*
X94427380Y-147663214D02*
X94427380Y-148139404D01*
X93427380Y-148139404D01*
X93427380Y-147663214D01*
X94332142Y-146663214D02*
X94379761Y-146710833D01*
X94427380Y-146853690D01*
X94427380Y-146948928D01*
X94379761Y-147091785D01*
X94284523Y-147187023D01*
X94189285Y-147234642D01*
X93998809Y-147282261D01*
X93855952Y-147282261D01*
X93665476Y-147234642D01*
X93570238Y-147187023D01*
X93475000Y-147091785D01*
X93427380Y-146948928D01*
X93427380Y-146853690D01*
X93475000Y-146710833D01*
X93522619Y-146663214D01*
X93522619Y-146282261D02*
X93475000Y-146234642D01*
X93427380Y-146139404D01*
X93427380Y-145901309D01*
X93475000Y-145806071D01*
X93522619Y-145758452D01*
X93617857Y-145710833D01*
X93713095Y-145710833D01*
X93855952Y-145758452D01*
X94427380Y-146329880D01*
X94427380Y-145710833D01*
X101353571Y-148139404D02*
X101353571Y-147806071D01*
X101877380Y-147663214D02*
X101877380Y-148139404D01*
X100877380Y-148139404D01*
X100877380Y-147663214D01*
X101782142Y-146663214D02*
X101829761Y-146710833D01*
X101877380Y-146853690D01*
X101877380Y-146948928D01*
X101829761Y-147091785D01*
X101734523Y-147187023D01*
X101639285Y-147234642D01*
X101448809Y-147282261D01*
X101305952Y-147282261D01*
X101115476Y-147234642D01*
X101020238Y-147187023D01*
X100925000Y-147091785D01*
X100877380Y-146948928D01*
X100877380Y-146853690D01*
X100925000Y-146710833D01*
X100972619Y-146663214D01*
X101210714Y-145806071D02*
X101877380Y-145806071D01*
X100829761Y-146044166D02*
X101544047Y-146282261D01*
X101544047Y-145663214D01*
X101303571Y-155339404D02*
X101303571Y-155006071D01*
X101827380Y-154863214D02*
X101827380Y-155339404D01*
X100827380Y-155339404D01*
X100827380Y-154863214D01*
X101732142Y-153863214D02*
X101779761Y-153910833D01*
X101827380Y-154053690D01*
X101827380Y-154148928D01*
X101779761Y-154291785D01*
X101684523Y-154387023D01*
X101589285Y-154434642D01*
X101398809Y-154482261D01*
X101255952Y-154482261D01*
X101065476Y-154434642D01*
X100970238Y-154387023D01*
X100875000Y-154291785D01*
X100827380Y-154148928D01*
X100827380Y-154053690D01*
X100875000Y-153910833D01*
X100922619Y-153863214D01*
X100827380Y-153529880D02*
X100827380Y-152910833D01*
X101208333Y-153244166D01*
X101208333Y-153101309D01*
X101255952Y-153006071D01*
X101303571Y-152958452D01*
X101398809Y-152910833D01*
X101636904Y-152910833D01*
X101732142Y-152958452D01*
X101779761Y-153006071D01*
X101827380Y-153101309D01*
X101827380Y-153387023D01*
X101779761Y-153482261D01*
X101732142Y-153529880D01*
X93560595Y-164477380D02*
X93560595Y-165286904D01*
X93608214Y-165382142D01*
X93655833Y-165429761D01*
X93751071Y-165477380D01*
X93941547Y-165477380D01*
X94036785Y-165429761D01*
X94084404Y-165382142D01*
X94132023Y-165286904D01*
X94132023Y-164477380D01*
X95132023Y-165477380D02*
X94560595Y-165477380D01*
X94846309Y-165477380D02*
X94846309Y-164477380D01*
X94751071Y-164620238D01*
X94655833Y-164715476D01*
X94560595Y-164763095D01*
X109660595Y-167327380D02*
X109660595Y-168136904D01*
X109708214Y-168232142D01*
X109755833Y-168279761D01*
X109851071Y-168327380D01*
X110041547Y-168327380D01*
X110136785Y-168279761D01*
X110184404Y-168232142D01*
X110232023Y-168136904D01*
X110232023Y-167327380D01*
X111136785Y-167327380D02*
X110946309Y-167327380D01*
X110851071Y-167375000D01*
X110803452Y-167422619D01*
X110708214Y-167565476D01*
X110660595Y-167755952D01*
X110660595Y-168136904D01*
X110708214Y-168232142D01*
X110755833Y-168279761D01*
X110851071Y-168327380D01*
X111041547Y-168327380D01*
X111136785Y-168279761D01*
X111184404Y-168232142D01*
X111232023Y-168136904D01*
X111232023Y-167898809D01*
X111184404Y-167803571D01*
X111136785Y-167755952D01*
X111041547Y-167708333D01*
X110851071Y-167708333D01*
X110755833Y-167755952D01*
X110708214Y-167803571D01*
X110660595Y-167898809D01*
X83563095Y-149227380D02*
X83563095Y-150036904D01*
X83610714Y-150132142D01*
X83658333Y-150179761D01*
X83753571Y-150227380D01*
X83944047Y-150227380D01*
X84039285Y-150179761D01*
X84086904Y-150132142D01*
X84134523Y-150036904D01*
X84134523Y-149227380D01*
X84563095Y-149322619D02*
X84610714Y-149275000D01*
X84705952Y-149227380D01*
X84944047Y-149227380D01*
X85039285Y-149275000D01*
X85086904Y-149322619D01*
X85134523Y-149417857D01*
X85134523Y-149513095D01*
X85086904Y-149655952D01*
X84515476Y-150227380D01*
X85134523Y-150227380D01*
X83563095Y-165077380D02*
X83563095Y-165886904D01*
X83610714Y-165982142D01*
X83658333Y-166029761D01*
X83753571Y-166077380D01*
X83944047Y-166077380D01*
X84039285Y-166029761D01*
X84086904Y-165982142D01*
X84134523Y-165886904D01*
X84134523Y-165077380D01*
X84515476Y-165077380D02*
X85134523Y-165077380D01*
X84801190Y-165458333D01*
X84944047Y-165458333D01*
X85039285Y-165505952D01*
X85086904Y-165553571D01*
X85134523Y-165648809D01*
X85134523Y-165886904D01*
X85086904Y-165982142D01*
X85039285Y-166029761D01*
X84944047Y-166077380D01*
X84658333Y-166077380D01*
X84563095Y-166029761D01*
X84515476Y-165982142D01*
X110578095Y-159327380D02*
X110578095Y-160136904D01*
X110625714Y-160232142D01*
X110673333Y-160279761D01*
X110768571Y-160327380D01*
X110959047Y-160327380D01*
X111054285Y-160279761D01*
X111101904Y-160232142D01*
X111149523Y-160136904D01*
X111149523Y-159327380D01*
X111768571Y-159755952D02*
X111673333Y-159708333D01*
X111625714Y-159660714D01*
X111578095Y-159565476D01*
X111578095Y-159517857D01*
X111625714Y-159422619D01*
X111673333Y-159375000D01*
X111768571Y-159327380D01*
X111959047Y-159327380D01*
X112054285Y-159375000D01*
X112101904Y-159422619D01*
X112149523Y-159517857D01*
X112149523Y-159565476D01*
X112101904Y-159660714D01*
X112054285Y-159708333D01*
X111959047Y-159755952D01*
X111768571Y-159755952D01*
X111673333Y-159803571D01*
X111625714Y-159851190D01*
X111578095Y-159946428D01*
X111578095Y-160136904D01*
X111625714Y-160232142D01*
X111673333Y-160279761D01*
X111768571Y-160327380D01*
X111959047Y-160327380D01*
X112054285Y-160279761D01*
X112101904Y-160232142D01*
X112149523Y-160136904D01*
X112149523Y-159946428D01*
X112101904Y-159851190D01*
X112054285Y-159803571D01*
X111959047Y-159755952D01*
X68041535Y-152128203D02*
X67564479Y-152128203D01*
X67564479Y-151126384D01*
X68375475Y-152128203D02*
X68375475Y-151126384D01*
X68852532Y-152128203D02*
X68852532Y-151126384D01*
X69425000Y-152128203D01*
X69425000Y-151126384D01*
X69902056Y-151603441D02*
X70235996Y-151603441D01*
X70379113Y-152128203D02*
X69902056Y-152128203D01*
X69902056Y-151126384D01*
X70379113Y-151126384D01*
X70760758Y-152080498D02*
X70903875Y-152128203D01*
X71142404Y-152128203D01*
X71237815Y-152080498D01*
X71285521Y-152032792D01*
X71333226Y-151937381D01*
X71333226Y-151841969D01*
X71285521Y-151746558D01*
X71237815Y-151698852D01*
X71142404Y-151651147D01*
X70951581Y-151603441D01*
X70856170Y-151555735D01*
X70808464Y-151508030D01*
X70760758Y-151412618D01*
X70760758Y-151317207D01*
X70808464Y-151221796D01*
X70856170Y-151174090D01*
X70951581Y-151126384D01*
X71190109Y-151126384D01*
X71333226Y-151174090D01*
X123076190Y-170161190D02*
X123552380Y-170161190D01*
X122552380Y-170494523D02*
X123076190Y-170161190D01*
X122552380Y-169827857D01*
X123552380Y-168970714D02*
X123552380Y-169542142D01*
X123552380Y-169256428D02*
X122552380Y-169256428D01*
X122695238Y-169351666D01*
X122790476Y-169446904D01*
X122838095Y-169542142D01*
X116423095Y-160177380D02*
X116423095Y-160986904D01*
X116470714Y-161082142D01*
X116518333Y-161129761D01*
X116613571Y-161177380D01*
X116804047Y-161177380D01*
X116899285Y-161129761D01*
X116946904Y-161082142D01*
X116994523Y-160986904D01*
X116994523Y-160177380D01*
X117423095Y-161129761D02*
X117565952Y-161177380D01*
X117804047Y-161177380D01*
X117899285Y-161129761D01*
X117946904Y-161082142D01*
X117994523Y-160986904D01*
X117994523Y-160891666D01*
X117946904Y-160796428D01*
X117899285Y-160748809D01*
X117804047Y-160701190D01*
X117613571Y-160653571D01*
X117518333Y-160605952D01*
X117470714Y-160558333D01*
X117423095Y-160463095D01*
X117423095Y-160367857D01*
X117470714Y-160272619D01*
X117518333Y-160225000D01*
X117613571Y-160177380D01*
X117851666Y-160177380D01*
X117994523Y-160225000D01*
X118756428Y-160653571D02*
X118899285Y-160701190D01*
X118946904Y-160748809D01*
X118994523Y-160844047D01*
X118994523Y-160986904D01*
X118946904Y-161082142D01*
X118899285Y-161129761D01*
X118804047Y-161177380D01*
X118423095Y-161177380D01*
X118423095Y-160177380D01*
X118756428Y-160177380D01*
X118851666Y-160225000D01*
X118899285Y-160272619D01*
X118946904Y-160367857D01*
X118946904Y-160463095D01*
X118899285Y-160558333D01*
X118851666Y-160605952D01*
X118756428Y-160653571D01*
X118423095Y-160653571D01*
D11*
X124287779Y-180115000D02*
X123962221Y-180115000D01*
X124287779Y-181135000D02*
X123962221Y-181135000D01*
X126962221Y-181135000D02*
X127287779Y-181135000D01*
X126962221Y-180115000D02*
X127287779Y-180115000D01*
X86063748Y-150740000D02*
X86586252Y-150740000D01*
X86063748Y-152210000D02*
X86586252Y-152210000D01*
X82063748Y-150740000D02*
X82586252Y-150740000D01*
X82063748Y-152210000D02*
X82586252Y-152210000D01*
X86063748Y-168010000D02*
X86586252Y-168010000D01*
X86063748Y-166540000D02*
X86586252Y-166540000D01*
X82063748Y-168010000D02*
X82586252Y-168010000D01*
X82063748Y-166540000D02*
X82586252Y-166540000D01*
X40297936Y-172340000D02*
X40752064Y-172340000D01*
X40297936Y-173810000D02*
X40752064Y-173810000D01*
X40297936Y-170290000D02*
X40752064Y-170290000D01*
X40297936Y-171760000D02*
X40752064Y-171760000D01*
X40310436Y-188140000D02*
X40764564Y-188140000D01*
X40310436Y-189610000D02*
X40764564Y-189610000D01*
X40297936Y-186090000D02*
X40752064Y-186090000D01*
X40297936Y-187560000D02*
X40752064Y-187560000D01*
X100945000Y-156925000D02*
G75*
G03*
X100945000Y-156925000I-3270000J0D01*
G01*
X100899000Y-157125000D02*
X94451000Y-157125000D01*
X100391000Y-158686000D02*
X98715000Y-158686000D01*
X96635000Y-159046000D02*
X95225000Y-159046000D01*
X96635000Y-157605000D02*
X94516000Y-157605000D01*
X100591000Y-158326000D02*
X98715000Y-158326000D01*
X100870000Y-157405000D02*
X98715000Y-157405000D01*
X96635000Y-158126000D02*
X94673000Y-158126000D01*
X100677000Y-158126000D02*
X98715000Y-158126000D01*
X100886000Y-157285000D02*
X98715000Y-157285000D01*
X100736000Y-157966000D02*
X98715000Y-157966000D01*
X100749000Y-157926000D02*
X98715000Y-157926000D01*
X100661000Y-158166000D02*
X98715000Y-158166000D01*
X100191000Y-158966000D02*
X98715000Y-158966000D01*
X100881000Y-157325000D02*
X98715000Y-157325000D01*
X96635000Y-158766000D02*
X95011000Y-158766000D01*
X100551000Y-158406000D02*
X98715000Y-158406000D01*
X96635000Y-157285000D02*
X94464000Y-157285000D01*
X100223000Y-158926000D02*
X98715000Y-158926000D01*
X96635000Y-158726000D02*
X94985000Y-158726000D01*
X96635000Y-159006000D02*
X95191000Y-159006000D01*
X100902000Y-157085000D02*
X94448000Y-157085000D01*
X96635000Y-158286000D02*
X94741000Y-158286000D01*
X100842000Y-157565000D02*
X98715000Y-157565000D01*
X100417000Y-158646000D02*
X98715000Y-158646000D01*
X96635000Y-159126000D02*
X95295000Y-159126000D01*
X96635000Y-157325000D02*
X94469000Y-157325000D01*
X98937000Y-159926000D02*
X96413000Y-159926000D01*
X99619000Y-159526000D02*
X95731000Y-159526000D01*
X99857000Y-159326000D02*
X95493000Y-159326000D01*
X96635000Y-158006000D02*
X94628000Y-158006000D01*
X96635000Y-158966000D02*
X95159000Y-158966000D01*
X100311000Y-158806000D02*
X98715000Y-158806000D01*
X98840000Y-159966000D02*
X96510000Y-159966000D01*
X96635000Y-157846000D02*
X94577000Y-157846000D01*
X100761000Y-157886000D02*
X98715000Y-157886000D01*
X96635000Y-157165000D02*
X94453000Y-157165000D01*
X100253000Y-158886000D02*
X98715000Y-158886000D01*
X96635000Y-158366000D02*
X94779000Y-158366000D01*
X99940000Y-159246000D02*
X95410000Y-159246000D01*
X100125000Y-159046000D02*
X98715000Y-159046000D01*
X100893000Y-157205000D02*
X98715000Y-157205000D01*
X100816000Y-157686000D02*
X98715000Y-157686000D01*
X96635000Y-158046000D02*
X94642000Y-158046000D01*
X100796000Y-157766000D02*
X98715000Y-157766000D01*
X100441000Y-158606000D02*
X98715000Y-158606000D01*
X96635000Y-157766000D02*
X94554000Y-157766000D01*
X100905000Y-156925000D02*
X94445000Y-156925000D01*
X100773000Y-157846000D02*
X98715000Y-157846000D01*
X100834000Y-157605000D02*
X98715000Y-157605000D01*
X100864000Y-157445000D02*
X98715000Y-157445000D01*
X96635000Y-157966000D02*
X94614000Y-157966000D01*
X100571000Y-158366000D02*
X98715000Y-158366000D01*
X96635000Y-157365000D02*
X94474000Y-157365000D01*
X98615000Y-160046000D02*
X96735000Y-160046000D01*
X98734000Y-160006000D02*
X96616000Y-160006000D01*
X100850000Y-157525000D02*
X98715000Y-157525000D01*
X99256000Y-159766000D02*
X96094000Y-159766000D01*
X100055000Y-159126000D02*
X98715000Y-159126000D01*
X99389000Y-159686000D02*
X95961000Y-159686000D01*
X96635000Y-158486000D02*
X94841000Y-158486000D01*
X99829000Y-153739759D02*
X99199000Y-153739759D01*
X96635000Y-157646000D02*
X94525000Y-157646000D01*
X100708000Y-158046000D02*
X98715000Y-158046000D01*
X96635000Y-159086000D02*
X95259000Y-159086000D01*
X96635000Y-158846000D02*
X95068000Y-158846000D01*
X100785000Y-157806000D02*
X98715000Y-157806000D01*
X96635000Y-157405000D02*
X94480000Y-157405000D01*
X96635000Y-158446000D02*
X94819000Y-158446000D01*
X100693000Y-158086000D02*
X98715000Y-158086000D01*
X96635000Y-159166000D02*
X95332000Y-159166000D01*
X100609000Y-158286000D02*
X98715000Y-158286000D01*
X100825000Y-157646000D02*
X98715000Y-157646000D01*
X99025000Y-159886000D02*
X96325000Y-159886000D01*
X96635000Y-157886000D02*
X94589000Y-157886000D01*
X100018000Y-159166000D02*
X98715000Y-159166000D01*
X96635000Y-158246000D02*
X94723000Y-158246000D01*
X99767000Y-159406000D02*
X95583000Y-159406000D01*
X99719000Y-159446000D02*
X95631000Y-159446000D01*
X96635000Y-158326000D02*
X94759000Y-158326000D01*
X96635000Y-158206000D02*
X94705000Y-158206000D01*
X96635000Y-157686000D02*
X94534000Y-157686000D01*
X100282000Y-158846000D02*
X98715000Y-158846000D01*
X99812000Y-159366000D02*
X95538000Y-159366000D01*
X96635000Y-158606000D02*
X94909000Y-158606000D01*
X100627000Y-158246000D02*
X98715000Y-158246000D01*
X100465000Y-158566000D02*
X98715000Y-158566000D01*
X100890000Y-157245000D02*
X98715000Y-157245000D01*
X100645000Y-158206000D02*
X98715000Y-158206000D01*
X96635000Y-157245000D02*
X94460000Y-157245000D01*
X96635000Y-158886000D02*
X95097000Y-158886000D01*
X96635000Y-159206000D02*
X95370000Y-159206000D01*
X98308000Y-160126000D02*
X97042000Y-160126000D01*
X96635000Y-158806000D02*
X95039000Y-158806000D01*
X99451000Y-159646000D02*
X95899000Y-159646000D01*
X100365000Y-158726000D02*
X98715000Y-158726000D01*
X100091000Y-159086000D02*
X98715000Y-159086000D01*
X100897000Y-157165000D02*
X98715000Y-157165000D01*
X96635000Y-157726000D02*
X94544000Y-157726000D01*
X100509000Y-158486000D02*
X98715000Y-158486000D01*
X100876000Y-157365000D02*
X98715000Y-157365000D01*
X99107000Y-159846000D02*
X96243000Y-159846000D01*
X100339000Y-158766000D02*
X98715000Y-158766000D01*
X96635000Y-157205000D02*
X94457000Y-157205000D01*
X96635000Y-157525000D02*
X94500000Y-157525000D01*
X99325000Y-159726000D02*
X96025000Y-159726000D01*
X100159000Y-159006000D02*
X98715000Y-159006000D01*
X96635000Y-158086000D02*
X94657000Y-158086000D01*
X99899000Y-159286000D02*
X95451000Y-159286000D01*
X99184000Y-159806000D02*
X96166000Y-159806000D01*
X96635000Y-157445000D02*
X94486000Y-157445000D01*
X96635000Y-158686000D02*
X94959000Y-158686000D01*
X100487000Y-158526000D02*
X98715000Y-158526000D01*
X96635000Y-158166000D02*
X94689000Y-158166000D01*
X96635000Y-157565000D02*
X94508000Y-157565000D01*
X98077000Y-160166000D02*
X97273000Y-160166000D01*
X96635000Y-158646000D02*
X94933000Y-158646000D01*
X99514000Y-153424759D02*
X99514000Y-154054759D01*
X96635000Y-158566000D02*
X94885000Y-158566000D01*
X100903000Y-157045000D02*
X94447000Y-157045000D01*
X98477000Y-160086000D02*
X96873000Y-160086000D01*
X100857000Y-157485000D02*
X98715000Y-157485000D01*
X99980000Y-159206000D02*
X98715000Y-159206000D01*
X100531000Y-158446000D02*
X98715000Y-158446000D01*
X96635000Y-158526000D02*
X94863000Y-158526000D01*
X96635000Y-157485000D02*
X94493000Y-157485000D01*
X99670000Y-159486000D02*
X95680000Y-159486000D01*
X99509000Y-159606000D02*
X95841000Y-159606000D01*
X100905000Y-156965000D02*
X94445000Y-156965000D01*
X96635000Y-157926000D02*
X94601000Y-157926000D01*
X96635000Y-157806000D02*
X94565000Y-157806000D01*
X100905000Y-157005000D02*
X94445000Y-157005000D01*
X100806000Y-157726000D02*
X98715000Y-157726000D01*
X99565000Y-159566000D02*
X95785000Y-159566000D01*
X100722000Y-158006000D02*
X98715000Y-158006000D01*
X96635000Y-158406000D02*
X94799000Y-158406000D01*
X96635000Y-158926000D02*
X95127000Y-158926000D01*
X100945000Y-149725000D02*
G75*
G03*
X100945000Y-149725000I-3270000J0D01*
G01*
X100899000Y-149925000D02*
X94451000Y-149925000D01*
X100391000Y-151486000D02*
X98715000Y-151486000D01*
X96635000Y-151846000D02*
X95225000Y-151846000D01*
X96635000Y-150405000D02*
X94516000Y-150405000D01*
X100591000Y-151126000D02*
X98715000Y-151126000D01*
X100870000Y-150205000D02*
X98715000Y-150205000D01*
X96635000Y-150926000D02*
X94673000Y-150926000D01*
X100677000Y-150926000D02*
X98715000Y-150926000D01*
X100886000Y-150085000D02*
X98715000Y-150085000D01*
X100736000Y-150766000D02*
X98715000Y-150766000D01*
X100749000Y-150726000D02*
X98715000Y-150726000D01*
X100661000Y-150966000D02*
X98715000Y-150966000D01*
X100191000Y-151766000D02*
X98715000Y-151766000D01*
X100881000Y-150125000D02*
X98715000Y-150125000D01*
X96635000Y-151566000D02*
X95011000Y-151566000D01*
X100551000Y-151206000D02*
X98715000Y-151206000D01*
X96635000Y-150085000D02*
X94464000Y-150085000D01*
X100223000Y-151726000D02*
X98715000Y-151726000D01*
X96635000Y-151526000D02*
X94985000Y-151526000D01*
X96635000Y-151806000D02*
X95191000Y-151806000D01*
X100902000Y-149885000D02*
X94448000Y-149885000D01*
X96635000Y-151086000D02*
X94741000Y-151086000D01*
X100842000Y-150365000D02*
X98715000Y-150365000D01*
X100417000Y-151446000D02*
X98715000Y-151446000D01*
X96635000Y-151926000D02*
X95295000Y-151926000D01*
X96635000Y-150125000D02*
X94469000Y-150125000D01*
X98937000Y-152726000D02*
X96413000Y-152726000D01*
X99619000Y-152326000D02*
X95731000Y-152326000D01*
X99857000Y-152126000D02*
X95493000Y-152126000D01*
X96635000Y-150806000D02*
X94628000Y-150806000D01*
X96635000Y-151766000D02*
X95159000Y-151766000D01*
X100311000Y-151606000D02*
X98715000Y-151606000D01*
X98840000Y-152766000D02*
X96510000Y-152766000D01*
X96635000Y-150646000D02*
X94577000Y-150646000D01*
X100761000Y-150686000D02*
X98715000Y-150686000D01*
X96635000Y-149965000D02*
X94453000Y-149965000D01*
X100253000Y-151686000D02*
X98715000Y-151686000D01*
X96635000Y-151166000D02*
X94779000Y-151166000D01*
X99940000Y-152046000D02*
X95410000Y-152046000D01*
X100125000Y-151846000D02*
X98715000Y-151846000D01*
X100893000Y-150005000D02*
X98715000Y-150005000D01*
X100816000Y-150486000D02*
X98715000Y-150486000D01*
X96635000Y-150846000D02*
X94642000Y-150846000D01*
X100796000Y-150566000D02*
X98715000Y-150566000D01*
X100441000Y-151406000D02*
X98715000Y-151406000D01*
X96635000Y-150566000D02*
X94554000Y-150566000D01*
X100905000Y-149725000D02*
X94445000Y-149725000D01*
X100773000Y-150646000D02*
X98715000Y-150646000D01*
X100834000Y-150405000D02*
X98715000Y-150405000D01*
X100864000Y-150245000D02*
X98715000Y-150245000D01*
X96635000Y-150766000D02*
X94614000Y-150766000D01*
X100571000Y-151166000D02*
X98715000Y-151166000D01*
X96635000Y-150165000D02*
X94474000Y-150165000D01*
X98615000Y-152846000D02*
X96735000Y-152846000D01*
X98734000Y-152806000D02*
X96616000Y-152806000D01*
X100850000Y-150325000D02*
X98715000Y-150325000D01*
X99256000Y-152566000D02*
X96094000Y-152566000D01*
X100055000Y-151926000D02*
X98715000Y-151926000D01*
X99389000Y-152486000D02*
X95961000Y-152486000D01*
X96635000Y-151286000D02*
X94841000Y-151286000D01*
X99829000Y-146539759D02*
X99199000Y-146539759D01*
X96635000Y-150446000D02*
X94525000Y-150446000D01*
X100708000Y-150846000D02*
X98715000Y-150846000D01*
X96635000Y-151886000D02*
X95259000Y-151886000D01*
X96635000Y-151646000D02*
X95068000Y-151646000D01*
X100785000Y-150606000D02*
X98715000Y-150606000D01*
X96635000Y-150205000D02*
X94480000Y-150205000D01*
X96635000Y-151246000D02*
X94819000Y-151246000D01*
X100693000Y-150886000D02*
X98715000Y-150886000D01*
X96635000Y-151966000D02*
X95332000Y-151966000D01*
X100609000Y-151086000D02*
X98715000Y-151086000D01*
X100825000Y-150446000D02*
X98715000Y-150446000D01*
X99025000Y-152686000D02*
X96325000Y-152686000D01*
X96635000Y-150686000D02*
X94589000Y-150686000D01*
X100018000Y-151966000D02*
X98715000Y-151966000D01*
X96635000Y-151046000D02*
X94723000Y-151046000D01*
X99767000Y-152206000D02*
X95583000Y-152206000D01*
X99719000Y-152246000D02*
X95631000Y-152246000D01*
X96635000Y-151126000D02*
X94759000Y-151126000D01*
X96635000Y-151006000D02*
X94705000Y-151006000D01*
X96635000Y-150486000D02*
X94534000Y-150486000D01*
X100282000Y-151646000D02*
X98715000Y-151646000D01*
X99812000Y-152166000D02*
X95538000Y-152166000D01*
X96635000Y-151406000D02*
X94909000Y-151406000D01*
X100627000Y-151046000D02*
X98715000Y-151046000D01*
X100465000Y-151366000D02*
X98715000Y-151366000D01*
X100890000Y-150045000D02*
X98715000Y-150045000D01*
X100645000Y-151006000D02*
X98715000Y-151006000D01*
X96635000Y-150045000D02*
X94460000Y-150045000D01*
X96635000Y-151686000D02*
X95097000Y-151686000D01*
X96635000Y-152006000D02*
X95370000Y-152006000D01*
X98308000Y-152926000D02*
X97042000Y-152926000D01*
X96635000Y-151606000D02*
X95039000Y-151606000D01*
X99451000Y-152446000D02*
X95899000Y-152446000D01*
X100365000Y-151526000D02*
X98715000Y-151526000D01*
X100091000Y-151886000D02*
X98715000Y-151886000D01*
X100897000Y-149965000D02*
X98715000Y-149965000D01*
X96635000Y-150526000D02*
X94544000Y-150526000D01*
X100509000Y-151286000D02*
X98715000Y-151286000D01*
X100876000Y-150165000D02*
X98715000Y-150165000D01*
X99107000Y-152646000D02*
X96243000Y-152646000D01*
X100339000Y-151566000D02*
X98715000Y-151566000D01*
X96635000Y-150005000D02*
X94457000Y-150005000D01*
X96635000Y-150325000D02*
X94500000Y-150325000D01*
X99325000Y-152526000D02*
X96025000Y-152526000D01*
X100159000Y-151806000D02*
X98715000Y-151806000D01*
X96635000Y-150886000D02*
X94657000Y-150886000D01*
X99899000Y-152086000D02*
X95451000Y-152086000D01*
X99184000Y-152606000D02*
X96166000Y-152606000D01*
X96635000Y-150245000D02*
X94486000Y-150245000D01*
X96635000Y-151486000D02*
X94959000Y-151486000D01*
X100487000Y-151326000D02*
X98715000Y-151326000D01*
X96635000Y-150966000D02*
X94689000Y-150966000D01*
X96635000Y-150365000D02*
X94508000Y-150365000D01*
X98077000Y-152966000D02*
X97273000Y-152966000D01*
X96635000Y-151446000D02*
X94933000Y-151446000D01*
X99514000Y-146224759D02*
X99514000Y-146854759D01*
X96635000Y-151366000D02*
X94885000Y-151366000D01*
X100903000Y-149845000D02*
X94447000Y-149845000D01*
X98477000Y-152886000D02*
X96873000Y-152886000D01*
X100857000Y-150285000D02*
X98715000Y-150285000D01*
X99980000Y-152006000D02*
X98715000Y-152006000D01*
X100531000Y-151246000D02*
X98715000Y-151246000D01*
X96635000Y-151326000D02*
X94863000Y-151326000D01*
X96635000Y-150285000D02*
X94493000Y-150285000D01*
X99670000Y-152286000D02*
X95680000Y-152286000D01*
X99509000Y-152406000D02*
X95841000Y-152406000D01*
X100905000Y-149765000D02*
X94445000Y-149765000D01*
X96635000Y-150726000D02*
X94601000Y-150726000D01*
X96635000Y-150606000D02*
X94565000Y-150606000D01*
X100905000Y-149805000D02*
X94445000Y-149805000D01*
X100806000Y-150526000D02*
X98715000Y-150526000D01*
X99565000Y-152366000D02*
X95785000Y-152366000D01*
X100722000Y-150806000D02*
X98715000Y-150806000D01*
X96635000Y-151206000D02*
X94799000Y-151206000D01*
X96635000Y-151726000D02*
X95127000Y-151726000D01*
X104035000Y-151726000D02*
X102527000Y-151726000D01*
X104035000Y-151206000D02*
X102199000Y-151206000D01*
X108122000Y-150806000D02*
X106115000Y-150806000D01*
X106965000Y-152366000D02*
X103185000Y-152366000D01*
X108206000Y-150526000D02*
X106115000Y-150526000D01*
X108305000Y-149805000D02*
X101845000Y-149805000D01*
X104035000Y-150606000D02*
X101965000Y-150606000D01*
X104035000Y-150726000D02*
X102001000Y-150726000D01*
X108305000Y-149765000D02*
X101845000Y-149765000D01*
X106909000Y-152406000D02*
X103241000Y-152406000D01*
X107070000Y-152286000D02*
X103080000Y-152286000D01*
X104035000Y-150285000D02*
X101893000Y-150285000D01*
X104035000Y-151326000D02*
X102263000Y-151326000D01*
X107931000Y-151246000D02*
X106115000Y-151246000D01*
X107380000Y-152006000D02*
X106115000Y-152006000D01*
X108257000Y-150285000D02*
X106115000Y-150285000D01*
X105877000Y-152886000D02*
X104273000Y-152886000D01*
X108303000Y-149845000D02*
X101847000Y-149845000D01*
X104035000Y-151366000D02*
X102285000Y-151366000D01*
X106914000Y-146224759D02*
X106914000Y-146854759D01*
X104035000Y-151446000D02*
X102333000Y-151446000D01*
X105477000Y-152966000D02*
X104673000Y-152966000D01*
X104035000Y-150365000D02*
X101908000Y-150365000D01*
X104035000Y-150966000D02*
X102089000Y-150966000D01*
X107887000Y-151326000D02*
X106115000Y-151326000D01*
X104035000Y-151486000D02*
X102359000Y-151486000D01*
X104035000Y-150245000D02*
X101886000Y-150245000D01*
X106584000Y-152606000D02*
X103566000Y-152606000D01*
X107299000Y-152086000D02*
X102851000Y-152086000D01*
X104035000Y-150886000D02*
X102057000Y-150886000D01*
X107559000Y-151806000D02*
X106115000Y-151806000D01*
X106725000Y-152526000D02*
X103425000Y-152526000D01*
X104035000Y-150325000D02*
X101900000Y-150325000D01*
X104035000Y-150005000D02*
X101857000Y-150005000D01*
X107739000Y-151566000D02*
X106115000Y-151566000D01*
X106507000Y-152646000D02*
X103643000Y-152646000D01*
X108276000Y-150165000D02*
X106115000Y-150165000D01*
X107909000Y-151286000D02*
X106115000Y-151286000D01*
X104035000Y-150526000D02*
X101944000Y-150526000D01*
X108297000Y-149965000D02*
X106115000Y-149965000D01*
X107491000Y-151886000D02*
X106115000Y-151886000D01*
X107765000Y-151526000D02*
X106115000Y-151526000D01*
X106851000Y-152446000D02*
X103299000Y-152446000D01*
X104035000Y-151606000D02*
X102439000Y-151606000D01*
X105708000Y-152926000D02*
X104442000Y-152926000D01*
X104035000Y-152006000D02*
X102770000Y-152006000D01*
X104035000Y-151686000D02*
X102497000Y-151686000D01*
X104035000Y-150045000D02*
X101860000Y-150045000D01*
X108045000Y-151006000D02*
X106115000Y-151006000D01*
X108290000Y-150045000D02*
X106115000Y-150045000D01*
X107865000Y-151366000D02*
X106115000Y-151366000D01*
X108027000Y-151046000D02*
X106115000Y-151046000D01*
X104035000Y-151406000D02*
X102309000Y-151406000D01*
X107212000Y-152166000D02*
X102938000Y-152166000D01*
X107682000Y-151646000D02*
X106115000Y-151646000D01*
X104035000Y-150486000D02*
X101934000Y-150486000D01*
X104035000Y-151006000D02*
X102105000Y-151006000D01*
X104035000Y-151126000D02*
X102159000Y-151126000D01*
X107119000Y-152246000D02*
X103031000Y-152246000D01*
X107167000Y-152206000D02*
X102983000Y-152206000D01*
X104035000Y-151046000D02*
X102123000Y-151046000D01*
X107418000Y-151966000D02*
X106115000Y-151966000D01*
X104035000Y-150686000D02*
X101989000Y-150686000D01*
X106425000Y-152686000D02*
X103725000Y-152686000D01*
X108225000Y-150446000D02*
X106115000Y-150446000D01*
X108009000Y-151086000D02*
X106115000Y-151086000D01*
X104035000Y-151966000D02*
X102732000Y-151966000D01*
X108093000Y-150886000D02*
X106115000Y-150886000D01*
X104035000Y-151246000D02*
X102219000Y-151246000D01*
X104035000Y-150205000D02*
X101880000Y-150205000D01*
X108185000Y-150606000D02*
X106115000Y-150606000D01*
X104035000Y-151646000D02*
X102468000Y-151646000D01*
X104035000Y-151886000D02*
X102659000Y-151886000D01*
X108108000Y-150846000D02*
X106115000Y-150846000D01*
X104035000Y-150446000D02*
X101925000Y-150446000D01*
X107229000Y-146539759D02*
X106599000Y-146539759D01*
X104035000Y-151286000D02*
X102241000Y-151286000D01*
X106789000Y-152486000D02*
X103361000Y-152486000D01*
X107455000Y-151926000D02*
X106115000Y-151926000D01*
X106656000Y-152566000D02*
X103494000Y-152566000D01*
X108250000Y-150325000D02*
X106115000Y-150325000D01*
X106134000Y-152806000D02*
X104016000Y-152806000D01*
X106015000Y-152846000D02*
X104135000Y-152846000D01*
X104035000Y-150165000D02*
X101874000Y-150165000D01*
X107971000Y-151166000D02*
X106115000Y-151166000D01*
X104035000Y-150766000D02*
X102014000Y-150766000D01*
X108264000Y-150245000D02*
X106115000Y-150245000D01*
X108234000Y-150405000D02*
X106115000Y-150405000D01*
X108173000Y-150646000D02*
X106115000Y-150646000D01*
X108305000Y-149725000D02*
X101845000Y-149725000D01*
X104035000Y-150566000D02*
X101954000Y-150566000D01*
X107841000Y-151406000D02*
X106115000Y-151406000D01*
X108196000Y-150566000D02*
X106115000Y-150566000D01*
X104035000Y-150846000D02*
X102042000Y-150846000D01*
X108216000Y-150486000D02*
X106115000Y-150486000D01*
X108293000Y-150005000D02*
X106115000Y-150005000D01*
X107525000Y-151846000D02*
X106115000Y-151846000D01*
X107340000Y-152046000D02*
X102810000Y-152046000D01*
X104035000Y-151166000D02*
X102179000Y-151166000D01*
X107653000Y-151686000D02*
X106115000Y-151686000D01*
X104035000Y-149965000D02*
X101853000Y-149965000D01*
X108161000Y-150686000D02*
X106115000Y-150686000D01*
X104035000Y-150646000D02*
X101977000Y-150646000D01*
X106240000Y-152766000D02*
X103910000Y-152766000D01*
X107711000Y-151606000D02*
X106115000Y-151606000D01*
X104035000Y-151766000D02*
X102559000Y-151766000D01*
X104035000Y-150806000D02*
X102028000Y-150806000D01*
X107257000Y-152126000D02*
X102893000Y-152126000D01*
X107019000Y-152326000D02*
X103131000Y-152326000D01*
X106337000Y-152726000D02*
X103813000Y-152726000D01*
X104035000Y-150125000D02*
X101869000Y-150125000D01*
X104035000Y-151926000D02*
X102695000Y-151926000D01*
X107817000Y-151446000D02*
X106115000Y-151446000D01*
X108242000Y-150365000D02*
X106115000Y-150365000D01*
X104035000Y-151086000D02*
X102141000Y-151086000D01*
X108302000Y-149885000D02*
X101848000Y-149885000D01*
X104035000Y-151806000D02*
X102591000Y-151806000D01*
X104035000Y-151526000D02*
X102385000Y-151526000D01*
X107623000Y-151726000D02*
X106115000Y-151726000D01*
X104035000Y-150085000D02*
X101864000Y-150085000D01*
X107951000Y-151206000D02*
X106115000Y-151206000D01*
X104035000Y-151566000D02*
X102411000Y-151566000D01*
X108281000Y-150125000D02*
X106115000Y-150125000D01*
X107591000Y-151766000D02*
X106115000Y-151766000D01*
X108061000Y-150966000D02*
X106115000Y-150966000D01*
X108149000Y-150726000D02*
X106115000Y-150726000D01*
X108136000Y-150766000D02*
X106115000Y-150766000D01*
X108286000Y-150085000D02*
X106115000Y-150085000D01*
X108077000Y-150926000D02*
X106115000Y-150926000D01*
X104035000Y-150926000D02*
X102073000Y-150926000D01*
X108270000Y-150205000D02*
X106115000Y-150205000D01*
X107991000Y-151126000D02*
X106115000Y-151126000D01*
X104035000Y-150405000D02*
X101916000Y-150405000D01*
X104035000Y-151846000D02*
X102625000Y-151846000D01*
X107791000Y-151486000D02*
X106115000Y-151486000D01*
X108299000Y-149925000D02*
X101851000Y-149925000D01*
X108345000Y-149725000D02*
G75*
G03*
X108345000Y-149725000I-3270000J0D01*
G01*
X104035000Y-158926000D02*
X102527000Y-158926000D01*
X104035000Y-158406000D02*
X102199000Y-158406000D01*
X108122000Y-158006000D02*
X106115000Y-158006000D01*
X106965000Y-159566000D02*
X103185000Y-159566000D01*
X108206000Y-157726000D02*
X106115000Y-157726000D01*
X108305000Y-157005000D02*
X101845000Y-157005000D01*
X104035000Y-157806000D02*
X101965000Y-157806000D01*
X104035000Y-157926000D02*
X102001000Y-157926000D01*
X108305000Y-156965000D02*
X101845000Y-156965000D01*
X106909000Y-159606000D02*
X103241000Y-159606000D01*
X107070000Y-159486000D02*
X103080000Y-159486000D01*
X104035000Y-157485000D02*
X101893000Y-157485000D01*
X104035000Y-158526000D02*
X102263000Y-158526000D01*
X107931000Y-158446000D02*
X106115000Y-158446000D01*
X107380000Y-159206000D02*
X106115000Y-159206000D01*
X108257000Y-157485000D02*
X106115000Y-157485000D01*
X105877000Y-160086000D02*
X104273000Y-160086000D01*
X108303000Y-157045000D02*
X101847000Y-157045000D01*
X104035000Y-158566000D02*
X102285000Y-158566000D01*
X106914000Y-153424759D02*
X106914000Y-154054759D01*
X104035000Y-158646000D02*
X102333000Y-158646000D01*
X105477000Y-160166000D02*
X104673000Y-160166000D01*
X104035000Y-157565000D02*
X101908000Y-157565000D01*
X104035000Y-158166000D02*
X102089000Y-158166000D01*
X107887000Y-158526000D02*
X106115000Y-158526000D01*
X104035000Y-158686000D02*
X102359000Y-158686000D01*
X104035000Y-157445000D02*
X101886000Y-157445000D01*
X106584000Y-159806000D02*
X103566000Y-159806000D01*
X107299000Y-159286000D02*
X102851000Y-159286000D01*
X104035000Y-158086000D02*
X102057000Y-158086000D01*
X107559000Y-159006000D02*
X106115000Y-159006000D01*
X106725000Y-159726000D02*
X103425000Y-159726000D01*
X104035000Y-157525000D02*
X101900000Y-157525000D01*
X104035000Y-157205000D02*
X101857000Y-157205000D01*
X107739000Y-158766000D02*
X106115000Y-158766000D01*
X106507000Y-159846000D02*
X103643000Y-159846000D01*
X108276000Y-157365000D02*
X106115000Y-157365000D01*
X107909000Y-158486000D02*
X106115000Y-158486000D01*
X104035000Y-157726000D02*
X101944000Y-157726000D01*
X108297000Y-157165000D02*
X106115000Y-157165000D01*
X107491000Y-159086000D02*
X106115000Y-159086000D01*
X107765000Y-158726000D02*
X106115000Y-158726000D01*
X106851000Y-159646000D02*
X103299000Y-159646000D01*
X104035000Y-158806000D02*
X102439000Y-158806000D01*
X105708000Y-160126000D02*
X104442000Y-160126000D01*
X104035000Y-159206000D02*
X102770000Y-159206000D01*
X104035000Y-158886000D02*
X102497000Y-158886000D01*
X104035000Y-157245000D02*
X101860000Y-157245000D01*
X108045000Y-158206000D02*
X106115000Y-158206000D01*
X108290000Y-157245000D02*
X106115000Y-157245000D01*
X107865000Y-158566000D02*
X106115000Y-158566000D01*
X108027000Y-158246000D02*
X106115000Y-158246000D01*
X104035000Y-158606000D02*
X102309000Y-158606000D01*
X107212000Y-159366000D02*
X102938000Y-159366000D01*
X107682000Y-158846000D02*
X106115000Y-158846000D01*
X104035000Y-157686000D02*
X101934000Y-157686000D01*
X104035000Y-158206000D02*
X102105000Y-158206000D01*
X104035000Y-158326000D02*
X102159000Y-158326000D01*
X107119000Y-159446000D02*
X103031000Y-159446000D01*
X107167000Y-159406000D02*
X102983000Y-159406000D01*
X104035000Y-158246000D02*
X102123000Y-158246000D01*
X107418000Y-159166000D02*
X106115000Y-159166000D01*
X104035000Y-157886000D02*
X101989000Y-157886000D01*
X106425000Y-159886000D02*
X103725000Y-159886000D01*
X108225000Y-157646000D02*
X106115000Y-157646000D01*
X108009000Y-158286000D02*
X106115000Y-158286000D01*
X104035000Y-159166000D02*
X102732000Y-159166000D01*
X108093000Y-158086000D02*
X106115000Y-158086000D01*
X104035000Y-158446000D02*
X102219000Y-158446000D01*
X104035000Y-157405000D02*
X101880000Y-157405000D01*
X108185000Y-157806000D02*
X106115000Y-157806000D01*
X104035000Y-158846000D02*
X102468000Y-158846000D01*
X104035000Y-159086000D02*
X102659000Y-159086000D01*
X108108000Y-158046000D02*
X106115000Y-158046000D01*
X104035000Y-157646000D02*
X101925000Y-157646000D01*
X107229000Y-153739759D02*
X106599000Y-153739759D01*
X104035000Y-158486000D02*
X102241000Y-158486000D01*
X106789000Y-159686000D02*
X103361000Y-159686000D01*
X107455000Y-159126000D02*
X106115000Y-159126000D01*
X106656000Y-159766000D02*
X103494000Y-159766000D01*
X108250000Y-157525000D02*
X106115000Y-157525000D01*
X106134000Y-160006000D02*
X104016000Y-160006000D01*
X106015000Y-160046000D02*
X104135000Y-160046000D01*
X104035000Y-157365000D02*
X101874000Y-157365000D01*
X107971000Y-158366000D02*
X106115000Y-158366000D01*
X104035000Y-157966000D02*
X102014000Y-157966000D01*
X108264000Y-157445000D02*
X106115000Y-157445000D01*
X108234000Y-157605000D02*
X106115000Y-157605000D01*
X108173000Y-157846000D02*
X106115000Y-157846000D01*
X108305000Y-156925000D02*
X101845000Y-156925000D01*
X104035000Y-157766000D02*
X101954000Y-157766000D01*
X107841000Y-158606000D02*
X106115000Y-158606000D01*
X108196000Y-157766000D02*
X106115000Y-157766000D01*
X104035000Y-158046000D02*
X102042000Y-158046000D01*
X108216000Y-157686000D02*
X106115000Y-157686000D01*
X108293000Y-157205000D02*
X106115000Y-157205000D01*
X107525000Y-159046000D02*
X106115000Y-159046000D01*
X107340000Y-159246000D02*
X102810000Y-159246000D01*
X104035000Y-158366000D02*
X102179000Y-158366000D01*
X107653000Y-158886000D02*
X106115000Y-158886000D01*
X104035000Y-157165000D02*
X101853000Y-157165000D01*
X108161000Y-157886000D02*
X106115000Y-157886000D01*
X104035000Y-157846000D02*
X101977000Y-157846000D01*
X106240000Y-159966000D02*
X103910000Y-159966000D01*
X107711000Y-158806000D02*
X106115000Y-158806000D01*
X104035000Y-158966000D02*
X102559000Y-158966000D01*
X104035000Y-158006000D02*
X102028000Y-158006000D01*
X107257000Y-159326000D02*
X102893000Y-159326000D01*
X107019000Y-159526000D02*
X103131000Y-159526000D01*
X106337000Y-159926000D02*
X103813000Y-159926000D01*
X104035000Y-157325000D02*
X101869000Y-157325000D01*
X104035000Y-159126000D02*
X102695000Y-159126000D01*
X107817000Y-158646000D02*
X106115000Y-158646000D01*
X108242000Y-157565000D02*
X106115000Y-157565000D01*
X104035000Y-158286000D02*
X102141000Y-158286000D01*
X108302000Y-157085000D02*
X101848000Y-157085000D01*
X104035000Y-159006000D02*
X102591000Y-159006000D01*
X104035000Y-158726000D02*
X102385000Y-158726000D01*
X107623000Y-158926000D02*
X106115000Y-158926000D01*
X104035000Y-157285000D02*
X101864000Y-157285000D01*
X107951000Y-158406000D02*
X106115000Y-158406000D01*
X104035000Y-158766000D02*
X102411000Y-158766000D01*
X108281000Y-157325000D02*
X106115000Y-157325000D01*
X107591000Y-158966000D02*
X106115000Y-158966000D01*
X108061000Y-158166000D02*
X106115000Y-158166000D01*
X108149000Y-157926000D02*
X106115000Y-157926000D01*
X108136000Y-157966000D02*
X106115000Y-157966000D01*
X108286000Y-157285000D02*
X106115000Y-157285000D01*
X108077000Y-158126000D02*
X106115000Y-158126000D01*
X104035000Y-158126000D02*
X102073000Y-158126000D01*
X108270000Y-157405000D02*
X106115000Y-157405000D01*
X107991000Y-158326000D02*
X106115000Y-158326000D01*
X104035000Y-157605000D02*
X101916000Y-157605000D01*
X104035000Y-159046000D02*
X102625000Y-159046000D01*
X107791000Y-158686000D02*
X106115000Y-158686000D01*
X108299000Y-157125000D02*
X101851000Y-157125000D01*
X108345000Y-156925000D02*
G75*
G03*
X108345000Y-156925000I-3270000J0D01*
G01*
D12*
X93185000Y-166725000D02*
G75*
G03*
X93185000Y-166725000I-100000J0D01*
G01*
D13*
X105425000Y-165475000D02*
X105425000Y-166265000D01*
X95425000Y-165475000D02*
X96215000Y-165475000D01*
X105425000Y-175475000D02*
X104635000Y-175475000D01*
X95425000Y-175475000D02*
X95425000Y-174685000D01*
X105425000Y-165475000D02*
X104635000Y-165475000D01*
X95425000Y-175475000D02*
X96215000Y-175475000D01*
X105425000Y-175475000D02*
X105425000Y-174685000D01*
X95425000Y-165475000D02*
X95425000Y-166265000D01*
D12*
X109385000Y-169125000D02*
G75*
G03*
X109385000Y-169125000I-100000J0D01*
G01*
D13*
X118825000Y-175525000D02*
X118615000Y-175525000D01*
X118825000Y-175525000D02*
X118825000Y-175315000D01*
X118825000Y-168325000D02*
X118825000Y-168535000D01*
X111625000Y-175525000D02*
X111835000Y-175525000D01*
X118825000Y-168325000D02*
X118615000Y-168325000D01*
X111625000Y-175525000D02*
X111625000Y-175315000D01*
X111625000Y-168325000D02*
X111625000Y-168535000D01*
X111625000Y-168325000D02*
X111835000Y-168325000D01*
D12*
X80280000Y-152930000D02*
G75*
G03*
X80280000Y-152930000I-100000J0D01*
G01*
D13*
X82375000Y-162940000D02*
X86275000Y-162940000D01*
X82375000Y-152810000D02*
X86275000Y-152810000D01*
X82380000Y-168695000D02*
X86280000Y-168695000D01*
X82380000Y-178825000D02*
X86280000Y-178825000D01*
D12*
X80285000Y-168815000D02*
G75*
G03*
X80285000Y-168815000I-100000J0D01*
G01*
X107785000Y-160920000D02*
G75*
G03*
X107785000Y-160920000I-100000J0D01*
G01*
D13*
X109775000Y-160700000D02*
X113675000Y-160700000D01*
X109775000Y-165750000D02*
X113675000Y-165750000D01*
X79575000Y-152625000D02*
X79575000Y-179025000D01*
X79575000Y-165775000D02*
X71035000Y-165775000D01*
X61575000Y-179025000D02*
X61575000Y-152625000D01*
X67935000Y-165775000D02*
X61575000Y-165775000D01*
X61575000Y-179025000D02*
X67935000Y-179025000D01*
X61575000Y-152625000D02*
X67935000Y-152625000D01*
X71035000Y-179025000D02*
X79575000Y-179025000D01*
X71035000Y-152625000D02*
X79575000Y-152625000D01*
D14*
X78365000Y-151605000D02*
G75*
G03*
X78365000Y-151605000I-50000J0D01*
G01*
D11*
X124100000Y-172810000D02*
X124100000Y-166560000D01*
X129150000Y-172810000D02*
X129150000Y-166560000D01*
X129150000Y-166560000D02*
G75*
G03*
X124100000Y-166560000I-2525000J0D01*
G01*
X124100000Y-172810000D02*
G75*
G03*
X129150000Y-172810000I2525000J0D01*
G01*
X116087500Y-159635000D02*
X119837500Y-159635000D01*
X132707500Y-159635000D02*
X124737500Y-159635000D01*
X115887500Y-152275000D02*
X115387500Y-151775000D01*
X115387500Y-151775000D02*
X115387500Y-152775000D01*
X115387500Y-152775000D02*
X115887500Y-152275000D01*
X116087500Y-147415000D02*
X119837500Y-147415000D01*
X132707500Y-147415000D02*
X124737500Y-147415000D01*
X132707500Y-159635000D02*
X132707500Y-147415000D01*
X116087500Y-159635000D02*
X116087500Y-147415000D01*
%LPC*%
D15*
X164182142Y-197353571D02*
X164182142Y-195853571D01*
X163610714Y-195853571D01*
X163467857Y-195925000D01*
X163396428Y-195996428D01*
X163325000Y-196139285D01*
X163325000Y-196353571D01*
X163396428Y-196496428D01*
X163467857Y-196567857D01*
X163610714Y-196639285D01*
X164182142Y-196639285D01*
X161825000Y-197353571D02*
X162325000Y-196639285D01*
X162682142Y-197353571D02*
X162682142Y-195853571D01*
X162110714Y-195853571D01*
X161967857Y-195925000D01*
X161896428Y-195996428D01*
X161825000Y-196139285D01*
X161825000Y-196353571D01*
X161896428Y-196496428D01*
X161967857Y-196567857D01*
X162110714Y-196639285D01*
X162682142Y-196639285D01*
X160896428Y-195853571D02*
X160610714Y-195853571D01*
X160467857Y-195925000D01*
X160325000Y-196067857D01*
X160253571Y-196353571D01*
X160253571Y-196853571D01*
X160325000Y-197139285D01*
X160467857Y-197282142D01*
X160610714Y-197353571D01*
X160896428Y-197353571D01*
X161039285Y-197282142D01*
X161182142Y-197139285D01*
X161253571Y-196853571D01*
X161253571Y-196353571D01*
X161182142Y-196067857D01*
X161039285Y-195925000D01*
X160896428Y-195853571D01*
X159682142Y-197282142D02*
X159467857Y-197353571D01*
X159110714Y-197353571D01*
X158967857Y-197282142D01*
X158896428Y-197210714D01*
X158825000Y-197067857D01*
X158825000Y-196925000D01*
X158896428Y-196782142D01*
X158967857Y-196710714D01*
X159110714Y-196639285D01*
X159396428Y-196567857D01*
X159539285Y-196496428D01*
X159610714Y-196425000D01*
X159682142Y-196282142D01*
X159682142Y-196139285D01*
X159610714Y-195996428D01*
X159539285Y-195925000D01*
X159396428Y-195853571D01*
X159039285Y-195853571D01*
X158825000Y-195925000D01*
X157467857Y-197353571D02*
X158182142Y-197353571D01*
X158182142Y-195853571D01*
X156967857Y-197353571D02*
X156967857Y-195853571D01*
X155396428Y-197210714D02*
X155467857Y-197282142D01*
X155682142Y-197353571D01*
X155825000Y-197353571D01*
X156039285Y-197282142D01*
X156182142Y-197139285D01*
X156253571Y-196996428D01*
X156325000Y-196710714D01*
X156325000Y-196496428D01*
X156253571Y-196210714D01*
X156182142Y-196067857D01*
X156039285Y-195925000D01*
X155825000Y-195853571D01*
X155682142Y-195853571D01*
X155467857Y-195925000D01*
X155396428Y-195996428D01*
X153610714Y-197353571D02*
X153610714Y-195853571D01*
X153039285Y-195853571D01*
X152896428Y-195925000D01*
X152825000Y-195996428D01*
X152753571Y-196139285D01*
X152753571Y-196353571D01*
X152825000Y-196496428D01*
X152896428Y-196567857D01*
X153039285Y-196639285D01*
X153610714Y-196639285D01*
X151253571Y-197210714D02*
X151325000Y-197282142D01*
X151539285Y-197353571D01*
X151682142Y-197353571D01*
X151896428Y-197282142D01*
X152039285Y-197139285D01*
X152110714Y-196996428D01*
X152182142Y-196710714D01*
X152182142Y-196496428D01*
X152110714Y-196210714D01*
X152039285Y-196067857D01*
X151896428Y-195925000D01*
X151682142Y-195853571D01*
X151539285Y-195853571D01*
X151325000Y-195925000D01*
X151253571Y-195996428D01*
X150110714Y-196567857D02*
X149896428Y-196639285D01*
X149825000Y-196710714D01*
X149753571Y-196853571D01*
X149753571Y-197067857D01*
X149825000Y-197210714D01*
X149896428Y-197282142D01*
X150039285Y-197353571D01*
X150610714Y-197353571D01*
X150610714Y-195853571D01*
X150110714Y-195853571D01*
X149967857Y-195925000D01*
X149896428Y-195996428D01*
X149825000Y-196139285D01*
X149825000Y-196282142D01*
X149896428Y-196425000D01*
X149967857Y-196496428D01*
X150110714Y-196567857D01*
X150610714Y-196567857D01*
X148110714Y-196353571D02*
X147753571Y-197353571D01*
X147396428Y-196353571D01*
X146039285Y-197353571D02*
X146896428Y-197353571D01*
X146467857Y-197353571D02*
X146467857Y-195853571D01*
X146610714Y-196067857D01*
X146753571Y-196210714D01*
X146896428Y-196282142D01*
X145396428Y-197210714D02*
X145325000Y-197282142D01*
X145396428Y-197353571D01*
X145467857Y-197282142D01*
X145396428Y-197210714D01*
X145396428Y-197353571D01*
X144396428Y-195853571D02*
X144253571Y-195853571D01*
X144110714Y-195925000D01*
X144039285Y-195996428D01*
X143967857Y-196139285D01*
X143896428Y-196425000D01*
X143896428Y-196782142D01*
X143967857Y-197067857D01*
X144039285Y-197210714D01*
X144110714Y-197282142D01*
X144253571Y-197353571D01*
X144396428Y-197353571D01*
X144539285Y-197282142D01*
X144610714Y-197210714D01*
X144682142Y-197067857D01*
X144753571Y-196782142D01*
X144753571Y-196425000D01*
X144682142Y-196139285D01*
X144610714Y-195996428D01*
X144539285Y-195925000D01*
X144396428Y-195853571D01*
G36*
X129875000Y-194125000D02*
G01*
X109375000Y-194125000D01*
X109375000Y-188625000D01*
X129875000Y-188625000D01*
X129875000Y-194125000D01*
G37*
D12*
X129875000Y-194125000D02*
X109375000Y-194125000D01*
X109375000Y-188625000D01*
X129875000Y-188625000D01*
X129875000Y-194125000D01*
G36*
X105825000Y-189625000D02*
G01*
X97825000Y-189625000D01*
X97825000Y-186125000D01*
X105825000Y-186125000D01*
X105825000Y-189625000D01*
G37*
D16*
X71975000Y-147300000D03*
X71975000Y-185500000D03*
D17*
X124912500Y-180625000D03*
X123337500Y-180625000D03*
D18*
X126337500Y-180625000D03*
X127912500Y-180625000D03*
D19*
X110800000Y-147640000D03*
D20*
X113340000Y-147640000D03*
X110800000Y-150180000D03*
X113340000Y-150180000D03*
X110800000Y-152720000D03*
X113340000Y-152720000D03*
X110800000Y-155260000D03*
X113340000Y-155260000D03*
D21*
X110800000Y-157800000D03*
D20*
X113340000Y-157800000D03*
D22*
X87275000Y-151475000D03*
X85375000Y-151475000D03*
X83275000Y-151475000D03*
X81375000Y-151475000D03*
X85375000Y-167275000D03*
X87275000Y-167275000D03*
X81375000Y-167275000D03*
X83275000Y-167275000D03*
D23*
X39612500Y-173075000D03*
X41437500Y-173075000D03*
X39612500Y-171025000D03*
X41437500Y-171025000D03*
X39625000Y-188875000D03*
X41450000Y-188875000D03*
X39612500Y-186825000D03*
X41437500Y-186825000D03*
D24*
X97675000Y-158175000D03*
D25*
X97675000Y-155675000D03*
D24*
X97675000Y-150975000D03*
D25*
X97675000Y-148475000D03*
X105075000Y-148475000D03*
D24*
X105075000Y-150975000D03*
D25*
X105075000Y-155675000D03*
D24*
X105075000Y-158175000D03*
D26*
X100425000Y-170475000D03*
D27*
X96675000Y-164805000D03*
X97175000Y-164805000D03*
X97675000Y-164805000D03*
X98175000Y-164805000D03*
X98675000Y-164805000D03*
X99175000Y-164805000D03*
X99675000Y-164805000D03*
X100175000Y-164805000D03*
X100675000Y-164805000D03*
X101175000Y-164805000D03*
X101675000Y-164805000D03*
X102175000Y-164805000D03*
X102675000Y-164805000D03*
X103175000Y-164805000D03*
X103675000Y-164805000D03*
X104175000Y-164805000D03*
D28*
X106095000Y-166725000D03*
X106095000Y-167225000D03*
X106095000Y-167725000D03*
X106095000Y-168225000D03*
X106095000Y-168725000D03*
X106095000Y-169225000D03*
X106095000Y-169725000D03*
X106095000Y-170225000D03*
X106095000Y-170725000D03*
X106095000Y-171225000D03*
X106095000Y-171725000D03*
X106095000Y-172225000D03*
X106095000Y-172725000D03*
X106095000Y-173225000D03*
X106095000Y-173725000D03*
X106095000Y-174225000D03*
D27*
X104175000Y-176145000D03*
X103675000Y-176145000D03*
X103175000Y-176145000D03*
X102675000Y-176145000D03*
X102175000Y-176145000D03*
X101675000Y-176145000D03*
X101175000Y-176145000D03*
X100675000Y-176145000D03*
X100175000Y-176145000D03*
X99675000Y-176145000D03*
X99175000Y-176145000D03*
X98675000Y-176145000D03*
X98175000Y-176145000D03*
X97675000Y-176145000D03*
X97175000Y-176145000D03*
X96675000Y-176145000D03*
D28*
X94755000Y-174225000D03*
X94755000Y-173725000D03*
X94755000Y-173225000D03*
X94755000Y-172725000D03*
X94755000Y-172225000D03*
X94755000Y-171725000D03*
X94755000Y-171225000D03*
X94755000Y-170725000D03*
X94755000Y-170225000D03*
X94755000Y-169725000D03*
X94755000Y-169225000D03*
X94755000Y-168725000D03*
X94755000Y-168225000D03*
X94755000Y-167725000D03*
X94755000Y-167225000D03*
X94755000Y-166725000D03*
D29*
X112425000Y-167745000D03*
X113225000Y-167745000D03*
X114025000Y-167745000D03*
X114825000Y-167745000D03*
X115625000Y-167745000D03*
X116425000Y-167745000D03*
X117225000Y-167745000D03*
X118025000Y-167745000D03*
D30*
X119405000Y-169125000D03*
X119405000Y-169925000D03*
X119405000Y-170725000D03*
X119405000Y-171525000D03*
X119405000Y-172325000D03*
X119405000Y-173125000D03*
X119405000Y-173925000D03*
X119405000Y-174725000D03*
D29*
X118025000Y-176105000D03*
X117225000Y-176105000D03*
X116425000Y-176105000D03*
X115625000Y-176105000D03*
X114825000Y-176105000D03*
X114025000Y-176105000D03*
X113225000Y-176105000D03*
X112425000Y-176105000D03*
D30*
X111045000Y-174725000D03*
X111045000Y-173925000D03*
X111045000Y-173125000D03*
X111045000Y-172325000D03*
X111045000Y-171525000D03*
X111045000Y-170725000D03*
X111045000Y-169925000D03*
X111045000Y-169125000D03*
D31*
X84325000Y-157875000D03*
D32*
X86800000Y-153430000D03*
X86800000Y-154700000D03*
X86800000Y-155970000D03*
X86800000Y-157240000D03*
X86800000Y-158510000D03*
X86800000Y-159780000D03*
X86800000Y-161050000D03*
X86800000Y-162320000D03*
X81850000Y-162320000D03*
X81850000Y-161050000D03*
X81850000Y-159780000D03*
X81850000Y-158510000D03*
X81850000Y-157240000D03*
X81850000Y-155970000D03*
X81850000Y-154700000D03*
X81850000Y-153430000D03*
X81855000Y-169315000D03*
X81855000Y-170585000D03*
X81855000Y-171855000D03*
X81855000Y-173125000D03*
X81855000Y-174395000D03*
X81855000Y-175665000D03*
X81855000Y-176935000D03*
X81855000Y-178205000D03*
X86805000Y-178205000D03*
X86805000Y-176935000D03*
X86805000Y-175665000D03*
X86805000Y-174395000D03*
X86805000Y-173125000D03*
X86805000Y-171855000D03*
X86805000Y-170585000D03*
X86805000Y-169315000D03*
D31*
X84330000Y-173760000D03*
D32*
X114195000Y-161320000D03*
X114195000Y-162590000D03*
X114195000Y-163860000D03*
X114195000Y-165130000D03*
X109255000Y-165130000D03*
X109255000Y-163860000D03*
X109255000Y-162590000D03*
X109255000Y-161320000D03*
D16*
X69425000Y-154145000D03*
X69425000Y-167285000D03*
X69425000Y-177445000D03*
D33*
X78315000Y-156050000D03*
X78315000Y-169050000D03*
D34*
X75775000Y-170320000D03*
X75775000Y-157320000D03*
X78315000Y-158590000D03*
X78315000Y-171590000D03*
X75775000Y-159860000D03*
X75775000Y-172860000D03*
X78315000Y-174130000D03*
X78315000Y-161130000D03*
X75775000Y-162400000D03*
X75775000Y-175400000D03*
D35*
X126625000Y-172125000D03*
X126625000Y-167245000D03*
D36*
X117437500Y-152275000D03*
D24*
X117437500Y-154775000D03*
X119437500Y-154775000D03*
X119437500Y-152275000D03*
D37*
X122297500Y-147525000D03*
X122297500Y-159525000D03*
D38*
X120450000Y-164075000D03*
D20*
X117910000Y-164075000D03*
M02*
