M48
; DRILL file {KiCad 6.0.9+dfsg-1} date Wed 25 Jan 2023 09:24:44 PM CET
; FORMAT={-:-/ absolute / metric / decimal}
; #@! TF.CreationDate,2023-01-25T21:24:44+01:00
; #@! TF.GenerationSoftware,Kicad,Pcbnew,6.0.9+dfsg-1
; #@! TF.FileFunction,Plated,1,4,PTH
FMAT,2
METRIC
; #@! TA.AperFunction,Plated,PTH,ViaDrill
T1C0.200
; #@! TA.AperFunction,Plated,PTH,ViaDrill
T2C0.300
; #@! TA.AperFunction,Plated,PTH,ViaDrill
T3C0.500
; #@! TA.AperFunction,Plated,PTH,ComponentDrill
T4C0.800
; #@! TA.AperFunction,Plated,PTH,ComponentDrill
T5C0.900
; #@! TA.AperFunction,Plated,PTH,ComponentDrill
T6C0.950
; #@! TA.AperFunction,Plated,PTH,ComponentDrill
T7C1.000
; #@! TA.AperFunction,Plated,PTH,ComponentDrill
T8C2.300
%
G90
G05
T1
X97.675Y-167.725
X97.675Y-173.225
X103.175Y-167.725
X103.175Y-173.225
X118.275Y-169.125
X118.275Y-169.925
T2
X111.125Y-188.0
X112.125Y-188.0
X113.125Y-188.0
X116.125Y-188.025
X124.125Y-185.5
X124.125Y-186.5
X124.125Y-187.5
X126.625Y-185.5
X126.625Y-186.5
X126.625Y-187.5
X129.125Y-185.5
X129.125Y-186.5
X129.125Y-187.5
T3
X84.325Y-157.875
X84.33Y-173.76
X100.425Y-170.475
T4
X97.675Y-148.475
X97.675Y-150.975
X97.675Y-155.675
X97.675Y-158.175
X105.075Y-148.475
X105.075Y-150.975
X105.075Y-155.675
X105.075Y-158.175
X126.625Y-167.245
X126.625Y-172.125
T5
X75.775Y-157.32
X75.775Y-159.86
X75.775Y-162.4
X75.775Y-170.32
X75.775Y-172.86
X75.775Y-175.4
X78.315Y-156.05
X78.315Y-158.59
X78.315Y-161.13
X78.315Y-169.05
X78.315Y-171.59
X78.315Y-174.13
T6
X117.438Y-152.275
X117.438Y-154.775
X119.438Y-152.275
X119.438Y-154.775
T7
X110.8Y-147.64
X110.8Y-150.18
X110.8Y-152.72
X110.8Y-155.26
X110.8Y-157.8
X113.34Y-147.64
X113.34Y-150.18
X113.34Y-152.72
X113.34Y-155.26
X113.34Y-157.8
X117.91Y-164.075
X120.45Y-164.075
T8
X122.297Y-147.525
X122.297Y-159.525
T0
M30
