M48
; DRILL file {KiCad 6.0.9+dfsg-1} date Wed 25 Jan 2023 09:24:44 PM CET
; FORMAT={-:-/ absolute / metric / decimal}
; #@! TF.CreationDate,2023-01-25T21:24:44+01:00
; #@! TF.GenerationSoftware,Kicad,Pcbnew,6.0.9+dfsg-1
; #@! TF.FileFunction,Plated,1,3,Blind
FMAT,2
METRIC
; #@! TA.AperFunction,Plated,Buried,ViaDrill
T1C0.200
%
G90
G05
T1
X95.875Y-169.725
X95.875Y-171.725
X96.225Y-169.225
X96.225Y-171.225
X96.675Y-165.875
X96.675Y-177.225
X97.175Y-166.225
X97.175Y-177.525
X97.675Y-165.875
X97.675Y-177.225
X98.175Y-166.225
X98.175Y-177.575
X110.61Y-162.59
X110.625Y-161.325
X112.825Y-163.86
X112.825Y-165.13
X114.025Y-168.925
X114.825Y-168.925
X115.625Y-168.925
X116.425Y-168.925
X117.225Y-168.925
T0
M30
